SplineFontDB: 1.0
FontName: DejaVuSerif-Roman
FullName: DejaVu Serif
FamilyName: DejaVu Serif
Weight: Book
Copyright: Copyright (c) 2003 by Bitstream, Inc. All Rights Reserved.\nDejaVu changes are in public domain\n
Version: 1.10
ItalicAngle: 0
UnderlinePosition: -213
UnderlineWidth: 133
Ascent: 1556
Descent: 492
Order2: 1
NeedsXUIDChange: 1
FSType: 4
PfmFamily: 17
TTFWeight: 400
TTFWidth: 5
Panose: 2 6 6 3 5 6 5 2 2 4
LineGap: 410
VLineGap: 0
OS2TypoAscent: 1556
OS2TypoDescent: -492
OS2TypoLinegap: 0
OS2WinAscent: 1901
OS2WinAOffset: 0
OS2WinDescent: 483
OS2WinDOffset: 0
HheadAscent: 1901
HheadAOffset: 0
HheadDescent: -483
HheadDOffset: 0
ScriptLang: 2
 1 latn 1 dflt 
 1 DFLT 1 dflt 
TtfTable: prep 1374
\,q1Gi5bg!`Y/Hn`$>N*A-9e9"N2Pf_[Q^b_']E'A-9Xq"2J1E^O63s$Nn!K"1l#W"hHGk\J,.U
1'>#b"1J12[Jg97rWBJ*"0o(#"gRn+YX\f!rWB<O"0MP)X:>?5WXK'3'Eb?D"0"$XW+6".*Wr2n
"/DT$"f)&!U1=A"Q4=(l,m0fb$3d(K".r3gSe)!p/d%W"*X/)5".P_j"e-M7RLfRhQjs:f,m0NZ
$3ce,".2=VQ^/*bQP9OgJ-;/J"-u1TPpHNsKJ3RorWA@I'*XRG"-ScU"d0N$P.1NX5R@RUO9u/R
%0Ma&!<>AV"HWrmOMD![Dg_eM]*"(E$O)P&"-,VLNI_H@NB.0#Mn9.OrWA(9>m6.u",h[4MMWV_
MHp=A5Qlq"*X.BH",M^E"c+3%Lq*K#5lUtB&Hd`?0Em/@",&?1K,+Q@Q32[G"+Xom"b?RSIr#Z"
Ii/?;I1?F01';q7"+5G+"agscHOg4)Q32CE"*b.TGBP)4GPVDbFW:R.+9Qa+"*A>j"`tdfF8c8^
rW@.Z%0^bN")n\OE'OPEI04A(4p>h>")U4(ChjF_C_-\bJ-9Wr")C.)C1LiYCAJ$HBY+F^rW?hH
>m4oR")*2fB4`FnB3bUP5Qk[F"(c"R"_IN4A7PdP'a%qE"(D02?sbMi@/^78/d#GZ"'tm.>Y>0'
I03[P"'J"o=T/D(rW?35"',=&;e,u.'E_2f"&Mc("]0UL:CdP&5sRa=9FCqpA-5CI#R*ec"%Y0L
7fs;+7hYto&d(Q($3`j9"%5Ki"[m,.6UD=f6PBPg5mmi_&-G3`#mEU&"$d.p5e-j05Z7eMQ30;R
/Hn=4"$Ja\"[,K\4?ElR4;7l[5Qj.U"$/FT"Zfok3B.TS3>)ER&Has$"#g,\2)H!N2?!\71D9pK
'E^-H$3`4!"#;S;"YpDe1:[A"5lUsA#m2k7(^2T]""u8A"YU\p0>I]C*XW'''a$(=">'pj"YH#B
/1VD</5$'q+p\?&'E]jN"=aH["Y+$b.4?kR.7"%a">'d*0EW[*/HmO$""$&2,n1[p-!^Tu,8(/*
;Ze6g#R)Fc"!^&6+p\8o+;b8*>lu2k&Hs9o"!GA^+!(am*t\SsJ-6o#"!0]1*?tY+%g*ar!u`%2
"WC;A)$DMp))).0rW<r<$3_7F!u;FM'bh>c'l*mc',(N`'E]%7";;FN&d0ci'"\5X!tYVJrW<]6

StartChar: .notdef
Encoding: 0 -1 0
Width: 1229
Flags: W
Fore
102 -362 m 1,0,-1
 102 1444 l 1,1,-1
 1126 1444 l 1,2,-1
 1126 -362 l 1,3,-1
 102 -362 l 1,0,-1
217 -248 m 1,4,-1
 1012 -248 l 1,5,-1
 1012 1329 l 1,6,-1
 217 1329 l 1,7,-1
 217 -248 l 1,4,-1
EndSplineSet
EndChar
StartChar: exclam
Encoding: 33 33 4
Width: 823
Flags: W
Fore
279 104 m 0,0,1
 279 160 279 160 317 199 c 128,-1,2
 355 238 355 238 412 238 c 0,3,4
 467 238 467 238 506 199 c 128,-1,5
 545 160 545 160 545 104 c 0,6,7
 545 49 545 49 506 10 c 128,-1,8
 467 -29 467 -29 412 -29 c 0,9,10
 355 -29 355 -29 317 9.5 c 128,-1,11
 279 48 279 48 279 104 c 0,0,1
283 1493 m 1,12,-1
 541 1493 l 1,13,-1
 473 672 l 1,14,-1
 473 420 l 1,15,-1
 350 420 l 1,16,-1
 350 672 l 1,17,-1
 283 1493 l 1,12,-1
EndSplineSet
EndChar
StartChar: quotedbl
Encoding: 34 34 5
Width: 942
Flags: W
Fore
360 1493 m 1,0,-1
 360 938 l 1,1,-1
 201 938 l 1,2,-1
 201 1493 l 1,3,-1
 360 1493 l 1,0,-1
741 1493 m 1,4,-1
 741 938 l 1,5,-1
 582 938 l 1,6,-1
 582 1493 l 1,7,-1
 741 1493 l 1,4,-1
EndSplineSet
EndChar
StartChar: numbersign
Encoding: 35 35 6
Width: 1716
Flags: W
Fore
1042 901 m 1,0,-1
 760 901 l 1,1,-1
 676 567 l 1,2,-1
 961 567 l 1,3,-1
 1042 901 l 1,0,-1
901 1470 m 1,4,-1
 799 1055 l 1,5,-1
 1081 1055 l 1,6,-1
 1184 1470 l 1,7,-1
 1356 1470 l 1,8,-1
 1251 1055 l 1,9,-1
 1559 1055 l 1,10,-1
 1559 901 l 1,11,-1
 1212 901 l 1,12,-1
 1130 567 l 1,13,-1
 1444 567 l 1,14,-1
 1444 414 l 1,15,-1
 1092 414 l 1,16,-1
 989 0 l 1,17,-1
 817 0 l 1,18,-1
 922 414 l 1,19,-1
 639 414 l 1,20,-1
 535 0 l 1,21,-1
 365 0 l 1,22,-1
 467 414 l 1,23,-1
 158 414 l 1,24,-1
 158 567 l 1,25,-1
 506 567 l 1,26,-1
 588 901 l 1,27,-1
 272 901 l 1,28,-1
 272 1055 l 1,29,-1
 627 1055 l 1,30,-1
 731 1470 l 1,31,-1
 901 1470 l 1,4,-1
EndSplineSet
EndChar
StartChar: dollar
Encoding: 36 36 7
Width: 1303
Flags: W
Fore
690 68 m 1,0,1
 803 78 803 78 862.5 133 c 128,-1,2
 922 188 922 188 922 283 c 0,3,4
 922 369 922 369 863 429 c 128,-1,5
 804 489 804 489 690 520 c 1,6,-1
 690 68 l 1,0,1
590 1187 m 1,7,8
 487 1180 487 1180 430 1127.5 c 128,-1,9
 373 1075 373 1075 373 987 c 0,10,11
 373 907 373 907 425.5 854 c 128,-1,12
 478 801 478 801 590 768 c 1,13,-1
 590 1187 l 1,7,8
176 72 m 1,14,-1
 176 348 l 1,15,-1
 284 348 l 1,16,17
 288 211 288 211 364 141 c 128,-1,18
 440 71 440 71 590 68 c 1,19,-1
 590 553 l 1,20,21
 360 617 360 617 267 700.5 c 128,-1,22
 174 784 174 784 174 922 c 0,23,24
 174 1082 174 1082 284 1179 c 128,-1,25
 394 1276 394 1276 590 1288 c 1,26,-1
 590 1556 l 1,27,-1
 690 1556 l 1,28,-1
 690 1288 l 1,29,30
 791 1280 791 1280 884.5 1255.5 c 128,-1,31
 978 1231 978 1231 1067 1190 c 1,32,-1
 1067 928 l 1,33,-1
 958 928 l 1,34,35
 946 1044 946 1044 877 1111 c 128,-1,36
 808 1178 808 1178 690 1187 c 1,37,-1
 690 735 l 1,38,39
 936 668 936 668 1034.5 581.5 c 128,-1,40
 1133 495 1133 495 1133 350 c 0,41,42
 1133 184 1133 184 1017 84 c 128,-1,43
 901 -16 901 -16 690 -31 c 1,44,-1
 690 -301 l 1,45,-1
 590 -301 l 1,46,-1
 590 -31 l 1,47,48
 494 -29 494 -29 391 -3.5 c 128,-1,49
 288 22 288 22 176 72 c 1,14,-1
EndSplineSet
EndChar
StartChar: percent
Encoding: 37 37 8
Width: 1946
Flags: W
Fore
459 1427 m 0,0,1
 371 1427 371 1427 321.5 1344 c 128,-1,2
 272 1261 272 1261 272 1112 c 0,3,4
 272 965 272 965 322.5 881 c 128,-1,5
 373 797 373 797 459 797 c 0,6,7
 544 797 544 797 593.5 880.5 c 128,-1,8
 643 964 643 964 643 1112 c 0,9,10
 643 1260 643 1260 593.5 1343.5 c 128,-1,11
 544 1427 544 1427 459 1427 c 0,0,1
1489 694 m 0,12,13
 1402 694 1402 694 1352.5 610 c 128,-1,14
 1303 526 1303 526 1303 377 c 0,15,16
 1303 230 1303 230 1353 146.5 c 128,-1,17
 1403 63 1403 63 1489 63 c 0,18,19
 1575 63 1575 63 1624 146.5 c 128,-1,20
 1673 230 1673 230 1673 377 c 0,21,22
 1673 525 1673 525 1623.5 609.5 c 128,-1,23
 1574 694 1574 694 1489 694 c 0,12,13
1489 784 m 0,24,25
 1647 784 1647 784 1740 674 c 128,-1,26
 1833 564 1833 564 1833 377 c 0,27,28
 1833 190 1833 190 1739.5 80.5 c 128,-1,29
 1646 -29 1646 -29 1489 -29 c 0,30,31
 1329 -29 1329 -29 1236 80.5 c 128,-1,32
 1143 190 1143 190 1143 377 c 0,33,34
 1143 565 1143 565 1236.5 674.5 c 128,-1,35
 1330 784 1330 784 1489 784 c 0,24,25
1364 1520 m 1,36,-1
 1516 1520 l 1,37,-1
 582 -29 l 1,38,-1
 430 -29 l 1,39,-1
 1364 1520 l 1,36,-1
457 1520 m 0,40,41
 615 1520 615 1520 709 1410.5 c 128,-1,42
 803 1301 803 1301 803 1114 c 0,43,44
 803 925 803 925 709.5 816 c 128,-1,45
 616 707 616 707 457 707 c 0,46,47
 298 707 298 707 205.5 816.5 c 128,-1,48
 113 926 113 926 113 1114 c 0,49,50
 113 1300 113 1300 206 1410 c 128,-1,51
 299 1520 299 1520 457 1520 c 0,40,41
EndSplineSet
EndChar
StartChar: ampersand
Encoding: 38 38 9
Width: 1823
Flags: W
Fore
1106 231 m 1,0,-1
 524 844 l 1,1,2
 437 766 437 766 393.5 675.5 c 128,-1,3
 350 585 350 585 350 483 c 0,4,5
 350 317 350 317 465 204.5 c 128,-1,6
 580 92 580 92 752 92 c 0,7,8
 854 92 854 92 944.5 127.5 c 128,-1,9
 1035 163 1035 163 1106 231 c 1,0,-1
1726 0 m 1,10,-1
 1325 0 l 1,11,-1
 1188 145 l 1,12,13
 1083 57 1083 57 964 14 c 128,-1,14
 845 -29 845 -29 707 -29 c 0,15,16
 449 -29 449 -29 298 103 c 128,-1,17
 147 235 147 235 147 461 c 0,18,19
 147 594 147 594 223.5 709.5 c 128,-1,20
 300 825 300 825 455 926 c 1,21,22
 404 987 404 987 380 1047.5 c 128,-1,23
 356 1108 356 1108 356 1174 c 0,24,25
 356 1333 356 1333 470.5 1426.5 c 128,-1,26
 585 1520 585 1520 782 1520 c 0,27,28
 849 1520 849 1520 938.5 1503 c 128,-1,29
 1028 1486 1028 1486 1143 1452 c 1,30,-1
 1143 1194 l 1,31,-1
 1030 1194 l 1,32,33
 1016 1301 1016 1301 952 1357 c 128,-1,34
 888 1413 888 1413 778 1413 c 0,35,36
 675 1413 675 1413 611 1356.5 c 128,-1,37
 547 1300 547 1300 547 1210 c 0,38,39
 547 1149 547 1149 581 1088.5 c 128,-1,40
 615 1028 615 1028 723 915 c 2,41,-1
 1239 371 l 1,42,43
 1308 451 1308 451 1347.5 543.5 c 128,-1,44
 1387 636 1387 636 1397 741 c 1,45,-1
 1217 741 l 1,46,-1
 1217 848 l 1,47,-1
 1690 848 l 1,48,-1
 1690 741 l 1,49,-1
 1518 741 l 1,50,51
 1501 611 1501 611 1451.5 498 c 128,-1,52
 1402 385 1402 385 1319 289 c 1,53,-1
 1491 106 l 1,54,-1
 1726 106 l 1,55,-1
 1726 0 l 1,10,-1
EndSplineSet
EndChar
StartChar: quotesingle
Encoding: 39 39 10
Width: 563
Flags: W
Fore
360 1493 m 1,0,-1
 360 938 l 1,1,-1
 201 938 l 1,2,-1
 201 1493 l 1,3,-1
 360 1493 l 1,0,-1
EndSplineSet
EndChar
StartChar: parenleft
Encoding: 40 40 11
Width: 799
Flags: W
Fore
653 -319 m 1,0,1
 410 -210 410 -210 286 26.5 c 128,-1,2
 162 263 162 263 162 618 c 0,3,4
 162 974 162 974 286 1210.5 c 128,-1,5
 410 1447 410 1447 653 1556 c 1,6,-1
 653 1458 l 1,7,8
 499 1352 499 1352 432 1159.5 c 128,-1,9
 365 967 365 967 365 618 c 0,10,11
 365 270 365 270 432 77.5 c 128,-1,12
 499 -115 499 -115 653 -221 c 1,13,-1
 653 -319 l 1,0,1
EndSplineSet
EndChar
StartChar: parenright
Encoding: 41 41 12
Width: 799
Flags: W
Fore
145 -319 m 1,0,-1
 145 -221 l 1,1,2
 299 -115 299 -115 366.5 77.5 c 128,-1,3
 434 270 434 270 434 618 c 0,4,5
 434 967 434 967 366.5 1159.5 c 128,-1,6
 299 1352 299 1352 145 1458 c 1,7,-1
 145 1556 l 1,8,9
 389 1447 389 1447 513 1210.5 c 128,-1,10
 637 974 637 974 637 618 c 0,11,12
 637 263 637 263 513 26.5 c 128,-1,13
 389 -210 389 -210 145 -319 c 1,0,-1
EndSplineSet
EndChar
StartChar: asterisk
Encoding: 42 42 13
Width: 1024
Flags: W
Fore
991 1237 m 1,0,-1
 600 1055 l 1,1,-1
 991 870 l 1,2,-1
 915 752 l 1,3,-1
 567 969 l 1,4,-1
 580 588 l 1,5,-1
 444 588 l 1,6,-1
 457 969 l 1,7,-1
 109 752 l 1,8,-1
 33 870 l 1,9,-1
 424 1053 l 1,10,-1
 33 1237 l 1,11,-1
 109 1356 l 1,12,-1
 457 1139 l 1,13,-1
 444 1520 l 1,14,-1
 580 1520 l 1,15,-1
 567 1139 l 1,16,-1
 915 1356 l 1,17,-1
 991 1237 l 1,0,-1
EndSplineSet
EndChar
StartChar: plus
Encoding: 43 43 14
Width: 1716
Flags: W
Fore
938 1284 m 1,0,-1
 938 723 l 1,1,-1
 1499 723 l 1,2,-1
 1499 561 l 1,3,-1
 938 561 l 1,4,-1
 938 0 l 1,5,-1
 778 0 l 1,6,-1
 778 561 l 1,7,-1
 217 561 l 1,8,-1
 217 723 l 1,9,-1
 778 723 l 1,10,-1
 778 1284 l 1,11,-1
 938 1284 l 1,0,-1
EndSplineSet
EndChar
StartChar: comma
Encoding: 44 44 15
Width: 651
Flags: W
Fore
74 -199 m 1,0,1
 168 -130 168 -130 212 -36.5 c 128,-1,2
 256 57 256 57 256 190 c 2,3,-1
 256 227 l 1,4,-1
 453 227 l 1,5,6
 445 56 445 56 372.5 -66.5 c 128,-1,7
 300 -189 300 -189 154 -279 c 1,8,-1
 74 -199 l 1,0,1
EndSplineSet
EndChar
StartChar: hyphen
Encoding: 45 45 16
Width: 692
Flags: W
Fore
90 627 m 1,0,-1
 602 627 l 1,1,-1
 602 471 l 1,2,-1
 90 471 l 1,3,-1
 90 627 l 1,0,-1
EndSplineSet
KernsSLIF: 356 -73 0 0 221 -225 0 0 376 -225 0 0 89 -225 0 0 88 -73 0 0 87 -112 0 0 86 -149 0 0 84 -73 0 0
EndChar
StartChar: period
Encoding: 46 46 17
Width: 651
Flags: W
Fore
193 104 m 0,0,1
 193 160 193 160 231 199 c 128,-1,2
 269 238 269 238 326 238 c 0,3,4
 381 238 381 238 420 199 c 128,-1,5
 459 160 459 160 459 104 c 0,6,7
 459 49 459 49 420 10 c 128,-1,8
 381 -29 381 -29 326 -29 c 0,9,10
 269 -29 269 -29 231 9.5 c 128,-1,11
 193 48 193 48 193 104 c 0,0,1
EndSplineSet
EndChar
StartChar: slash
Encoding: 47 47 18
Width: 690
Flags: W
Fore
530 1493 m 1,0,-1
 690 1493 l 1,1,-1
 160 -190 l 1,2,-1
 0 -190 l 1,3,-1
 530 1493 l 1,0,-1
EndSplineSet
EndChar
StartChar: zero
Encoding: 48 48 19
Width: 1303
Flags: W
Fore
651 70 m 0,0,1
 804 70 804 70 880 238 c 128,-1,2
 956 406 956 406 956 745 c 0,3,4
 956 1085 956 1085 880 1253 c 128,-1,5
 804 1421 804 1421 651 1421 c 0,6,7
 498 1421 498 1421 422 1253 c 128,-1,8
 346 1085 346 1085 346 745 c 0,9,10
 346 406 346 406 422 238 c 128,-1,11
 498 70 498 70 651 70 c 0,0,1
651 -29 m 0,12,13
 408 -29 408 -29 271.5 175 c 128,-1,14
 135 379 135 379 135 745 c 0,15,16
 135 1112 135 1112 271.5 1316 c 128,-1,17
 408 1520 408 1520 651 1520 c 0,18,19
 895 1520 895 1520 1031 1316 c 128,-1,20
 1167 1112 1167 1112 1167 745 c 0,21,22
 1167 379 1167 379 1031 175 c 128,-1,23
 895 -29 895 -29 651 -29 c 0,12,13
EndSplineSet
EndChar
StartChar: one
Encoding: 49 49 20
Width: 1303
Flags: W
Fore
291 0 m 1,0,-1
 291 106 l 1,1,-1
 551 106 l 1,2,-1
 551 1348 l 1,3,-1
 250 1153 l 1,4,-1
 250 1284 l 1,5,-1
 614 1520 l 1,6,-1
 752 1520 l 1,7,-1
 752 106 l 1,8,-1
 1012 106 l 1,9,-1
 1012 0 l 1,10,-1
 291 0 l 1,0,-1
EndSplineSet
EndChar
StartChar: two
Encoding: 50 50 21
Width: 1303
Flags: W
Fore
262 1137 m 1,0,-1
 150 1137 l 1,1,-1
 150 1403 l 1,2,3
 257 1460 257 1460 365.5 1490 c 128,-1,4
 474 1520 474 1520 578 1520 c 0,5,6
 811 1520 811 1520 946 1407 c 128,-1,7
 1081 1294 1081 1294 1081 1100 c 0,8,9
 1081 881 1081 881 775 576 c 0,10,11
 751 553 751 553 739 541 c 2,12,-1
 362 164 l 1,13,-1
 985 164 l 1,14,-1
 985 348 l 1,15,-1
 1102 348 l 1,16,-1
 1102 0 l 1,17,-1
 139 0 l 1,18,-1
 139 109 l 1,19,-1
 592 561 l 2,20,21
 742 711 742 711 806 836.5 c 128,-1,22
 870 962 870 962 870 1100 c 0,23,24
 870 1251 870 1251 791.5 1336 c 128,-1,25
 713 1421 713 1421 575 1421 c 0,26,27
 432 1421 432 1421 354 1350 c 128,-1,28
 276 1279 276 1279 262 1137 c 1,0,-1
EndSplineSet
EndChar
StartChar: three
Encoding: 51 51 22
Width: 1303
Flags: W
Fore
199 1430 m 1,0,1
 316 1474 316 1474 423.5 1497 c 128,-1,2
 531 1520 531 1520 625 1520 c 0,3,4
 844 1520 844 1520 967 1425.5 c 128,-1,5
 1090 1331 1090 1331 1090 1163 c 0,6,7
 1090 1028 1090 1028 1005 937.5 c 128,-1,8
 920 847 920 847 764 815 c 1,9,10
 948 789 948 789 1049.5 681.5 c 128,-1,11
 1151 574 1151 574 1151 403 c 0,12,13
 1151 194 1151 194 1010.5 82.5 c 128,-1,14
 870 -29 870 -29 606 -29 c 0,15,16
 489 -29 489 -29 377.5 -4 c 128,-1,17
 266 21 266 21 156 72 c 1,18,-1
 156 362 l 1,19,-1
 268 362 l 1,20,21
 278 218 278 218 365 144 c 128,-1,22
 452 70 452 70 610 70 c 0,23,24
 763 70 763 70 851.5 158.5 c 128,-1,25
 940 247 940 247 940 401 c 0,26,27
 940 577 940 577 849 667.5 c 128,-1,28
 758 758 758 758 582 758 c 2,29,-1
 487 758 l 1,30,-1
 487 860 l 1,31,-1
 537 860 l 2,32,33
 712 860 712 860 799.5 932.5 c 128,-1,34
 887 1005 887 1005 887 1151 c 0,35,36
 887 1282 887 1282 815 1351.5 c 128,-1,37
 743 1421 743 1421 608 1421 c 0,38,39
 473 1421 473 1421 398.5 1357 c 128,-1,40
 324 1293 324 1293 311 1167 c 1,41,-1
 199 1167 l 1,42,-1
 199 1430 l 1,0,1
EndSplineSet
EndChar
StartChar: four
Encoding: 52 52 23
Width: 1303
Flags: W
Fore
715 506 m 1,0,-1
 715 1300 l 1,1,-1
 205 506 l 1,2,-1
 715 506 l 1,0,-1
1155 0 m 1,3,-1
 475 0 l 1,4,-1
 475 106 l 1,5,-1
 715 106 l 1,6,-1
 715 399 l 1,7,-1
 63 399 l 1,8,-1
 63 508 l 1,9,-1
 717 1520 l 1,10,-1
 915 1520 l 1,11,-1
 915 506 l 1,12,-1
 1200 506 l 1,13,-1
 1200 399 l 1,14,-1
 915 399 l 1,15,-1
 915 106 l 1,16,-1
 1155 106 l 1,17,-1
 1155 0 l 1,3,-1
EndSplineSet
EndChar
StartChar: five
Encoding: 53 53 24
Width: 1303
Flags: W
Fore
1030 1493 m 1,0,-1
 1030 1329 l 1,1,-1
 346 1329 l 1,2,-1
 346 901 l 1,3,4
 398 937 398 937 467.5 955 c 128,-1,5
 537 973 537 973 623 973 c 0,6,7
 865 973 865 973 1005 839 c 128,-1,8
 1145 705 1145 705 1145 473 c 0,9,10
 1145 236 1145 236 1003.5 103.5 c 128,-1,11
 862 -29 862 -29 606 -29 c 0,12,13
 503 -29 503 -29 395 -4 c 128,-1,14
 287 21 287 21 174 72 c 1,15,-1
 174 362 l 1,16,-1
 287 362 l 1,17,18
 296 220 296 220 377.5 145 c 128,-1,19
 459 70 459 70 606 70 c 0,20,21
 764 70 764 70 849 174 c 128,-1,22
 934 278 934 278 934 473 c 0,23,24
 934 667 934 667 849.5 770.5 c 128,-1,25
 765 874 765 874 606 874 c 0,26,27
 516 874 516 874 447.5 842 c 128,-1,28
 379 810 379 810 326 743 c 1,29,-1
 240 743 l 1,30,-1
 240 1493 l 1,31,-1
 1030 1493 l 1,0,-1
EndSplineSet
EndChar
StartChar: six
Encoding: 54 54 25
Width: 1303
Flags: W
Fore
670 70 m 0,0,1
 811 70 811 70 887 173.5 c 128,-1,2
 963 277 963 277 963 471 c 0,3,4
 963 665 963 665 887 768.5 c 128,-1,5
 811 872 811 872 670 872 c 0,6,7
 527 872 527 872 452 772 c 128,-1,8
 377 672 377 672 377 483 c 0,9,10
 377 284 377 284 453 177 c 128,-1,11
 529 70 529 70 670 70 c 0,0,1
344 822 m 1,12,13
 412 897 412 897 498 934 c 128,-1,14
 584 971 584 971 692 971 c 0,15,16
 915 971 915 971 1044.5 837 c 128,-1,17
 1174 703 1174 703 1174 471 c 0,18,19
 1174 244 1174 244 1034.5 107.5 c 128,-1,20
 895 -29 895 -29 662 -29 c 0,21,22
 409 -29 409 -29 273 159.5 c 128,-1,23
 137 348 137 348 137 698 c 0,24,25
 137 1090 137 1090 298 1305 c 128,-1,26
 459 1520 459 1520 752 1520 c 0,27,28
 831 1520 831 1520 918 1505 c 128,-1,29
 1005 1490 1005 1490 1096 1460 c 1,30,-1
 1096 1214 l 1,31,-1
 983 1214 l 1,32,33
 971 1315 971 1315 906 1368 c 128,-1,34
 841 1421 841 1421 731 1421 c 0,35,36
 537 1421 537 1421 442 1274 c 128,-1,37
 347 1127 347 1127 344 822 c 1,12,13
EndSplineSet
EndChar
StartChar: seven
Encoding: 55 55 26
Width: 1303
Flags: W
Fore
1155 1391 m 1,0,-1
 571 0 l 1,1,-1
 422 0 l 1,2,-1
 979 1329 l 1,3,-1
 289 1329 l 1,4,-1
 289 1145 l 1,5,-1
 172 1145 l 1,6,-1
 172 1493 l 1,7,-1
 1155 1493 l 1,8,-1
 1155 1391 l 1,0,-1
EndSplineSet
EndChar
StartChar: eight
Encoding: 56 56 27
Width: 1303
Flags: W
Fore
954 408 m 0,0,1
 954 568 954 568 874.5 656.5 c 128,-1,2
 795 745 795 745 651 745 c 0,3,4
 507 745 507 745 427.5 656.5 c 128,-1,5
 348 568 348 568 348 408 c 0,6,7
 348 247 348 247 427.5 158.5 c 128,-1,8
 507 70 507 70 651 70 c 0,9,10
 795 70 795 70 874.5 158.5 c 128,-1,11
 954 247 954 247 954 408 c 0,0,1
913 1133 m 0,12,13
 913 1269 913 1269 844 1345 c 128,-1,14
 775 1421 775 1421 651 1421 c 0,15,16
 528 1421 528 1421 458.5 1345 c 128,-1,17
 389 1269 389 1269 389 1133 c 0,18,19
 389 996 389 996 458.5 920 c 128,-1,20
 528 844 528 844 651 844 c 0,21,22
 775 844 775 844 844 920 c 128,-1,23
 913 996 913 996 913 1133 c 0,12,13
805 795 m 1,24,25
 975 772 975 772 1070 669.5 c 128,-1,26
 1165 567 1165 567 1165 408 c 0,27,28
 1165 198 1165 198 1032 84.5 c 128,-1,29
 899 -29 899 -29 651 -29 c 0,30,31
 404 -29 404 -29 270.5 84.5 c 128,-1,32
 137 198 137 198 137 408 c 0,33,34
 137 567 137 567 232 669.5 c 128,-1,35
 327 772 327 772 498 795 c 1,36,37
 347 822 347 822 266.5 909.5 c 128,-1,38
 186 997 186 997 186 1133 c 0,39,40
 186 1313 186 1313 310 1416.5 c 128,-1,41
 434 1520 434 1520 651 1520 c 0,42,43
 868 1520 868 1520 992 1416.5 c 128,-1,44
 1116 1313 1116 1313 1116 1133 c 0,45,46
 1116 997 1116 997 1035.5 909.5 c 128,-1,47
 955 822 955 822 805 795 c 1,24,25
EndSplineSet
EndChar
StartChar: nine
Encoding: 57 57 28
Width: 1303
Flags: W
Fore
958 669 m 1,0,1
 891 594 891 594 804 557 c 128,-1,2
 717 520 717 520 608 520 c 0,3,4
 386 520 386 520 257.5 654 c 128,-1,5
 129 788 129 788 129 1020 c 0,6,7
 129 1247 129 1247 268.5 1383.5 c 128,-1,8
 408 1520 408 1520 641 1520 c 0,9,10
 894 1520 894 1520 1029.5 1331.5 c 128,-1,11
 1165 1143 1165 1143 1165 793 c 0,12,13
 1165 401 1165 401 1004 186 c 128,-1,14
 843 -29 843 -29 551 -29 c 0,15,16
 472 -29 472 -29 385 -14 c 128,-1,17
 298 1 298 1 207 31 c 1,18,-1
 207 279 l 1,19,-1
 319 279 l 1,20,21
 332 178 332 178 397 124 c 128,-1,22
 462 70 462 70 571 70 c 0,23,24
 765 70 765 70 860 216.5 c 128,-1,25
 955 363 955 363 958 669 c 1,0,1
633 1421 m 0,26,27
 491 1421 491 1421 415.5 1317.5 c 128,-1,28
 340 1214 340 1214 340 1020 c 0,29,30
 340 826 340 826 415.5 722 c 128,-1,31
 491 618 491 618 633 618 c 0,32,33
 775 618 775 618 850.5 718.5 c 128,-1,34
 926 819 926 819 926 1008 c 0,35,36
 926 1207 926 1207 850 1314 c 128,-1,37
 774 1421 774 1421 633 1421 c 0,26,27
EndSplineSet
EndChar
StartChar: colon
Encoding: 58 58 29
Width: 690
Flags: W
Fore
213 104 m 0,0,1
 213 160 213 160 251.5 199 c 128,-1,2
 290 238 290 238 346 238 c 0,3,4
 402 238 402 238 440.5 199 c 128,-1,5
 479 160 479 160 479 104 c 0,6,7
 479 48 479 48 441 9.5 c 128,-1,8
 403 -29 403 -29 346 -29 c 0,9,10
 289 -29 289 -29 251 9.5 c 128,-1,11
 213 48 213 48 213 104 c 0,0,1
213 756 m 0,12,13
 213 812 213 812 251.5 850.5 c 128,-1,14
 290 889 290 889 346 889 c 0,15,16
 403 889 403 889 441 851 c 128,-1,17
 479 813 479 813 479 756 c 0,18,19
 479 699 479 699 441 661 c 128,-1,20
 403 623 403 623 346 623 c 0,21,22
 290 623 290 623 251.5 661.5 c 128,-1,23
 213 700 213 700 213 756 c 0,12,13
EndSplineSet
EndChar
StartChar: semicolon
Encoding: 59 59 30
Width: 690
Flags: W
Fore
74 -199 m 1,0,1
 168 -130 168 -130 212 -36.5 c 128,-1,2
 256 57 256 57 256 190 c 2,3,-1
 256 227 l 1,4,-1
 453 227 l 1,5,6
 445 56 445 56 372.5 -66.5 c 128,-1,7
 300 -189 300 -189 154 -279 c 1,8,-1
 74 -199 l 1,0,1
217 756 m 0,9,10
 217 812 217 812 255.5 850.5 c 128,-1,11
 294 889 294 889 350 889 c 0,12,13
 406 889 406 889 444.5 850 c 128,-1,14
 483 811 483 811 483 756 c 0,15,16
 483 700 483 700 444.5 661.5 c 128,-1,17
 406 623 406 623 350 623 c 0,18,19
 294 623 294 623 255.5 661.5 c 128,-1,20
 217 700 217 700 217 756 c 0,9,10
EndSplineSet
EndChar
StartChar: less
Encoding: 60 60 31
Width: 1716
Flags: W
Fore
1499 1020 m 1,0,-1
 461 641 l 1,1,-1
 1499 264 l 1,2,-1
 1499 94 l 1,3,-1
 217 559 l 1,4,-1
 217 725 l 1,5,-1
 1499 1190 l 1,6,-1
 1499 1020 l 1,0,-1
EndSplineSet
EndChar
StartChar: equal
Encoding: 61 61 32
Width: 1716
Flags: W
Fore
217 926 m 1,0,-1
 1499 926 l 1,1,-1
 1499 766 l 1,2,-1
 217 766 l 1,3,-1
 217 926 l 1,0,-1
217 518 m 1,4,-1
 1499 518 l 1,5,-1
 1499 358 l 1,6,-1
 217 358 l 1,7,-1
 217 518 l 1,4,-1
EndSplineSet
EndChar
StartChar: greater
Encoding: 62 62 33
Width: 1716
Flags: W
Fore
217 1020 m 1,0,-1
 217 1190 l 1,1,-1
 1499 725 l 1,2,-1
 1499 559 l 1,3,-1
 217 94 l 1,4,-1
 217 264 l 1,5,-1
 1255 641 l 1,6,-1
 217 1020 l 1,0,-1
EndSplineSet
EndChar
StartChar: question
Encoding: 63 63 34
Width: 1098
Flags: W
Fore
360 104 m 0,0,1
 360 160 360 160 398.5 199 c 128,-1,2
 437 238 437 238 494 238 c 0,3,4
 549 238 549 238 588 199 c 128,-1,5
 627 160 627 160 627 104 c 0,6,7
 627 49 627 49 588 10 c 128,-1,8
 549 -29 549 -29 494 -29 c 0,9,10
 437 -29 437 -29 398.5 9.5 c 128,-1,11
 360 48 360 48 360 104 c 0,0,1
139 1427 m 1,12,13
 245 1474 245 1474 340.5 1497 c 128,-1,14
 436 1520 436 1520 520 1520 c 0,15,16
 742 1520 742 1520 870.5 1413 c 128,-1,17
 999 1306 999 1306 999 1124 c 0,18,19
 999 938 999 938 888.5 820 c 128,-1,20
 778 702 778 702 555 651 c 1,21,-1
 555 397 l 1,22,-1
 432 397 l 1,23,-1
 432 725 l 1,24,25
 609 768 609 768 698.5 869 c 128,-1,26
 788 970 788 970 788 1126 c 0,27,28
 788 1263 788 1263 715 1342 c 128,-1,29
 642 1421 642 1421 516 1421 c 0,30,31
 402 1421 402 1421 329.5 1355.5 c 128,-1,32
 257 1290 257 1290 236 1167 c 1,33,-1
 139 1167 l 1,34,-1
 139 1427 l 1,12,13
EndSplineSet
EndChar
StartChar: at
Encoding: 64 64 35
Width: 2048
Flags: W
Fore
1294 248 m 1,0,1
 1235 166 1235 166 1161.5 126 c 128,-1,2
 1088 86 1088 86 995 86 c 0,3,4
 820 86 820 86 711 211 c 128,-1,5
 602 336 602 336 602 537 c 0,6,7
 602 738 602 738 711 862.5 c 128,-1,8
 820 987 820 987 995 987 c 0,9,10
 1088 987 1088 987 1161.5 947 c 128,-1,11
 1235 907 1235 907 1294 825 c 1,12,-1
 1294 967 l 1,13,-1
 1450 967 l 1,14,-1
 1450 195 l 1,15,16
 1620 232 1620 232 1714 357 c 128,-1,17
 1808 482 1808 482 1808 670 c 0,18,19
 1808 781 1808 781 1774 880 c 128,-1,20
 1740 979 1740 979 1673 1063 c 0,21,22
 1567 1196 1567 1196 1414.5 1266.5 c 128,-1,23
 1262 1337 1262 1337 1083 1337 c 0,24,25
 993 1337 993 1337 905 1318 c 128,-1,26
 817 1299 817 1299 731 1260 c 0,27,28
 529 1167 529 1167 417 978.5 c 128,-1,29
 305 790 305 790 305 543 c 0,30,31
 305 376 305 376 355 235.5 c 128,-1,32
 405 95 405 95 500 -8 c 0,33,34
 609 -127 609 -127 758.5 -189.5 c 128,-1,35
 908 -252 908 -252 1081 -252 c 0,36,37
 1210 -252 1210 -252 1322 -214 c 128,-1,38
 1434 -176 1434 -176 1530 -100 c 1,39,-1
 1583 -170 l 1,40,41
 1475 -263 1475 -263 1338 -309.5 c 128,-1,42
 1201 -356 1201 -356 1038 -356 c 0,43,44
 855 -356 855 -356 688.5 -289.5 c 128,-1,45
 522 -223 522 -223 397 -100 c 0,46,47
 268 27 268 27 201.5 190.5 c 128,-1,48
 135 354 135 354 135 543 c 0,49,50
 135 727 135 727 202 890 c 128,-1,51
 269 1053 269 1053 397 1180 c 0,52,53
 524 1306 524 1306 696.5 1374 c 128,-1,54
 869 1442 869 1442 1063 1442 c 0,55,56
 1277 1442 1277 1442 1453.5 1359 c 128,-1,57
 1630 1276 1630 1276 1749 1120 c 0,58,59
 1825 1022 1825 1022 1864 907 c 128,-1,60
 1903 792 1903 792 1903 668 c 0,61,62
 1903 400 1903 400 1740 244.5 c 128,-1,63
 1577 89 1577 89 1295 86 c 1,64,-1
 1294 248 l 1,0,1
1294 485 m 2,65,-1
 1294 590 l 2,66,67
 1294 715 1294 715 1222.5 792.5 c 128,-1,68
 1151 870 1151 870 1036 870 c 0,69,70
 915 870 915 870 847.5 782.5 c 128,-1,71
 780 695 780 695 780 537 c 0,72,73
 780 378 780 378 848 290.5 c 128,-1,74
 916 203 916 203 1038 203 c 0,75,76
 1152 203 1152 203 1223 281.5 c 128,-1,77
 1294 360 1294 360 1294 485 c 2,65,-1
EndSplineSet
EndChar
StartChar: A
Encoding: 65 65 36
Width: 1479
Flags: W
Fore
410 541 m 1,0,-1
 958 541 l 1,1,-1
 684 1251 l 1,2,-1
 410 541 l 1,0,-1
-12 0 m 1,3,-1
 -12 106 l 1,4,-1
 119 106 l 1,5,-1
 651 1493 l 1,6,-1
 819 1493 l 1,7,-1
 1352 106 l 1,8,-1
 1499 106 l 1,9,-1
 1499 0 l 1,10,-1
 956 0 l 1,11,-1
 956 106 l 1,12,-1
 1122 106 l 1,13,-1
 997 434 l 1,14,-1
 369 434 l 1,15,-1
 244 106 l 1,16,-1
 408 106 l 1,17,-1
 408 0 l 1,18,-1
 -12 0 l 1,3,-1
EndSplineSet
KernsSLIF: 7923 -83 0 0 375 -83 0 0 7813 -92 0 0 7811 -92 0 0 7809 -92 0 0 373 -92 0 0 539 -36 0 0 355 -36 0 0 7922 -83 0 0 374 -83 0 0 562 -83 0 0 7812 -83 0 0 7810 -83 0 0 7808 -83 0 0 372 -83 0 0 538 -112 0 0 354 -112 0 0 357 -36 0 0 356 -112 0 0 253 -83 0 0 221 -83 0 0 64258 -36 0 0 64257 -36 0 0 376 -83 0 0 255 -83 0 0 8217 -301 0 0 8221 -301 0 0 121 -83 0 0 119 -92 0 0 118 -83 0 0 116 -36 0 0 102 -36 0 0 89 -83 0 0 87 -83 0 0 86 -102 0 0 84 -112 0 0
EndChar
StartChar: B
Encoding: 66 66 37
Width: 1505
Flags: W
Fore
506 106 m 1,0,-1
 805 106 l 2,1,2
 985 106 985 106 1068 184 c 128,-1,3
 1151 262 1151 262 1151 432 c 0,4,5
 1151 601 1151 601 1068.5 678.5 c 128,-1,6
 986 756 986 756 805 756 c 2,7,-1
 506 756 l 1,8,-1
 506 106 l 1,0,-1
506 862 m 1,9,-1
 760 862 l 2,10,11
 924 862 924 862 999.5 925 c 128,-1,12
 1075 988 1075 988 1075 1124 c 0,13,14
 1075 1261 1075 1261 999.5 1323.5 c 128,-1,15
 924 1386 924 1386 760 1386 c 2,16,-1
 506 1386 l 1,17,-1
 506 862 l 1,9,-1
113 0 m 1,18,-1
 113 106 l 1,19,-1
 303 106 l 1,20,-1
 303 1386 l 1,21,-1
 113 1386 l 1,22,-1
 113 1493 l 1,23,-1
 850 1493 l 2,24,25
 1076 1493 1076 1493 1190.5 1400.5 c 128,-1,26
 1305 1308 1305 1308 1305 1124 c 0,27,28
 1305 991 1305 991 1225.5 912 c 128,-1,29
 1146 833 1146 833 993 815 c 1,30,31
 1183 791 1183 791 1281.5 693.5 c 128,-1,32
 1380 596 1380 596 1380 432 c 0,33,34
 1380 210 1380 210 1240 105 c 128,-1,35
 1100 0 1100 0 803 0 c 2,36,-1
 113 0 l 1,18,-1
EndSplineSet
KernsSLIF: 268 38 0 0 262 38 0 0 286 38 0 0 221 -36 0 0 210 38 0 0 212 38 0 0 211 38 0 0 376 -36 0 0 338 38 0 0 213 38 0 0 216 38 0 0 214 38 0 0 199 38 0 0 89 -36 0 0 79 38 0 0 71 38 0 0 67 38 0 0 45 38 0 0
EndChar
StartChar: C
Encoding: 67 67 38
Width: 1567
Flags: W
Fore
1444 395 m 1,0,1
 1378 186 1378 186 1222.5 78.5 c 128,-1,2
 1067 -29 1067 -29 829 -29 c 0,3,4
 683 -29 683 -29 558 21 c 128,-1,5
 433 71 433 71 336 168 c 0,6,7
 224 280 224 280 169.5 422.5 c 128,-1,8
 115 565 115 565 115 745 c 0,9,10
 115 1093 115 1093 316 1306.5 c 128,-1,11
 517 1520 517 1520 846 1520 c 0,12,13
 968 1520 968 1520 1106 1488 c 128,-1,14
 1244 1456 1244 1456 1403 1391 c 1,15,-1
 1403 1047 l 1,16,-1
 1290 1047 l 1,17,18
 1253 1235 1253 1235 1141.5 1324 c 128,-1,19
 1030 1413 1030 1413 829 1413 c 0,20,21
 590 1413 590 1413 467 1243.5 c 128,-1,22
 344 1074 344 1074 344 745 c 0,23,24
 344 417 344 417 467 247.5 c 128,-1,25
 590 78 590 78 829 78 c 0,26,27
 996 78 996 78 1104 157.5 c 128,-1,28
 1212 237 1212 237 1260 395 c 1,29,-1
 1444 395 l 1,0,1
EndSplineSet
KernsSLIF: 46 -73 0 0 44 -73 0 0
EndChar
StartChar: D
Encoding: 68 68 39
Width: 1642
Flags: W
Fore
506 106 m 1,0,-1
 692 106 l 2,1,2
 983 106 983 106 1138.5 272 c 128,-1,3
 1294 438 1294 438 1294 748 c 0,4,5
 1294 1058 1294 1058 1139 1222 c 128,-1,6
 984 1386 984 1386 692 1386 c 2,7,-1
 506 1386 l 1,8,-1
 506 106 l 1,0,-1
113 0 m 1,9,-1
 113 106 l 1,10,-1
 303 106 l 1,11,-1
 303 1386 l 1,12,-1
 113 1386 l 1,13,-1
 113 1493 l 1,14,-1
 707 1493 l 2,15,16
 1093 1493 1093 1493 1308.5 1296 c 128,-1,17
 1524 1099 1524 1099 1524 748 c 0,18,19
 1524 396 1524 396 1308 198 c 128,-1,20
 1092 0 1092 0 707 0 c 2,21,-1
 113 0 l 1,9,-1
EndSplineSet
KernsSLIF: 86 -36 0 0 46 -73 0 0 45 38 0 0 44 -73 0 0
EndChar
StartChar: E
Encoding: 69 69 40
Width: 1495
Flags: W
Fore
113 0 m 1,0,-1
 113 106 l 1,1,-1
 303 106 l 1,2,-1
 303 1386 l 1,3,-1
 113 1386 l 1,4,-1
 113 1493 l 1,5,-1
 1315 1493 l 1,6,-1
 1315 1161 l 1,7,-1
 1192 1161 l 1,8,-1
 1192 1370 l 1,9,-1
 506 1370 l 1,10,-1
 506 870 l 1,11,-1
 995 870 l 1,12,-1
 995 1057 l 1,13,-1
 1118 1057 l 1,14,-1
 1118 561 l 1,15,-1
 995 561 l 1,16,-1
 995 748 l 1,17,-1
 506 748 l 1,18,-1
 506 123 l 1,19,-1
 1208 123 l 1,20,-1
 1208 332 l 1,21,-1
 1331 332 l 1,22,-1
 1331 0 l 1,23,-1
 113 0 l 1,0,-1
EndSplineSet
KernsSLIF: 45 38 0 0
EndChar
StartChar: F
Encoding: 70 70 41
Width: 1421
Flags: W
Fore
113 0 m 1,0,-1
 113 106 l 1,1,-1
 303 106 l 1,2,-1
 303 1386 l 1,3,-1
 113 1386 l 1,4,-1
 113 1493 l 1,5,-1
 1335 1493 l 1,6,-1
 1335 1161 l 1,7,-1
 1212 1161 l 1,8,-1
 1212 1370 l 1,9,-1
 506 1370 l 1,10,-1
 506 870 l 1,11,-1
 1016 870 l 1,12,-1
 1016 1057 l 1,13,-1
 1139 1057 l 1,14,-1
 1139 561 l 1,15,-1
 1016 561 l 1,16,-1
 1016 748 l 1,17,-1
 506 748 l 1,18,-1
 506 106 l 1,19,-1
 745 106 l 1,20,-1
 745 0 l 1,21,-1
 113 0 l 1,0,-1
EndSplineSet
KernsSLIF: 283 -112 0 0 193 -178 0 0 194 -178 0 0 339 -112 0 0 195 -178 0 0 192 -178 0 0 248 -112 0 0 230 -139 0 0 245 -112 0 0 246 -112 0 0 244 -112 0 0 242 -112 0 0 243 -112 0 0 235 -112 0 0 234 -112 0 0 232 -112 0 0 233 -112 0 0 229 -139 0 0 227 -139 0 0 228 -139 0 0 226 -139 0 0 224 -139 0 0 225 -139 0 0 196 -178 0 0 111 -112 0 0 101 -112 0 0 97 -139 0 0 65 -178 0 0 59 -73 0 0 58 -73 0 0 46 -319 0 0 45 -92 0 0 44 -319 0 0
EndChar
StartChar: G
Encoding: 71 71 42
Width: 1636
Flags: W
Fore
1311 1047 m 1,0,1
 1276 1234 1276 1234 1165 1323.5 c 128,-1,2
 1054 1413 1054 1413 856 1413 c 0,3,4
 598 1413 598 1413 471 1247 c 128,-1,5
 344 1081 344 1081 344 745 c 0,6,7
 344 416 344 416 475 247 c 128,-1,8
 606 78 606 78 860 78 c 0,9,10
 973 78 973 78 1076 106 c 128,-1,11
 1179 134 1179 134 1272 190 c 1,12,-1
 1272 575 l 1,13,-1
 991 575 l 1,14,-1
 991 682 l 1,15,-1
 1475 682 l 1,16,-1
 1475 125 l 1,17,18
 1342 48 1342 48 1188.5 9.5 c 128,-1,19
 1035 -29 1035 -29 860 -29 c 0,20,21
 522 -29 522 -29 318.5 182.5 c 128,-1,22
 115 394 115 394 115 745 c 0,23,24
 115 1099 115 1099 319 1309.5 c 128,-1,25
 523 1520 523 1520 868 1520 c 0,26,27
 996 1520 996 1520 1132.5 1490.5 c 128,-1,28
 1269 1461 1269 1461 1423 1401 c 1,29,-1
 1423 1047 l 1,30,-1
 1311 1047 l 1,0,1
EndSplineSet
KernsSLIF: 221 -36 0 0 376 -36 0 0 89 -36 0 0 46 -73 0 0 45 38 0 0 44 -73 0 0
EndChar
StartChar: H
Encoding: 72 72 43
Width: 1786
Flags: W
Fore
113 0 m 1,0,-1
 113 106 l 1,1,-1
 303 106 l 1,2,-1
 303 1386 l 1,3,-1
 113 1386 l 1,4,-1
 113 1493 l 1,5,-1
 696 1493 l 1,6,-1
 696 1386 l 1,7,-1
 506 1386 l 1,8,-1
 506 870 l 1,9,-1
 1280 870 l 1,10,-1
 1280 1386 l 1,11,-1
 1090 1386 l 1,12,-1
 1090 1493 l 1,13,-1
 1673 1493 l 1,14,-1
 1673 1386 l 1,15,-1
 1483 1386 l 1,16,-1
 1483 106 l 1,17,-1
 1673 106 l 1,18,-1
 1673 0 l 1,19,-1
 1090 0 l 1,20,-1
 1090 106 l 1,21,-1
 1280 106 l 1,22,-1
 1280 748 l 1,23,-1
 506 748 l 1,24,-1
 506 106 l 1,25,-1
 696 106 l 1,26,-1
 696 0 l 1,27,-1
 113 0 l 1,0,-1
EndSplineSet
EndChar
StartChar: I
Encoding: 73 73 44
Width: 809
Flags: W
Fore
506 106 m 1,0,-1
 696 106 l 1,1,-1
 696 0 l 1,2,-1
 113 0 l 1,3,-1
 113 106 l 1,4,-1
 303 106 l 1,5,-1
 303 1386 l 1,6,-1
 113 1386 l 1,7,-1
 113 1493 l 1,8,-1
 696 1493 l 1,9,-1
 696 1386 l 1,10,-1
 506 1386 l 1,11,-1
 506 106 l 1,0,-1
EndSplineSet
EndChar
StartChar: J
Encoding: 74 74 45
Width: 821
Flags: W
Fore
-172 -358 m 1,0,-1
 -172 -123 l 1,1,-1
 -58 -123 l 1,2,3
 -55 -222 -55 -222 -11 -270.5 c 128,-1,4
 33 -319 33 -319 121 -319 c 0,5,6
 240 -319 240 -319 287 -244 c 128,-1,7
 334 -169 334 -169 334 49 c 2,8,-1
 334 1386 l 1,9,-1
 102 1386 l 1,10,-1
 102 1493 l 1,11,-1
 727 1493 l 1,12,-1
 727 1386 l 1,13,-1
 537 1386 l 1,14,-1
 537 41 l 2,15,16
 537 -206 537 -206 438 -316 c 128,-1,17
 339 -426 339 -426 119 -426 c 0,18,19
 48 -426 48 -426 -25.5 -409 c 128,-1,20
 -99 -392 -99 -392 -172 -358 c 1,0,-1
EndSplineSet
KernsSLIF: 59 -83 0 0 58 -83 0 0 46 -159 0 0 44 -120 0 0
EndChar
StartChar: K
Encoding: 75 75 46
Width: 1530
Flags: W
Fore
113 0 m 1,0,-1
 113 106 l 1,1,-1
 303 106 l 1,2,-1
 303 1386 l 1,3,-1
 113 1386 l 1,4,-1
 113 1493 l 1,5,-1
 696 1493 l 1,6,-1
 696 1386 l 1,7,-1
 506 1386 l 1,8,-1
 506 821 l 1,9,-1
 1149 1386 l 1,10,-1
 987 1386 l 1,11,-1
 987 1493 l 1,12,-1
 1483 1493 l 1,13,-1
 1483 1386 l 1,14,-1
 1315 1386 l 1,15,-1
 674 823 l 1,16,-1
 1391 106 l 1,17,-1
 1561 106 l 1,18,-1
 1561 0 l 1,19,-1
 1214 0 l 1,20,-1
 506 709 l 1,21,-1
 506 106 l 1,22,-1
 696 106 l 1,23,-1
 696 0 l 1,24,-1
 113 0 l 1,0,-1
EndSplineSet
KernsSLIF: 367 -45 0 0 366 -73 0 0 283 -55 0 0 268 -55 0 0 262 -55 0 0 253 -131 0 0 221 -55 0 0 217 -73 0 0 219 -73 0 0 218 -73 0 0 210 -55 0 0 212 -55 0 0 211 -55 0 0 193 -83 0 0 194 -83 0 0 376 -55 0 0 255 -131 0 0 339 -55 0 0 338 -55 0 0 213 -55 0 0 195 -83 0 0 192 -83 0 0 248 -36 0 0 216 -55 0 0 252 -45 0 0 251 -45 0 0 249 -45 0 0 250 -45 0 0 245 -55 0 0 246 -55 0 0 244 -55 0 0 242 -55 0 0 243 -55 0 0 235 -55 0 0 234 -55 0 0 232 -55 0 0 233 -55 0 0 220 -73 0 0 214 -55 0 0 199 -55 0 0 196 -83 0 0 121 -131 0 0 117 -45 0 0 111 -55 0 0 101 -55 0 0 89 -55 0 0 87 -73 0 0 85 -73 0 0 79 -55 0 0 67 -55 0 0 65 -83 0 0 45 -149 0 0
EndChar
StartChar: L
Encoding: 76 76 47
Width: 1360
Flags: W
Fore
113 0 m 1,0,-1
 113 106 l 1,1,-1
 303 106 l 1,2,-1
 303 1386 l 1,3,-1
 113 1386 l 1,4,-1
 113 1493 l 1,5,-1
 696 1493 l 1,6,-1
 696 1386 l 1,7,-1
 506 1386 l 1,8,-1
 506 123 l 1,9,-1
 1188 123 l 1,10,-1
 1188 373 l 1,11,-1
 1311 373 l 1,12,-1
 1311 0 l 1,13,-1
 113 0 l 1,0,-1
EndSplineSet
KernsSLIF: 366 -112 0 0 356 -167 0 0 253 -36 0 0 221 -131 0 0 217 -112 0 0 219 -112 0 0 218 -112 0 0 376 -131 0 0 255 -36 0 0 8217 -491 0 0 8221 -491 0 0 220 -112 0 0 121 -36 0 0 89 -131 0 0 87 -178 0 0 86 -243 0 0 85 -112 0 0 84 -167 0 0
EndChar
StartChar: M
Encoding: 77 77 48
Width: 2097
Flags: W
Fore
113 0 m 1,0,-1
 113 106 l 1,1,-1
 303 106 l 1,2,-1
 303 1386 l 1,3,-1
 102 1386 l 1,4,-1
 102 1493 l 1,5,-1
 537 1493 l 1,6,-1
 1061 430 l 1,7,-1
 1585 1493 l 1,8,-1
 1993 1493 l 1,9,-1
 1993 1386 l 1,10,-1
 1794 1386 l 1,11,-1
 1794 106 l 1,12,-1
 1985 106 l 1,13,-1
 1985 0 l 1,14,-1
 1401 0 l 1,15,-1
 1401 106 l 1,16,-1
 1591 106 l 1,17,-1
 1591 1260 l 1,18,-1
 1079 219 l 1,19,-1
 938 219 l 1,20,-1
 426 1260 l 1,21,-1
 426 106 l 1,22,-1
 616 106 l 1,23,-1
 616 0 l 1,24,-1
 113 0 l 1,0,-1
EndSplineSet
EndChar
StartChar: N
Encoding: 78 78 49
Width: 1792
Flags: W
Fore
100 0 m 1,0,-1
 100 106 l 1,1,-1
 301 106 l 1,2,-1
 301 1386 l 1,3,-1
 100 1386 l 1,4,-1
 100 1493 l 1,5,-1
 483 1493 l 1,6,-1
 1378 315 l 1,7,-1
 1378 1386 l 1,8,-1
 1178 1386 l 1,9,-1
 1178 1493 l 1,10,-1
 1702 1493 l 1,11,-1
 1702 1386 l 1,12,-1
 1501 1386 l 1,13,-1
 1501 -29 l 1,14,-1
 1380 -29 l 1,15,-1
 424 1229 l 1,16,-1
 424 106 l 1,17,-1
 625 106 l 1,18,-1
 625 0 l 1,19,-1
 100 0 l 1,0,-1
EndSplineSet
KernsSLIF: 59 -73 0 0 58 -73 0 0 46 -131 0 0 44 -131 0 0
EndChar
StartChar: O
Encoding: 79 79 50
Width: 1679
Flags: W
Fore
840 78 m 0,0,1
 1085 78 1085 78 1210 246.5 c 128,-1,2
 1335 415 1335 415 1335 745 c 0,3,4
 1335 1076 1335 1076 1210 1244.5 c 128,-1,5
 1085 1413 1085 1413 840 1413 c 0,6,7
 594 1413 594 1413 469 1244.5 c 128,-1,8
 344 1076 344 1076 344 745 c 0,9,10
 344 415 344 415 469 246.5 c 128,-1,11
 594 78 594 78 840 78 c 0,0,1
840 -29 m 0,12,13
 688 -29 688 -29 560.5 21 c 128,-1,14
 433 71 433 71 336 168 c 0,15,16
 224 280 224 280 169.5 422 c 128,-1,17
 115 564 115 564 115 745 c 0,18,19
 115 926 115 926 169.5 1068.5 c 128,-1,20
 224 1211 224 1211 336 1323 c 0,21,22
 434 1421 434 1421 560 1470.5 c 128,-1,23
 686 1520 686 1520 840 1520 c 0,24,25
 1165 1520 1165 1520 1365 1307 c 128,-1,26
 1565 1094 1565 1094 1565 745 c 0,27,28
 1565 566 1565 566 1510 422.5 c 128,-1,29
 1455 279 1455 279 1343 168 c 0,30,31
 1245 70 1245 70 1119 20.5 c 128,-1,32
 993 -29 993 -29 840 -29 c 0,12,13
EndSplineSet
KernsSLIF: 88 -36 0 0 86 -36 0 0 46 -120 0 0 45 75 0 0 44 -120 0 0
EndChar
StartChar: P
Encoding: 80 80 51
Width: 1378
Flags: W
Fore
506 760 m 1,0,-1
 770 760 l 2,1,2
 919 760 919 760 997 840.5 c 128,-1,3
 1075 921 1075 921 1075 1073 c 0,4,5
 1075 1226 1075 1226 997 1306 c 128,-1,6
 919 1386 919 1386 770 1386 c 2,7,-1
 506 1386 l 1,8,-1
 506 760 l 1,0,-1
113 0 m 1,9,-1
 113 106 l 1,10,-1
 303 106 l 1,11,-1
 303 1386 l 1,12,-1
 113 1386 l 1,13,-1
 113 1493 l 1,14,-1
 819 1493 l 2,15,16
 1043 1493 1043 1493 1174 1379.5 c 128,-1,17
 1305 1266 1305 1266 1305 1073 c 0,18,19
 1305 881 1305 881 1174 767 c 128,-1,20
 1043 653 1043 653 819 653 c 2,21,-1
 506 653 l 1,22,-1
 506 106 l 1,23,-1
 737 106 l 1,24,-1
 737 0 l 1,25,-1
 113 0 l 1,9,-1
EndSplineSet
KernsSLIF: 366 -36 0 0 283 -92 0 0 351 -55 0 0 353 -55 0 0 217 -36 0 0 219 -36 0 0 218 -36 0 0 193 -188 0 0 194 -188 0 0 339 -83 0 0 195 -188 0 0 192 -188 0 0 248 -83 0 0 230 -92 0 0 245 -83 0 0 246 -83 0 0 244 -83 0 0 242 -83 0 0 243 -83 0 0 235 -92 0 0 234 -92 0 0 232 -92 0 0 233 -92 0 0 229 -92 0 0 227 -92 0 0 228 -92 0 0 226 -92 0 0 224 -92 0 0 225 -92 0 0 220 -36 0 0 196 -188 0 0 115 -55 0 0 111 -83 0 0 101 -92 0 0 97 -92 0 0 85 -36 0 0 65 -188 0 0 59 -73 0 0 58 -73 0 0 46 -415 0 0 45 -112 0 0 44 -415 0 0
EndChar
StartChar: Q
Encoding: 81 81 52
Width: 1679
Flags: W
Fore
864 -29 m 1,0,1
 521 -29 521 -29 318 181.5 c 128,-1,2
 115 392 115 392 115 745 c 0,3,4
 115 926 115 926 169.5 1068.5 c 128,-1,5
 224 1211 224 1211 336 1323 c 0,6,7
 434 1421 434 1421 560 1470.5 c 128,-1,8
 686 1520 686 1520 840 1520 c 0,9,10
 1165 1520 1165 1520 1365 1307 c 128,-1,11
 1565 1094 1565 1094 1565 745 c 0,12,13
 1565 449 1565 449 1415 247.5 c 128,-1,14
 1265 46 1265 46 1001 -12 c 1,15,16
 1055 -79 1055 -79 1132.5 -111 c 128,-1,17
 1210 -143 1210 -143 1319 -143 c 2,18,-1
 1350 -143 l 1,19,-1
 1350 -328 l 1,20,21
 1181 -320 1181 -320 1060.5 -245.5 c 128,-1,22
 940 -171 940 -171 864 -29 c 1,0,1
840 78 m 0,23,24
 1085 78 1085 78 1210 246.5 c 128,-1,25
 1335 415 1335 415 1335 745 c 0,26,27
 1335 1076 1335 1076 1210 1244.5 c 128,-1,28
 1085 1413 1085 1413 840 1413 c 0,29,30
 594 1413 594 1413 469 1244.5 c 128,-1,31
 344 1076 344 1076 344 745 c 0,32,33
 344 415 344 415 469 246.5 c 128,-1,34
 594 78 594 78 840 78 c 0,23,24
EndSplineSet
KernsSLIF: 8217 38 0 0 8221 38 0 0 46 -102 0 0 45 75 0 0 44 -102 0 0
EndChar
StartChar: R
Encoding: 82 82 53
Width: 1542
Flags: W
Fore
981 741 m 1,0,1
 1051 722 1051 722 1101.5 676.5 c 128,-1,2
 1152 631 1152 631 1192 549 c 2,3,-1
 1409 106 l 1,4,-1
 1591 106 l 1,5,-1
 1591 0 l 1,6,-1
 1239 0 l 1,7,-1
 1006 475 l 1,8,9
 939 613 939 613 883 653.5 c 128,-1,10
 827 694 827 694 729 694 c 2,11,-1
 506 694 l 1,12,-1
 506 106 l 1,13,-1
 717 106 l 1,14,-1
 717 0 l 1,15,-1
 113 0 l 1,16,-1
 113 106 l 1,17,-1
 303 106 l 1,18,-1
 303 1386 l 1,19,-1
 113 1386 l 1,20,-1
 113 1493 l 1,21,-1
 870 1493 l 2,22,23
 1088 1493 1088 1493 1206.5 1389 c 128,-1,24
 1325 1285 1325 1285 1325 1094 c 0,25,26
 1325 940 1325 940 1238.5 851.5 c 128,-1,27
 1152 763 1152 763 981 741 c 1,0,1
506 801 m 1,28,-1
 801 801 l 2,29,30
 952 801 952 801 1024 872.5 c 128,-1,31
 1096 944 1096 944 1096 1094 c 0,32,33
 1096 1244 1096 1244 1024 1315 c 128,-1,34
 952 1386 952 1386 801 1386 c 2,35,-1
 506 1386 l 1,36,-1
 506 801 l 1,28,-1
EndSplineSet
KernsSLIF: 356 -36 0 0 253 -36 0 0 221 -63 0 0 376 -63 0 0 255 -36 0 0 8217 -112 0 0 8221 -112 0 0 248 38 0 0 230 47 0 0 229 47 0 0 227 47 0 0 228 47 0 0 226 47 0 0 224 47 0 0 225 47 0 0 121 -36 0 0 97 47 0 0 89 -63 0 0 87 -45 0 0 86 -73 0 0 84 -36 0 0
EndChar
StartChar: S
Encoding: 83 83 54
Width: 1403
Flags: W
Fore
190 72 m 1,0,-1
 190 412 l 1,1,-1
 305 411 l 1,2,3
 310 241 310 241 403.5 159.5 c 128,-1,4
 497 78 497 78 688 78 c 0,5,6
 866 78 866 78 959.5 148.5 c 128,-1,7
 1053 219 1053 219 1053 354 c 0,8,9
 1053 462 1053 462 996.5 520 c 128,-1,10
 940 578 940 578 758 633 c 2,11,-1
 561 692 l 2,12,13
 347 757 347 757 259.5 854 c 128,-1,14
 172 951 172 951 172 1120 c 0,15,16
 172 1310 172 1310 307 1415 c 128,-1,17
 442 1520 442 1520 686 1520 c 0,18,19
 790 1520 790 1520 914 1497.5 c 128,-1,20
 1038 1475 1038 1475 1178 1432 c 1,21,-1
 1178 1114 l 1,22,-1
 1065 1114 l 1,23,24
 1048 1272 1048 1272 959.5 1342.5 c 128,-1,25
 871 1413 871 1413 690 1413 c 0,26,27
 532 1413 532 1413 449.5 1348.5 c 128,-1,28
 367 1284 367 1284 367 1161 c 0,29,30
 367 1054 367 1054 429 993 c 128,-1,31
 491 932 491 932 692 872 c 2,32,-1
 877 817 l 2,33,34
 1080 756 1080 756 1166.5 661.5 c 128,-1,35
 1253 567 1253 567 1253 408 c 0,36,37
 1253 191 1253 191 1114 81 c 128,-1,38
 975 -29 975 -29 700 -29 c 0,39,40
 577 -29 577 -29 449.5 -4 c 128,-1,41
 322 21 322 21 190 72 c 1,0,-1
EndSplineSet
KernsSLIF: 350 -36 0 0 352 -36 0 0 83 -36 0 0 46 -73 0 0 45 75 0 0 44 -73 0 0
EndChar
StartChar: T
Encoding: 84 84 55
Width: 1366
Flags: W
Fore
391 0 m 1,0,-1
 391 106 l 1,1,-1
 582 106 l 1,2,-1
 582 1374 l 1,3,-1
 143 1374 l 1,4,-1
 143 1141 l 1,5,-1
 20 1141 l 1,6,-1
 20 1493 l 1,7,-1
 1346 1493 l 1,8,-1
 1346 1141 l 1,9,-1
 1223 1141 l 1,10,-1
 1223 1374 l 1,11,-1
 784 1374 l 1,12,-1
 784 106 l 1,13,-1
 975 106 l 1,14,-1
 975 0 l 1,15,-1
 391 0 l 1,0,-1
EndSplineSet
KernsSLIF: 356 38 0 0 283 -159 0 0 269 -159 0 0 263 -159 0 0 351 -149 0 0 353 -149 0 0 193 -112 0 0 194 -112 0 0 339 -159 0 0 195 -112 0 0 192 -112 0 0 248 -159 0 0 230 -159 0 0 245 -159 0 0 246 -159 0 0 244 -159 0 0 242 -159 0 0 243 -159 0 0 235 -159 0 0 234 -159 0 0 232 -159 0 0 233 -159 0 0 231 -159 0 0 229 -159 0 0 227 -159 0 0 228 -159 0 0 226 -159 0 0 224 -159 0 0 225 -159 0 0 196 -112 0 0 119 -73 0 0 115 -149 0 0 111 -159 0 0 101 -159 0 0 99 -159 0 0 97 -159 0 0 84 38 0 0 65 -112 0 0 59 -73 0 0 58 -73 0 0 46 -301 0 0 45 -264 0 0 44 -301 0 0
EndChar
StartChar: U
Encoding: 85 85 56
Width: 1726
Flags: W
Fore
287 1386 m 1,0,-1
 96 1386 l 1,1,-1
 96 1493 l 1,2,-1
 680 1493 l 1,3,-1
 680 1386 l 1,4,-1
 489 1386 l 1,5,-1
 489 614 l 2,6,7
 489 328 489 328 582.5 215 c 128,-1,8
 676 102 676 102 905 102 c 0,9,10
 1134 102 1134 102 1227.5 215 c 128,-1,11
 1321 328 1321 328 1321 614 c 2,12,-1
 1321 1386 l 1,13,-1
 1130 1386 l 1,14,-1
 1130 1493 l 1,15,-1
 1634 1493 l 1,16,-1
 1634 1386 l 1,17,-1
 1444 1386 l 1,18,-1
 1444 594 l 2,19,20
 1444 253 1444 253 1313 112 c 128,-1,21
 1182 -29 1182 -29 868 -29 c 0,22,23
 554 -29 554 -29 420.5 113 c 128,-1,24
 287 255 287 255 287 594 c 2,25,-1
 287 1386 l 1,0,-1
EndSplineSet
KernsSLIF: 193 -63 0 0 194 -63 0 0 195 -63 0 0 192 -63 0 0 196 -63 0 0 74 -55 0 0 65 -63 0 0 59 -73 0 0 58 -73 0 0 46 -188 0 0 45 -36 0 0 44 -188 0 0
EndChar
StartChar: V
Encoding: 86 86 57
Width: 1479
Flags: W
Fore
358 1386 m 1,0,-1
 799 240 l 1,1,-1
 1239 1386 l 1,2,-1
 1071 1386 l 1,3,-1
 1071 1493 l 1,4,-1
 1509 1493 l 1,5,-1
 1509 1386 l 1,6,-1
 1364 1386 l 1,7,-1
 831 0 l 1,8,-1
 659 0 l 1,9,-1
 129 1386 l 1,10,-1
 -20 1386 l 1,11,-1
 -20 1493 l 1,12,-1
 524 1493 l 1,13,-1
 524 1386 l 1,14,-1
 358 1386 l 1,0,-1
EndSplineSet
KernsSLIF: 367 -131 0 0 283 -188 0 0 253 -83 0 0 210 -36 0 0 212 -36 0 0 211 -36 0 0 193 -139 0 0 194 -139 0 0 255 -83 0 0 8217 75 0 0 8221 75 0 0 339 -188 0 0 338 -36 0 0 213 -36 0 0 195 -139 0 0 192 -139 0 0 248 -188 0 0 230 -188 0 0 216 -36 0 0 252 -131 0 0 251 -131 0 0 249 -131 0 0 250 -131 0 0 245 -188 0 0 246 -188 0 0 244 -188 0 0 242 -188 0 0 243 -188 0 0 235 -188 0 0 234 -188 0 0 232 -188 0 0 233 -188 0 0 229 -188 0 0 227 -188 0 0 228 -188 0 0 226 -188 0 0 224 -188 0 0 225 -188 0 0 214 -36 0 0 196 -139 0 0 121 -83 0 0 117 -131 0 0 111 -188 0 0 105 -36 0 0 101 -188 0 0 97 -188 0 0 79 -36 0 0 65 -139 0 0 59 -206 0 0 58 -206 0 0 46 -358 0 0 45 -188 0 0 44 -358 0 0
EndChar
StartChar: W
Encoding: 87 87 58
Width: 2105
Flags: W
Fore
1561 0 m 1,0,-1
 1397 0 l 1,1,-1
 1055 1214 l 1,2,-1
 713 0 l 1,3,-1
 549 0 l 1,4,-1
 158 1386 l 1,5,-1
 10 1386 l 1,6,-1
 10 1493 l 1,7,-1
 555 1493 l 1,8,-1
 555 1386 l 1,9,-1
 369 1386 l 1,10,-1
 680 283 l 1,11,-1
 1020 1493 l 1,12,-1
 1182 1493 l 1,13,-1
 1528 270 l 1,14,-1
 1841 1386 l 1,15,-1
 1669 1386 l 1,16,-1
 1669 1493 l 1,17,-1
 2099 1493 l 1,18,-1
 2099 1386 l 1,19,-1
 1952 1386 l 1,20,-1
 1561 0 l 1,0,-1
EndSplineSet
KernsSLIF: 252 -83 0 0 229 -178 0 0 230 -139 0 0 59 -178 0 0 242 -139 0 0 45 -149 0 0 46 -358 0 0 367 -83 0 0 245 -139 0 0 235 -167 0 0 249 -83 0 0 44 -358 0 0 224 -178 0 0 195 -102 0 0 234 -167 0 0 341 -92 0 0 8221 38 0 0 232 -167 0 0 196 -102 0 0 193 -102 0 0 8217 38 0 0 251 -83 0 0 253 -45 0 0 227 -178 0 0 194 -102 0 0 248 -139 0 0 244 -139 0 0 65 -102 0 0 97 -178 0 0 228 -178 0 0 246 -139 0 0 250 -83 0 0 225 -178 0 0 345 -92 0 0 226 -178 0 0 233 -167 0 0 283 -167 0 0 101 -167 0 0 105 -36 0 0 339 -139 0 0 255 -45 0 0 111 -139 0 0 114 -92 0 0 117 -83 0 0 192 -102 0 0 121 -45 0 0 58 -178 0 0 243 -139 0 0
EndChar
StartChar: X
Encoding: 88 88 59
Width: 1458
Flags: W
Fore
678 639 m 1,0,-1
 313 106 l 1,1,-1
 506 106 l 1,2,-1
 506 0 l 1,3,-1
 12 0 l 1,4,-1
 12 106 l 1,5,-1
 184 106 l 1,6,-1
 614 733 l 1,7,-1
 178 1386 l 1,8,-1
 18 1386 l 1,9,-1
 18 1493 l 1,10,-1
 610 1493 l 1,11,-1
 610 1386 l 1,12,-1
 434 1386 l 1,13,-1
 754 905 l 1,14,-1
 1083 1386 l 1,15,-1
 891 1386 l 1,16,-1
 891 1493 l 1,17,-1
 1380 1493 l 1,18,-1
 1380 1386 l 1,19,-1
 1212 1386 l 1,20,-1
 817 811 l 1,21,-1
 1288 106 l 1,22,-1
 1448 106 l 1,23,-1
 1448 0 l 1,24,-1
 856 0 l 1,25,-1
 856 106 l 1,26,-1
 1034 106 l 1,27,-1
 678 639 l 1,0,-1
EndSplineSet
KernsSLIF: 268 -36 0 0 262 -36 0 0 210 -36 0 0 212 -36 0 0 211 -36 0 0 193 -73 0 0 194 -73 0 0 338 -36 0 0 213 -36 0 0 195 -73 0 0 192 -73 0 0 216 -36 0 0 214 -36 0 0 199 -36 0 0 196 -73 0 0 79 -36 0 0 67 -36 0 0 65 -73 0 0 45 -73 0 0
EndChar
StartChar: Y
Encoding: 89 89 60
Width: 1352
Flags: W
Fore
387 0 m 1,0,-1
 387 106 l 1,1,-1
 578 106 l 1,2,-1
 578 643 l 1,3,-1
 117 1386 l 1,4,-1
 -23 1386 l 1,5,-1
 -23 1493 l 1,6,-1
 532 1493 l 1,7,-1
 532 1386 l 1,8,-1
 358 1386 l 1,9,-1
 731 782 l 1,10,-1
 1104 1386 l 1,11,-1
 936 1386 l 1,12,-1
 936 1493 l 1,13,-1
 1370 1493 l 1,14,-1
 1370 1386 l 1,15,-1
 1229 1386 l 1,16,-1
 780 662 l 1,17,-1
 780 106 l 1,18,-1
 971 106 l 1,19,-1
 971 0 l 1,20,-1
 387 0 l 1,0,-1
EndSplineSet
KernsSLIF: 367 -178 0 0 283 -178 0 0 268 -36 0 0 262 -36 0 0 193 -159 0 0 194 -159 0 0 339 -215 0 0 195 -159 0 0 192 -159 0 0 248 -178 0 0 230 -196 0 0 252 -178 0 0 251 -178 0 0 249 -178 0 0 250 -178 0 0 245 -178 0 0 246 -178 0 0 244 -178 0 0 242 -178 0 0 243 -178 0 0 235 -178 0 0 234 -178 0 0 232 -178 0 0 233 -178 0 0 229 -159 0 0 227 -159 0 0 228 -159 0 0 226 -159 0 0 224 -159 0 0 225 -159 0 0 199 -36 0 0 196 -159 0 0 117 -178 0 0 111 -178 0 0 105 -36 0 0 101 -178 0 0 97 -159 0 0 67 -36 0 0 65 -159 0 0 59 -253 0 0 58 -253 0 0 46 -264 0 0 45 -225 0 0 44 -264 0 0
EndChar
StartChar: Z
Encoding: 90 90 61
Width: 1423
Flags: W
Fore
92 0 m 1,0,-1
 92 72 l 1,1,-1
 1022 1370 l 1,2,-1
 250 1370 l 1,3,-1
 250 1147 l 1,4,-1
 127 1147 l 1,5,-1
 127 1493 l 1,6,-1
 1307 1493 l 1,7,-1
 1307 1421 l 1,8,-1
 377 123 l 1,9,-1
 1221 123 l 1,10,-1
 1221 332 l 1,11,-1
 1343 332 l 1,12,-1
 1343 0 l 1,13,-1
 92 0 l 1,0,-1
EndSplineSet
KernsSLIF: 46 -36 0 0 44 -36 0 0
EndChar
StartChar: bracketleft
Encoding: 91 91 62
Width: 799
Flags: W
Fore
176 1556 m 1,0,-1
 641 1556 l 1,1,-1
 641 1450 l 1,2,-1
 367 1450 l 1,3,-1
 367 -164 l 1,4,-1
 641 -164 l 1,5,-1
 641 -270 l 1,6,-1
 176 -270 l 1,7,-1
 176 1556 l 1,0,-1
EndSplineSet
EndChar
StartChar: backslash
Encoding: 92 92 63
Width: 690
Flags: W
Fore
160 1493 m 1,0,-1
 690 -190 l 1,1,-1
 530 -190 l 1,2,-1
 0 1493 l 1,3,-1
 160 1493 l 1,0,-1
EndSplineSet
EndChar
StartChar: bracketright
Encoding: 93 93 64
Width: 799
Flags: W
Fore
623 1556 m 1,0,-1
 623 -270 l 1,1,-1
 158 -270 l 1,2,-1
 158 -164 l 1,3,-1
 432 -164 l 1,4,-1
 432 1450 l 1,5,-1
 158 1450 l 1,6,-1
 158 1556 l 1,7,-1
 623 1556 l 1,0,-1
EndSplineSet
EndChar
StartChar: asciicircum
Encoding: 94 94 65
Width: 1716
Flags: W
Fore
956 1493 m 1,0,-1
 1499 936 l 1,1,-1
 1346 936 l 1,2,-1
 858 1317 l 1,3,-1
 371 936 l 1,4,-1
 217 936 l 1,5,-1
 760 1493 l 1,6,-1
 956 1493 l 1,0,-1
EndSplineSet
EndChar
StartChar: underscore
Encoding: 95 95 66
Width: 1024
Flags: W
Fore
1024 -403 m 1,0,-1
 1024 -483 l 1,1,-1
 0 -483 l 1,2,-1
 0 -403 l 1,3,-1
 1024 -403 l 1,0,-1
EndSplineSet
EndChar
StartChar: grave
Encoding: 96 96 67
Width: 1024
Flags: W
Fore
367 1636 m 1,0,-1
 627 1260 l 1,1,-1
 510 1260 l 1,2,-1
 170 1636 l 1,3,-1
 367 1636 l 1,0,-1
EndSplineSet
EndChar
StartChar: a
Encoding: 97 97 68
Width: 1221
Flags: W
Fore
815 334 m 2,0,-1
 815 559 l 1,1,-1
 578 559 l 2,2,3
 441 559 441 559 374 500 c 128,-1,4
 307 441 307 441 307 319 c 0,5,6
 307 208 307 208 375 143 c 128,-1,7
 443 78 443 78 559 78 c 0,8,9
 674 78 674 78 744.5 149 c 128,-1,10
 815 220 815 220 815 334 c 2,0,-1
999 664 m 2,11,-1
 999 106 l 1,12,-1
 1163 106 l 1,13,-1
 1163 0 l 1,14,-1
 815 0 l 1,15,-1
 815 115 l 1,16,17
 754 41 754 41 674 6 c 128,-1,18
 594 -29 594 -29 487 -29 c 0,19,20
 310 -29 310 -29 206 65 c 128,-1,21
 102 159 102 159 102 319 c 0,22,23
 102 484 102 484 221 575 c 128,-1,24
 340 666 340 666 557 666 c 2,25,-1
 815 666 l 1,26,-1
 815 739 l 2,27,28
 815 860 815 860 741.5 926.5 c 128,-1,29
 668 993 668 993 535 993 c 0,30,31
 425 993 425 993 360 943 c 128,-1,32
 295 893 295 893 279 795 c 1,33,-1
 184 795 l 1,34,-1
 184 1010 l 1,35,36
 280 1051 280 1051 370.5 1071.5 c 128,-1,37
 461 1092 461 1092 547 1092 c 0,38,39
 768 1092 768 1092 883.5 982.5 c 128,-1,40
 999 873 999 873 999 664 c 2,11,-1
EndSplineSet
EndChar
StartChar: b
Encoding: 98 98 69
Width: 1311
Flags: W
Fore
236 106 m 1,0,-1
 236 1450 l 1,1,-1
 59 1450 l 1,2,-1
 59 1556 l 1,3,-1
 420 1556 l 1,4,-1
 420 897 l 1,5,6
 474 997 474 997 557.5 1044.5 c 128,-1,7
 641 1092 641 1092 764 1092 c 0,8,9
 960 1092 960 1092 1084 937 c 128,-1,10
 1208 782 1208 782 1208 532 c 0,11,12
 1208 282 1208 282 1084 126.5 c 128,-1,13
 960 -29 960 -29 764 -29 c 0,14,15
 641 -29 641 -29 557.5 18.5 c 128,-1,16
 474 66 474 66 420 166 c 1,17,-1
 420 0 l 1,18,-1
 59 0 l 1,19,-1
 59 106 l 1,20,-1
 236 106 l 1,0,-1
420 479 m 2,21,22
 420 287 420 287 493.5 186.5 c 128,-1,23
 567 86 567 86 707 86 c 0,24,25
 848 86 848 86 920.5 199 c 128,-1,26
 993 312 993 312 993 532 c 0,27,28
 993 753 993 753 920.5 865 c 128,-1,29
 848 977 848 977 707 977 c 0,30,31
 567 977 567 977 493.5 876 c 128,-1,32
 420 775 420 775 420 584 c 2,33,-1
 420 479 l 2,21,22
EndSplineSet
EndChar
StartChar: c
Encoding: 99 99 70
Width: 1147
Flags: W
Fore
1053 319 m 1,0,1
 1014 149 1014 149 903 60 c 128,-1,2
 792 -29 792 -29 616 -29 c 0,3,4
 384 -29 384 -29 243 124.5 c 128,-1,5
 102 278 102 278 102 532 c 0,6,7
 102 787 102 787 243 939.5 c 128,-1,8
 384 1092 384 1092 616 1092 c 0,9,10
 717 1092 717 1092 817 1068.5 c 128,-1,11
 917 1045 917 1045 1018 997 c 1,12,-1
 1018 725 l 1,13,-1
 911 725 l 1,14,15
 890 865 890 865 819.5 929 c 128,-1,16
 749 993 749 993 618 993 c 0,17,18
 469 993 469 993 393 877.5 c 128,-1,19
 317 762 317 762 317 532 c 0,20,21
 317 302 317 302 392.5 186 c 128,-1,22
 468 70 468 70 618 70 c 0,23,24
 737 70 737 70 808 132 c 128,-1,25
 879 194 879 194 905 319 c 1,26,-1
 1053 319 l 1,0,1
EndSplineSet
EndChar
StartChar: d
Encoding: 100 100 71
Width: 1311
Flags: W
Fore
1075 106 m 1,0,-1
 1251 106 l 1,1,-1
 1251 0 l 1,2,-1
 891 0 l 1,3,-1
 891 166 l 1,4,5
 837 66 837 66 753.5 18.5 c 128,-1,6
 670 -29 670 -29 547 -29 c 0,7,8
 351 -29 351 -29 226.5 126.5 c 128,-1,9
 102 282 102 282 102 532 c 0,10,11
 102 782 102 782 226 937 c 128,-1,12
 350 1092 350 1092 547 1092 c 0,13,14
 670 1092 670 1092 753.5 1044.5 c 128,-1,15
 837 997 837 997 891 897 c 1,16,-1
 891 1450 l 1,17,-1
 717 1450 l 1,18,-1
 717 1556 l 1,19,-1
 1075 1556 l 1,20,-1
 1075 106 l 1,0,-1
891 479 m 2,21,-1
 891 584 l 2,22,23
 891 775 891 775 817.5 876 c 128,-1,24
 744 977 744 977 604 977 c 0,25,26
 462 977 462 977 389.5 865 c 128,-1,27
 317 753 317 753 317 532 c 0,28,29
 317 312 317 312 389.5 199 c 128,-1,30
 462 86 462 86 604 86 c 0,31,32
 744 86 744 86 817.5 186.5 c 128,-1,33
 891 287 891 287 891 479 c 2,21,-1
EndSplineSet
EndChar
StartChar: e
Encoding: 101 101 72
Width: 1212
Flags: W
Fore
1110 512 m 1,0,-1
 317 512 l 1,1,-1
 317 504 l 2,2,3
 317 289 317 289 398 179.5 c 128,-1,4
 479 70 479 70 637 70 c 0,5,6
 758 70 758 70 835.5 133.5 c 128,-1,7
 913 197 913 197 944 322 c 1,8,-1
 1092 322 l 1,9,10
 1048 147 1048 147 929.5 59 c 128,-1,11
 811 -29 811 -29 618 -29 c 0,12,13
 385 -29 385 -29 243.5 124.5 c 128,-1,14
 102 278 102 278 102 532 c 0,15,16
 102 784 102 784 241 938 c 128,-1,17
 380 1092 380 1092 606 1092 c 0,18,19
 847 1092 847 1092 976 943.5 c 128,-1,20
 1105 795 1105 795 1110 512 c 1,0,-1
893 618 m 1,21,22
 887 804 887 804 814.5 898.5 c 128,-1,23
 742 993 742 993 606 993 c 0,24,25
 479 993 479 993 406 898 c 128,-1,26
 333 803 333 803 317 618 c 1,27,-1
 893 618 l 1,21,22
EndSplineSet
EndChar
StartChar: f
Encoding: 102 102 73
Width: 758
Flags: W
Fore
881 1305 m 1,0,-1
 784 1305 l 1,1,2
 783 1380 783 1380 741.5 1419 c 128,-1,3
 700 1458 700 1458 621 1458 c 0,4,5
 518 1458 518 1458 476 1401.5 c 128,-1,6
 434 1345 434 1345 434 1200 c 2,7,-1
 434 1063 l 1,8,-1
 731 1063 l 1,9,-1
 731 956 l 1,10,-1
 434 956 l 1,11,-1
 434 106 l 1,12,-1
 670 106 l 1,13,-1
 670 0 l 1,14,-1
 74 0 l 1,15,-1
 74 106 l 1,16,-1
 250 106 l 1,17,-1
 250 956 l 1,18,-1
 74 956 l 1,19,-1
 74 1063 l 1,20,-1
 250 1063 l 1,21,-1
 250 1196 l 2,22,23
 250 1374 250 1374 342.5 1465 c 128,-1,24
 435 1556 435 1556 614 1556 c 0,25,26
 681 1556 681 1556 748 1544 c 128,-1,27
 815 1532 815 1532 881 1507 c 1,28,-1
 881 1305 l 1,0,-1
EndSplineSet
KernsSLIF: 8217 151 0 0 8221 151 0 0 8220 38 0 0 46 -73 0 0 45 -73 0 0 44 -73 0 0
EndChar
StartChar: g
Encoding: 103 103 74
Width: 1311
Flags: W
Fore
1075 956 m 1,0,-1
 1075 23 l 2,1,2
 1075 -206 1075 -206 949 -330.5 c 128,-1,3
 823 -455 823 -455 590 -455 c 0,4,5
 485 -455 485 -455 389 -436 c 128,-1,6
 293 -417 293 -417 205 -379 c 1,7,-1
 205 -156 l 1,8,-1
 301 -156 l 1,9,10
 319 -260 319 -260 386 -308 c 128,-1,11
 453 -356 453 -356 578 -356 c 0,12,13
 740 -356 740 -356 815.5 -264.5 c 128,-1,14
 891 -173 891 -173 891 23 c 2,15,-1
 891 166 l 1,16,17
 837 66 837 66 753.5 18.5 c 128,-1,18
 670 -29 670 -29 547 -29 c 0,19,20
 351 -29 351 -29 226.5 126.5 c 128,-1,21
 102 282 102 282 102 532 c 0,22,23
 102 782 102 782 226 937 c 128,-1,24
 350 1092 350 1092 547 1092 c 0,25,26
 670 1092 670 1092 753.5 1044.5 c 128,-1,27
 837 997 837 997 891 897 c 1,28,-1
 891 1063 l 1,29,-1
 1251 1063 l 1,30,-1
 1251 956 l 1,31,-1
 1075 956 l 1,0,-1
891 584 m 2,32,33
 891 775 891 775 817.5 876 c 128,-1,34
 744 977 744 977 604 977 c 0,35,36
 462 977 462 977 389.5 865 c 128,-1,37
 317 753 317 753 317 532 c 0,38,39
 317 312 317 312 389.5 199 c 128,-1,40
 462 86 462 86 604 86 c 0,41,42
 744 86 744 86 817.5 186.5 c 128,-1,43
 891 287 891 287 891 479 c 2,44,-1
 891 584 l 2,32,33
EndSplineSet
EndChar
StartChar: h
Encoding: 104 104 75
Width: 1319
Flags: W
Fore
84 0 m 1,0,-1
 84 106 l 1,1,-1
 250 106 l 1,2,-1
 250 1450 l 1,3,-1
 74 1450 l 1,4,-1
 74 1556 l 1,5,-1
 434 1556 l 1,6,-1
 434 874 l 1,7,8
 485 982 485 982 566.5 1037 c 128,-1,9
 648 1092 648 1092 756 1092 c 0,10,11
 932 1092 932 1092 1015 991 c 128,-1,12
 1098 890 1098 890 1098 676 c 2,13,-1
 1098 106 l 1,14,-1
 1262 106 l 1,15,-1
 1262 0 l 1,16,-1
 754 0 l 1,17,-1
 754 106 l 1,18,-1
 913 106 l 1,19,-1
 913 618 l 2,20,21
 913 813 913 813 865.5 884.5 c 128,-1,22
 818 956 818 956 696 956 c 0,23,24
 568 956 568 956 501 863 c 128,-1,25
 434 770 434 770 434 592 c 2,26,-1
 434 106 l 1,27,-1
 594 106 l 1,28,-1
 594 0 l 1,29,-1
 84 0 l 1,0,-1
EndSplineSet
EndChar
StartChar: i
Encoding: 105 105 76
Width: 655
Flags: W
Fore
199 1393 m 0,0,1
 199 1439 199 1439 232.5 1473 c 128,-1,2
 266 1507 266 1507 313 1507 c 0,3,4
 359 1507 359 1507 392.5 1473 c 128,-1,5
 426 1439 426 1439 426 1393 c 0,6,7
 426 1346 426 1346 393 1313 c 128,-1,8
 360 1280 360 1280 313 1280 c 0,9,10
 266 1280 266 1280 232.5 1313 c 128,-1,11
 199 1346 199 1346 199 1393 c 0,0,1
434 106 m 1,12,-1
 608 106 l 1,13,-1
 608 0 l 1,14,-1
 74 0 l 1,15,-1
 74 106 l 1,16,-1
 250 106 l 1,17,-1
 250 956 l 1,18,-1
 74 956 l 1,19,-1
 74 1063 l 1,20,-1
 434 1063 l 1,21,-1
 434 106 l 1,12,-1
EndSplineSet
EndChar
StartChar: j
Encoding: 106 106 77
Width: 635
Flags: W
Fore
205 1393 m 0,0,1
 205 1439 205 1439 238.5 1473 c 128,-1,2
 272 1507 272 1507 319 1507 c 0,3,4
 365 1507 365 1507 398.5 1473 c 128,-1,5
 432 1439 432 1439 432 1393 c 0,6,7
 432 1346 432 1346 399.5 1313 c 128,-1,8
 367 1280 367 1280 319 1280 c 0,9,10
 272 1280 272 1280 238.5 1313 c 128,-1,11
 205 1346 205 1346 205 1393 c 0,0,1
250 956 m 1,12,-1
 76 956 l 1,13,-1
 76 1063 l 1,14,-1
 434 1063 l 1,15,-1
 434 -104 l 2,16,17
 434 -268 434 -268 336.5 -361.5 c 128,-1,18
 239 -455 239 -455 68 -455 c 0,19,20
 -4 -455 -4 -455 -69.5 -438.5 c 128,-1,21
 -135 -422 -135 -422 -197 -389 c 1,22,-1
 -197 -170 l 1,23,-1
 -102 -170 l 1,24,25
 -95 -266 -95 -266 -52.5 -311 c 128,-1,26
 -10 -356 -10 -356 72 -356 c 0,27,28
 163 -356 163 -356 206.5 -294.5 c 128,-1,29
 250 -233 250 -233 250 -104 c 2,30,-1
 250 956 l 1,12,-1
EndSplineSet
EndChar
StartChar: k
Encoding: 107 107 78
Width: 1241
Flags: W
Fore
586 0 m 1,0,-1
 70 0 l 1,1,-1
 70 106 l 1,2,-1
 236 106 l 1,3,-1
 236 1450 l 1,4,-1
 59 1450 l 1,5,-1
 59 1556 l 1,6,-1
 420 1556 l 1,7,-1
 420 543 l 1,8,-1
 868 956 l 1,9,-1
 715 956 l 1,10,-1
 715 1063 l 1,11,-1
 1196 1063 l 1,12,-1
 1196 956 l 1,13,-1
 1014 956 l 1,14,-1
 698 664 l 1,15,-1
 1102 106 l 1,16,-1
 1255 106 l 1,17,-1
 1255 0 l 1,18,-1
 731 0 l 1,19,-1
 731 106 l 1,20,-1
 883 106 l 1,21,-1
 565 543 l 1,22,-1
 420 408 l 1,23,-1
 420 106 l 1,24,-1
 586 106 l 1,25,-1
 586 0 l 1,0,-1
EndSplineSet
KernsSLIF: 45 -36 0 0
EndChar
StartChar: l
Encoding: 108 108 79
Width: 655
Flags: W
Fore
420 106 m 1,0,-1
 594 106 l 1,1,-1
 594 0 l 1,2,-1
 59 0 l 1,3,-1
 59 106 l 1,4,-1
 236 106 l 1,5,-1
 236 1450 l 1,6,-1
 59 1450 l 1,7,-1
 59 1556 l 1,8,-1
 420 1556 l 1,9,-1
 420 106 l 1,0,-1
EndSplineSet
EndChar
StartChar: m
Encoding: 109 109 80
Width: 1942
Flags: W
Fore
1061 856 m 1,0,1
 1114 973 1114 973 1196.5 1032.5 c 128,-1,2
 1279 1092 1279 1092 1389 1092 c 0,3,4
 1556 1092 1556 1092 1638 988.5 c 128,-1,5
 1720 885 1720 885 1720 676 c 2,6,-1
 1720 106 l 1,7,-1
 1886 106 l 1,8,-1
 1886 0 l 1,9,-1
 1376 0 l 1,10,-1
 1376 106 l 1,11,-1
 1536 106 l 1,12,-1
 1536 655 l 2,13,14
 1536 818 1536 818 1488 887 c 128,-1,15
 1440 956 1440 956 1329 956 c 0,16,17
 1206 956 1206 956 1141.5 863 c 128,-1,18
 1077 770 1077 770 1077 592 c 2,19,-1
 1077 106 l 1,20,-1
 1237 106 l 1,21,-1
 1237 0 l 1,22,-1
 733 0 l 1,23,-1
 733 106 l 1,24,-1
 893 106 l 1,25,-1
 893 662 l 2,26,27
 893 821 893 821 845 888.5 c 128,-1,28
 797 956 797 956 686 956 c 0,29,30
 563 956 563 956 498.5 863 c 128,-1,31
 434 770 434 770 434 592 c 2,32,-1
 434 106 l 1,33,-1
 594 106 l 1,34,-1
 594 0 l 1,35,-1
 84 0 l 1,36,-1
 84 106 l 1,37,-1
 250 106 l 1,38,-1
 250 958 l 1,39,-1
 74 958 l 1,40,-1
 74 1063 l 1,41,-1
 434 1063 l 1,42,-1
 434 874 l 1,43,44
 485 980 485 980 564 1036 c 128,-1,45
 643 1092 643 1092 743 1092 c 0,46,47
 867 1092 867 1092 950 1030.5 c 128,-1,48
 1033 969 1033 969 1061 856 c 1,0,1
EndSplineSet
EndChar
StartChar: n
Encoding: 110 110 81
Width: 1319
Flags: W
Fore
84 0 m 1,0,-1
 84 106 l 1,1,-1
 250 106 l 1,2,-1
 250 956 l 1,3,-1
 74 956 l 1,4,-1
 74 1063 l 1,5,-1
 434 1063 l 1,6,-1
 434 874 l 1,7,8
 485 982 485 982 566.5 1037 c 128,-1,9
 648 1092 648 1092 756 1092 c 0,10,11
 932 1092 932 1092 1015 991 c 128,-1,12
 1098 890 1098 890 1098 676 c 2,13,-1
 1098 106 l 1,14,-1
 1262 106 l 1,15,-1
 1262 0 l 1,16,-1
 754 0 l 1,17,-1
 754 106 l 1,18,-1
 913 106 l 1,19,-1
 913 618 l 2,20,21
 913 813 913 813 865 885.5 c 128,-1,22
 817 958 817 958 696 958 c 0,23,24
 568 958 568 958 501 864.5 c 128,-1,25
 434 771 434 771 434 592 c 2,26,-1
 434 106 l 1,27,-1
 594 106 l 1,28,-1
 594 0 l 1,29,-1
 84 0 l 1,0,-1
EndSplineSet
EndChar
StartChar: o
Encoding: 111 111 82
Width: 1233
Flags: W
Fore
616 70 m 0,0,1
 764 70 764 70 839.5 187 c 128,-1,2
 915 304 915 304 915 532 c 0,3,4
 915 760 915 760 839.5 876.5 c 128,-1,5
 764 993 764 993 616 993 c 0,6,7
 468 993 468 993 392.5 876.5 c 128,-1,8
 317 760 317 760 317 532 c 0,9,10
 317 304 317 304 393 187 c 128,-1,11
 469 70 469 70 616 70 c 0,0,1
616 -29 m 0,12,13
 384 -29 384 -29 243 124.5 c 128,-1,14
 102 278 102 278 102 532 c 0,15,16
 102 786 102 786 242.5 939 c 128,-1,17
 383 1092 383 1092 616 1092 c 0,18,19
 849 1092 849 1092 989.5 939 c 128,-1,20
 1130 786 1130 786 1130 532 c 0,21,22
 1130 278 1130 278 989.5 124.5 c 128,-1,23
 849 -29 849 -29 616 -29 c 0,12,13
EndSplineSet
KernsSLIF: 46 -36 0 0
EndChar
StartChar: p
Encoding: 112 112 83
Width: 1311
Flags: W
Fore
420 584 m 2,0,-1
 420 479 l 2,1,2
 420 287 420 287 493.5 186.5 c 128,-1,3
 567 86 567 86 707 86 c 0,4,5
 848 86 848 86 920.5 199 c 128,-1,6
 993 312 993 312 993 532 c 0,7,8
 993 753 993 753 920.5 865 c 128,-1,9
 848 977 848 977 707 977 c 0,10,11
 567 977 567 977 493.5 876 c 128,-1,12
 420 775 420 775 420 584 c 2,0,-1
236 956 m 1,13,-1
 59 956 l 1,14,-1
 59 1063 l 1,15,-1
 420 1063 l 1,16,-1
 420 897 l 1,17,18
 474 997 474 997 557.5 1044.5 c 128,-1,19
 641 1092 641 1092 764 1092 c 0,20,21
 960 1092 960 1092 1084 937 c 128,-1,22
 1208 782 1208 782 1208 532 c 0,23,24
 1208 282 1208 282 1084 126.5 c 128,-1,25
 960 -29 960 -29 764 -29 c 0,26,27
 641 -29 641 -29 557.5 18.5 c 128,-1,28
 474 66 474 66 420 166 c 1,29,-1
 420 -319 l 1,30,-1
 594 -319 l 1,31,-1
 594 -426 l 1,32,-1
 59 -426 l 1,33,-1
 59 -319 l 1,34,-1
 236 -319 l 1,35,-1
 236 956 l 1,13,-1
EndSplineSet
EndChar
StartChar: q
Encoding: 113 113 84
Width: 1311
Flags: W
Fore
1075 956 m 1,0,-1
 1075 -319 l 1,1,-1
 1251 -319 l 1,2,-1
 1251 -426 l 1,3,-1
 717 -426 l 1,4,-1
 717 -319 l 1,5,-1
 891 -319 l 1,6,-1
 891 166 l 1,7,8
 837 66 837 66 753.5 18.5 c 128,-1,9
 670 -29 670 -29 547 -29 c 0,10,11
 351 -29 351 -29 226.5 126.5 c 128,-1,12
 102 282 102 282 102 532 c 0,13,14
 102 782 102 782 226 937 c 128,-1,15
 350 1092 350 1092 547 1092 c 0,16,17
 670 1092 670 1092 753.5 1044.5 c 128,-1,18
 837 997 837 997 891 897 c 1,19,-1
 891 1063 l 1,20,-1
 1251 1063 l 1,21,-1
 1251 956 l 1,22,-1
 1075 956 l 1,0,-1
891 584 m 2,23,24
 891 775 891 775 817.5 876 c 128,-1,25
 744 977 744 977 604 977 c 0,26,27
 462 977 462 977 389.5 865 c 128,-1,28
 317 753 317 753 317 532 c 0,29,30
 317 312 317 312 389.5 199 c 128,-1,31
 462 86 462 86 604 86 c 0,32,33
 744 86 744 86 817.5 186.5 c 128,-1,34
 891 287 891 287 891 479 c 2,35,-1
 891 584 l 2,23,24
EndSplineSet
EndChar
StartChar: r
Encoding: 114 114 85
Width: 979
Flags: W
Fore
979 1065 m 1,0,-1
 979 799 l 1,1,-1
 873 799 l 1,2,3
 868 878 868 878 829 917 c 128,-1,4
 790 956 790 956 715 956 c 0,5,6
 579 956 579 956 506.5 862 c 128,-1,7
 434 768 434 768 434 592 c 2,8,-1
 434 106 l 1,9,-1
 647 106 l 1,10,-1
 647 0 l 1,11,-1
 84 0 l 1,12,-1
 84 106 l 1,13,-1
 250 106 l 1,14,-1
 250 958 l 1,15,-1
 74 958 l 1,16,-1
 74 1063 l 1,17,-1
 434 1063 l 1,18,-1
 434 874 l 1,19,20
 488 985 488 985 573 1038.5 c 128,-1,21
 658 1092 658 1092 780 1092 c 0,22,23
 825 1092 825 1092 874.5 1085 c 128,-1,24
 924 1078 924 1078 979 1065 c 1,0,-1
EndSplineSet
KernsSLIF: 46 -225 0 0 44 -225 0 0
EndChar
StartChar: s
Encoding: 115 115 86
Width: 1051
Flags: W
Fore
115 59 m 1,0,-1
 115 307 l 1,1,-1
 221 307 l 1,2,3
 225 188 225 188 295.5 129 c 128,-1,4
 366 70 366 70 504 70 c 0,5,6
 628 70 628 70 693 116.5 c 128,-1,7
 758 163 758 163 758 252 c 0,8,9
 758 322 758 322 710.5 365 c 128,-1,10
 663 408 663 408 510 457 c 1,11,-1
 377 502 l 1,12,13
 240 546 240 546 178.5 612 c 128,-1,14
 117 678 117 678 117 780 c 0,15,16
 117 926 117 926 224 1009 c 128,-1,17
 331 1092 331 1092 520 1092 c 0,18,19
 604 1092 604 1092 697 1070 c 128,-1,20
 790 1048 790 1048 889 1006 c 1,21,-1
 889 774 l 1,22,-1
 783 774 l 1,23,24
 779 877 779 877 711 935 c 128,-1,25
 643 993 643 993 526 993 c 0,26,27
 410 993 410 993 350.5 952 c 128,-1,28
 291 911 291 911 291 829 c 0,29,30
 291 762 291 762 336 721.5 c 128,-1,31
 381 681 381 681 516 639 c 2,32,-1
 662 594 l 2,33,34
 813 547 813 547 879.5 476.5 c 128,-1,35
 946 406 946 406 946 295 c 0,36,37
 946 144 946 144 830.5 57.5 c 128,-1,38
 715 -29 715 -29 512 -29 c 0,39,40
 409 -29 409 -29 311 -7 c 128,-1,41
 213 15 213 15 115 59 c 1,0,-1
EndSplineSet
EndChar
StartChar: t
Encoding: 116 116 87
Width: 823
Flags: W
Fore
221 956 m 1,0,-1
 59 956 l 1,1,-1
 59 1063 l 1,2,-1
 221 1063 l 1,3,-1
 221 1393 l 1,4,-1
 406 1393 l 1,5,-1
 406 1063 l 1,6,-1
 752 1063 l 1,7,-1
 752 956 l 1,8,-1
 406 956 l 1,9,-1
 406 281 l 2,10,11
 406 146 406 146 432 108 c 128,-1,12
 458 70 458 70 528 70 c 0,13,14
 600 70 600 70 633 112.5 c 128,-1,15
 666 155 666 155 668 250 c 1,16,-1
 807 250 l 1,17,18
 799 105 799 105 728 38 c 128,-1,19
 657 -29 657 -29 512 -29 c 0,20,21
 353 -29 353 -29 287 41.5 c 128,-1,22
 221 112 221 112 221 281 c 2,23,-1
 221 956 l 1,0,-1
EndSplineSet
EndChar
StartChar: u
Encoding: 117 117 88
Width: 1319
Flags: W
Fore
725 1063 m 1,0,-1
 1069 1063 l 1,1,-1
 1069 106 l 1,2,-1
 1243 106 l 1,3,-1
 1243 0 l 1,4,-1
 885 0 l 1,5,-1
 885 188 l 1,6,7
 834 82 834 82 753 26.5 c 128,-1,8
 672 -29 672 -29 565 -29 c 0,9,10
 388 -29 388 -29 304.5 71.5 c 128,-1,11
 221 172 221 172 221 387 c 2,12,-1
 221 956 l 1,13,-1
 55 956 l 1,14,-1
 55 1063 l 1,15,-1
 406 1063 l 1,16,-1
 406 444 l 2,17,18
 406 250 406 250 453.5 178 c 128,-1,19
 501 106 501 106 623 106 c 0,20,21
 751 106 751 106 818 200 c 128,-1,22
 885 294 885 294 885 473 c 2,23,-1
 885 956 l 1,24,-1
 725 956 l 1,25,-1
 725 1063 l 1,0,-1
EndSplineSet
EndChar
StartChar: v
Encoding: 118 118 89
Width: 1157
Flags: W
Fore
506 0 m 1,0,-1
 115 956 l 1,1,-1
 -6 956 l 1,2,-1
 -6 1063 l 1,3,-1
 483 1063 l 1,4,-1
 483 956 l 1,5,-1
 313 956 l 1,6,-1
 612 225 l 1,7,-1
 911 956 l 1,8,-1
 752 956 l 1,9,-1
 752 1063 l 1,10,-1
 1151 1063 l 1,11,-1
 1151 956 l 1,12,-1
 1032 956 l 1,13,-1
 641 0 l 1,14,-1
 506 0 l 1,0,-1
EndSplineSet
KernsSLIF: 46 -243 0 0 44 -243 0 0
EndChar
StartChar: w
Encoding: 119 119 90
Width: 1753
Flags: W
Fore
983 1063 m 1,0,-1
 1255 233 l 1,1,-1
 1495 956 l 1,2,-1
 1341 956 l 1,3,-1
 1341 1063 l 1,4,-1
 1726 1063 l 1,5,-1
 1726 956 l 1,6,-1
 1608 956 l 1,7,-1
 1292 0 l 1,8,-1
 1139 0 l 1,9,-1
 877 795 l 1,10,-1
 614 0 l 1,11,-1
 467 0 l 1,12,-1
 152 956 l 1,13,-1
 33 956 l 1,14,-1
 33 1063 l 1,15,-1
 514 1063 l 1,16,-1
 514 956 l 1,17,-1
 342 956 l 1,18,-1
 580 233 l 1,19,-1
 854 1063 l 1,20,-1
 983 1063 l 1,0,-1
EndSplineSet
KernsSLIF: 46 -243 0 0 44 -243 0 0
EndChar
StartChar: x
Encoding: 120 120 91
Width: 1155
Flags: W
Fore
596 649 m 1,0,-1
 819 956 l 1,1,-1
 676 956 l 1,2,-1
 676 1063 l 1,3,-1
 1085 1063 l 1,4,-1
 1085 956 l 1,5,-1
 944 956 l 1,6,-1
 659 563 l 1,7,-1
 991 106 l 1,8,-1
 1130 106 l 1,9,-1
 1130 0 l 1,10,-1
 639 0 l 1,11,-1
 639 106 l 1,12,-1
 774 106 l 1,13,-1
 543 424 l 1,14,-1
 311 106 l 1,15,-1
 449 106 l 1,16,-1
 449 0 l 1,17,-1
 45 0 l 1,18,-1
 45 106 l 1,19,-1
 186 106 l 1,20,-1
 479 510 l 1,21,-1
 156 956 l 1,22,-1
 25 956 l 1,23,-1
 25 1063 l 1,24,-1
 500 1063 l 1,25,-1
 500 956 l 1,26,-1
 373 956 l 1,27,-1
 596 649 l 1,0,-1
EndSplineSet
KernsSLIF: 45 -36 0 0
EndChar
StartChar: y
Encoding: 121 121 92
Width: 1157
Flags: W
Fore
442 -195 m 1,0,-1
 512 -18 l 1,1,-1
 115 956 l 1,2,-1
 -6 956 l 1,3,-1
 -6 1063 l 1,4,-1
 483 1063 l 1,5,-1
 483 956 l 1,6,-1
 313 956 l 1,7,-1
 612 225 l 1,8,-1
 911 956 l 1,9,-1
 752 956 l 1,10,-1
 752 1063 l 1,11,-1
 1151 1063 l 1,12,-1
 1151 956 l 1,13,-1
 1032 956 l 1,14,-1
 545 -240 l 1,15,16
 495 -364 495 -364 434 -409.5 c 128,-1,17
 373 -455 373 -455 262 -455 c 0,18,19
 215 -455 215 -455 165.5 -447 c 128,-1,20
 116 -439 116 -439 66 -424 c 1,21,-1
 66 -221 l 1,22,-1
 160 -221 l 1,23,24
 166 -289 166 -289 194.5 -318.5 c 128,-1,25
 223 -348 223 -348 283 -348 c 0,26,27
 338 -348 338 -348 371.5 -317.5 c 128,-1,28
 405 -287 405 -287 442 -195 c 1,0,-1
EndSplineSet
KernsSLIF: 46 -272 0 0 44 -272 0 0
EndChar
StartChar: z
Encoding: 122 122 93
Width: 1079
Flags: W
Fore
82 0 m 1,0,-1
 82 86 l 1,1,-1
 748 956 l 1,2,-1
 221 956 l 1,3,-1
 221 772 l 1,4,-1
 115 772 l 1,5,-1
 115 1063 l 1,6,-1
 985 1063 l 1,7,-1
 985 977 l 1,8,-1
 319 106 l 1,9,-1
 897 106 l 1,10,-1
 897 299 l 1,11,-1
 1004 299 l 1,12,-1
 1004 0 l 1,13,-1
 82 0 l 1,0,-1
EndSplineSet
EndChar
StartChar: braceleft
Encoding: 123 123 94
Width: 1303
Flags: W
Fore
1047 -229 m 1,0,-1
 1047 -334 l 1,1,-1
 985 -334 l 2,2,3
 736 -334 736 -334 651.5 -260 c 128,-1,4
 567 -186 567 -186 567 35 c 2,5,-1
 567 293 l 2,6,7
 567 443 567 443 513 501 c 128,-1,8
 459 559 459 559 317 559 c 2,9,-1
 256 559 l 1,10,-1
 256 664 l 1,11,-1
 317 664 l 2,12,13
 459 664 459 664 513 722 c 128,-1,14
 567 780 567 780 567 930 c 2,15,-1
 567 1188 l 2,16,17
 567 1409 567 1409 651.5 1482.5 c 128,-1,18
 736 1556 736 1556 985 1556 c 2,19,-1
 1047 1556 l 1,20,-1
 1047 1452 l 1,21,-1
 979 1452 l 2,22,23
 838 1452 838 1452 795 1408 c 128,-1,24
 752 1364 752 1364 752 1223 c 2,25,-1
 752 936 l 2,26,27
 752 778 752 778 702 710 c 128,-1,28
 652 642 652 642 522 612 c 1,29,30
 654 578 654 578 703 511 c 128,-1,31
 752 444 752 444 752 287 c 2,32,-1
 752 0 l 2,33,34
 752 -141 752 -141 795 -185 c 128,-1,35
 838 -229 838 -229 979 -229 c 2,36,-1
 1047 -229 l 1,0,-1
EndSplineSet
EndChar
StartChar: bar
Encoding: 124 124 95
Width: 690
Flags: W
Fore
426 1565 m 1,0,-1
 426 -483 l 1,1,-1
 264 -483 l 1,2,-1
 264 1565 l 1,3,-1
 426 1565 l 1,0,-1
EndSplineSet
EndChar
StartChar: braceright
Encoding: 125 125 96
Width: 1303
Flags: W
Fore
256 -229 m 1,0,-1
 326 -229 l 2,1,2
 466 -229 466 -229 508.5 -185.5 c 128,-1,3
 551 -142 551 -142 551 0 c 2,4,-1
 551 287 l 2,5,6
 551 444 551 444 600 511 c 128,-1,7
 649 578 649 578 780 612 c 1,8,9
 650 642 650 642 600.5 710 c 128,-1,10
 551 778 551 778 551 936 c 2,11,-1
 551 1223 l 2,12,13
 551 1365 551 1365 508.5 1408.5 c 128,-1,14
 466 1452 466 1452 326 1452 c 2,15,-1
 256 1452 l 1,16,-1
 256 1556 l 1,17,-1
 319 1556 l 2,18,19
 568 1556 568 1556 651.5 1482.5 c 128,-1,20
 735 1409 735 1409 735 1188 c 2,21,-1
 735 930 l 2,22,23
 735 780 735 780 789 722 c 128,-1,24
 843 664 843 664 985 664 c 2,25,-1
 1047 664 l 1,26,-1
 1047 559 l 1,27,-1
 985 559 l 2,28,29
 843 559 843 559 789 501 c 128,-1,30
 735 443 735 443 735 293 c 2,31,-1
 735 35 l 2,32,33
 735 -186 735 -186 651.5 -260 c 128,-1,34
 568 -334 568 -334 319 -334 c 2,35,-1
 256 -334 l 1,36,-1
 256 -229 l 1,0,-1
EndSplineSet
EndChar
StartChar: asciitilde
Encoding: 126 126 97
Width: 1716
Flags: W
Fore
1499 807 m 1,0,-1
 1499 659 l 1,1,2
 1399 571 1399 571 1309 529 c 128,-1,3
 1219 487 1219 487 1126 487 c 0,4,5
 1030 487 1030 487 856 553 c 2,6,-1
 846 557 l 2,7,8
 835 561 835 561 813 570 c 0,9,10
 666 627 666 627 571 627 c 0,11,12
 479 627 479 627 392.5 590.5 c 128,-1,13
 306 554 306 554 217 477 c 1,14,-1
 217 629 l 1,15,16
 317 716 317 716 406.5 756.5 c 128,-1,17
 496 797 496 797 590 797 c 0,18,19
 686 797 686 797 860 731 c 2,20,-1
 870 727 l 2,21,22
 881 723 881 723 901 715 c 0,23,24
 1046 657 1046 657 1143 657 c 0,25,26
 1235 657 1235 657 1323 694 c 128,-1,27
 1411 731 1411 731 1499 807 c 1,0,-1
EndSplineSet
EndChar
StartChar: exclamdown
Encoding: 161 161 163
Width: 823
Flags: W
Fore
279 1389 m 0,0,1
 279 1445 279 1445 317 1483.5 c 128,-1,2
 355 1522 355 1522 412 1522 c 0,3,4
 467 1522 467 1522 506 1483 c 128,-1,5
 545 1444 545 1444 545 1389 c 0,6,7
 545 1333 545 1333 506 1294 c 128,-1,8
 467 1255 467 1255 412 1255 c 0,9,10
 355 1255 355 1255 317 1294 c 128,-1,11
 279 1333 279 1333 279 1389 c 0,0,1
283 0 m 1,12,-1
 350 821 l 1,13,-1
 350 1073 l 1,14,-1
 473 1073 l 1,15,-1
 473 821 l 1,16,-1
 541 0 l 1,17,-1
 283 0 l 1,12,-1
EndSplineSet
EndChar
StartChar: cent
Encoding: 162 162 132
Width: 1303
Flags: W
Fore
629 991 m 1,0,1
 500 976 500 976 435.5 861 c 128,-1,2
 371 746 371 746 371 532 c 0,3,4
 371 317 371 317 435.5 202 c 128,-1,5
 500 87 500 87 629 72 c 1,6,-1
 629 991 l 1,0,1
1104 319 m 1,7,8
 1069 165 1069 165 975 78.5 c 128,-1,9
 881 -8 881 -8 729 -27 c 1,10,-1
 729 -297 l 1,11,-1
 629 -297 l 1,12,-1
 629 -27 l 1,13,14
 409 -8 409 -8 281.5 142 c 128,-1,15
 154 292 154 292 154 532 c 0,16,17
 154 774 154 774 281.5 923.5 c 128,-1,18
 409 1073 409 1073 629 1090 c 1,19,-1
 629 1356 l 1,20,-1
 729 1356 l 1,21,-1
 729 1090 l 1,22,23
 821 1082 821 1082 905 1059 c 128,-1,24
 989 1036 989 1036 1069 997 c 1,25,-1
 1069 725 l 1,26,-1
 963 725 l 1,27,28
 944 848 944 848 886.5 913.5 c 128,-1,29
 829 979 829 979 729 991 c 1,30,-1
 729 72 l 1,31,32
 819 84 819 84 877 147.5 c 128,-1,33
 935 211 935 211 956 319 c 1,34,-1
 1104 319 l 1,7,8
EndSplineSet
EndChar
StartChar: sterling
Encoding: 163 163 133
Width: 1303
Flags: W
Fore
1102 1225 m 1,0,-1
 997 1225 l 1,1,2
 987 1320 987 1320 930.5 1370.5 c 128,-1,3
 874 1421 874 1421 778 1421 c 0,4,5
 651 1421 651 1421 590.5 1343.5 c 128,-1,6
 530 1266 530 1266 530 1102 c 2,7,-1
 530 807 l 1,8,-1
 942 807 l 1,9,-1
 942 700 l 1,10,-1
 530 700 l 1,11,-1
 530 121 l 1,12,-1
 1008 121 l 1,13,-1
 1008 348 l 1,14,-1
 1124 348 l 1,15,-1
 1124 0 l 1,16,-1
 137 0 l 1,17,-1
 137 106 l 1,18,-1
 330 106 l 1,19,-1
 330 700 l 1,20,-1
 137 700 l 1,21,-1
 137 807 l 1,22,-1
 330 807 l 1,23,-1
 330 1102 l 2,24,25
 330 1307 330 1307 444.5 1413.5 c 128,-1,26
 559 1520 559 1520 780 1520 c 0,27,28
 865 1520 865 1520 946 1507.5 c 128,-1,29
 1027 1495 1027 1495 1102 1470 c 1,30,-1
 1102 1225 l 1,0,-1
EndSplineSet
EndChar
StartChar: currency
Encoding: 164 164 189
Width: 1303
Flags: W
Fore
901 985 m 1,0,-1
 1110 1192 l 1,1,-1
 1204 1098 l 1,2,-1
 995 889 l 1,3,4
 1038 829 1038 829 1058.5 768 c 128,-1,5
 1079 707 1079 707 1079 641 c 0,6,7
 1079 572 1079 572 1058.5 513 c 128,-1,8
 1038 454 1038 454 993 397 c 1,9,-1
 1200 190 l 1,10,-1
 1104 96 l 1,11,-1
 897 301 l 1,12,13
 841 257 841 257 781.5 236 c 128,-1,14
 722 215 722 215 653 215 c 0,15,16
 589 215 589 215 526.5 235.5 c 128,-1,17
 464 256 464 256 403 297 c 1,18,-1
 199 92 l 1,19,-1
 104 186 l 1,20,-1
 309 393 l 1,21,22
 268 455 268 455 247.5 516 c 128,-1,23
 227 577 227 577 227 641 c 0,24,25
 227 711 227 711 248 770.5 c 128,-1,26
 269 830 269 830 313 887 c 1,27,-1
 106 1094 l 1,28,-1
 201 1188 l 1,29,-1
 408 981 l 1,30,31
 464 1025 464 1025 524 1046 c 128,-1,32
 584 1067 584 1067 653 1067 c 0,33,34
 719 1067 719 1067 780 1047 c 128,-1,35
 841 1027 841 1027 901 985 c 1,0,-1
922 643 m 0,36,37
 922 755 922 755 844.5 832 c 128,-1,38
 767 909 767 909 653 909 c 0,39,40
 541 909 541 909 463 832 c 128,-1,41
 385 755 385 755 385 643 c 0,42,43
 385 529 385 529 462.5 451 c 128,-1,44
 540 373 540 373 653 373 c 0,45,46
 766 373 766 373 844 451.5 c 128,-1,47
 922 530 922 530 922 643 c 0,36,37
EndSplineSet
EndChar
StartChar: yen
Encoding: 165 165 150
Width: 1303
Flags: W
Fore
360 0 m 1,0,-1
 360 106 l 1,1,-1
 551 106 l 1,2,-1
 551 473 l 1,3,-1
 147 473 l 1,4,-1
 147 578 l 1,5,-1
 551 578 l 1,6,-1
 551 643 l 1,7,-1
 469 784 l 1,8,-1
 147 784 l 1,9,-1
 147 889 l 1,10,-1
 410 889 l 1,11,-1
 123 1386 l 1,12,-1
 -16 1386 l 1,13,-1
 -16 1493 l 1,14,-1
 537 1493 l 1,15,-1
 537 1386 l 1,16,-1
 362 1386 l 1,17,-1
 705 782 l 1,18,-1
 1044 1386 l 1,19,-1
 877 1386 l 1,20,-1
 877 1493 l 1,21,-1
 1309 1493 l 1,22,-1
 1309 1386 l 1,23,-1
 1167 1386 l 1,24,-1
 883 889 l 1,25,-1
 1155 889 l 1,26,-1
 1155 784 l 1,27,-1
 823 784 l 1,28,-1
 752 662 l 1,29,-1
 752 578 l 1,30,-1
 1155 578 l 1,31,-1
 1155 473 l 1,32,-1
 752 473 l 1,33,-1
 752 106 l 1,34,-1
 942 106 l 1,35,-1
 942 0 l 1,36,-1
 360 0 l 1,0,-1
EndSplineSet
EndChar
StartChar: brokenbar
Encoding: 166 166 231
Width: 690
Flags: W
Fore
426 408 m 1,0,-1
 426 -350 l 1,1,-1
 264 -350 l 1,2,-1
 264 408 l 1,3,-1
 426 408 l 1,0,-1
426 1432 m 1,4,-1
 426 674 l 1,5,-1
 264 674 l 1,6,-1
 264 1432 l 1,7,-1
 426 1432 l 1,4,-1
EndSplineSet
EndChar
StartChar: section
Encoding: 167 167 134
Width: 1024
Flags: W
Fore
379 936 m 1,0,1
 311 890 311 890 283.5 848.5 c 128,-1,2
 256 807 256 807 256 754 c 0,3,4
 256 622 256 622 619 419 c 2,5,-1
 651 401 l 1,6,7
 709 439 709 439 738.5 487 c 128,-1,8
 768 535 768 535 768 592 c 0,9,10
 768 667 768 667 698.5 734 c 128,-1,11
 629 801 629 801 379 936 c 1,0,1
829 1464 m 1,12,-1
 829 1262 l 1,13,-1
 737 1262 l 1,14,15
 735 1334 735 1334 683 1375.5 c 128,-1,16
 631 1417 631 1417 543 1417 c 0,17,18
 443 1417 443 1417 385.5 1368.5 c 128,-1,19
 328 1320 328 1320 328 1237 c 0,20,21
 328 1140 328 1140 574 1003 c 0,22,23
 600 988 600 988 612 981 c 0,24,25
 807 872 807 872 869.5 797 c 128,-1,26
 932 722 932 722 932 623 c 0,27,28
 932 528 932 528 879.5 465 c 128,-1,29
 827 402 827 402 713 358 c 1,30,31
 791 311 791 311 827.5 248 c 128,-1,32
 864 185 864 185 864 94 c 0,33,34
 864 -37 864 -37 762 -116 c 128,-1,35
 660 -195 660 -195 487 -195 c 0,36,37
 397 -195 397 -195 317 -181.5 c 128,-1,38
 237 -168 237 -168 160 -139 c 1,39,-1
 160 70 l 1,40,-1
 252 69 l 1,41,42
 254 -11 254 -11 308 -51.5 c 128,-1,43
 362 -92 362 -92 469 -92 c 0,44,45
 573 -92 573 -92 633.5 -43 c 128,-1,46
 694 6 694 6 694 90 c 0,47,48
 694 203 694 203 466 330 c 0,49,50
 445 342 445 342 434 348 c 0,51,52
 218 470 218 470 155 545 c 128,-1,53
 92 620 92 620 92 719 c 0,54,55
 92 813 92 813 151 879.5 c 128,-1,56
 210 946 210 946 319 977 c 1,57,58
 237 1026 237 1026 197.5 1089 c 128,-1,59
 158 1152 158 1152 158 1231 c 0,60,61
 158 1361 158 1361 258 1440.5 c 128,-1,62
 358 1520 358 1520 524 1520 c 0,63,64
 602 1520 602 1520 678 1506 c 128,-1,65
 754 1492 754 1492 829 1464 c 1,12,-1
EndSplineSet
EndChar
StartChar: dieresis
Encoding: 168 168 142
Width: 1024
Flags: W
Fore
317 1569 m 0,0,1
 365 1569 365 1569 399.5 1534.5 c 128,-1,2
 434 1500 434 1500 434 1452 c 0,3,4
 434 1401 434 1401 401 1368 c 128,-1,5
 368 1335 368 1335 317 1335 c 0,6,7
 267 1335 267 1335 234 1368 c 128,-1,8
 201 1401 201 1401 201 1452 c 0,9,10
 201 1500 201 1500 235.5 1534.5 c 128,-1,11
 270 1569 270 1569 317 1569 c 0,0,1
707 1569 m 0,12,13
 754 1569 754 1569 788.5 1534.5 c 128,-1,14
 823 1500 823 1500 823 1452 c 0,15,16
 823 1401 823 1401 790 1368 c 128,-1,17
 757 1335 757 1335 707 1335 c 0,18,19
 656 1335 656 1335 623 1368 c 128,-1,20
 590 1401 590 1401 590 1452 c 0,21,22
 590 1500 590 1500 624.5 1534.5 c 128,-1,23
 659 1569 659 1569 707 1569 c 0,12,13
EndSplineSet
Ligature: 0 1 'liga' space uni0308
EndChar
StartChar: copyright
Encoding: 169 169 139
Width: 2048
Flags: W
Fore
1376 573 m 1,0,1
 1349 442 1349 442 1258.5 371.5 c 128,-1,2
 1168 301 1168 301 1026 301 c 0,3,4
 839 301 839 301 727.5 421 c 128,-1,5
 616 541 616 541 616 741 c 0,6,7
 616 942 616 942 728.5 1063 c 128,-1,8
 841 1184 841 1184 1026 1184 c 0,9,10
 1106 1184 1106 1184 1183.5 1165.5 c 128,-1,11
 1261 1147 1261 1147 1348 1108 c 1,12,-1
 1348 895 l 1,13,-1
 1264 895 l 1,14,15
 1247 1004 1247 1004 1190 1055 c 128,-1,16
 1133 1106 1133 1106 1028 1106 c 0,17,18
 909 1106 909 1106 848.5 1014.5 c 128,-1,19
 788 923 788 923 788 741 c 0,20,21
 788 560 788 560 848 469.5 c 128,-1,22
 908 379 908 379 1026 379 c 0,23,24
 1123 379 1123 379 1179.5 426.5 c 128,-1,25
 1236 474 1236 474 1257 573 c 1,26,-1
 1376 573 l 1,0,1
1024 1485 m 0,27,28
 1176 1485 1176 1485 1307.5 1430 c 128,-1,29
 1439 1375 1439 1375 1548 1266 c 0,30,31
 1657 1157 1657 1157 1711 1026 c 128,-1,32
 1765 895 1765 895 1765 741 c 0,33,34
 1765 589 1765 589 1711 458.5 c 128,-1,35
 1657 328 1657 328 1548 219 c 0,36,37
 1439 110 1439 110 1307.5 55 c 128,-1,38
 1176 0 1176 0 1024 0 c 0,39,40
 872 0 872 0 740.5 55 c 128,-1,41
 609 110 609 110 500 219 c 0,42,43
 391 328 391 328 337 458.5 c 128,-1,44
 283 589 283 589 283 741 c 0,45,46
 283 895 283 895 337 1026 c 128,-1,47
 391 1157 391 1157 500 1266 c 0,48,49
 609 1375 609 1375 740.5 1430 c 128,-1,50
 872 1485 872 1485 1024 1485 c 0,27,28
1024 1382 m 0,51,52
 893 1382 893 1382 780 1335 c 128,-1,53
 667 1288 667 1288 573 1194 c 0,54,55
 480 1101 480 1101 432.5 986.5 c 128,-1,56
 385 872 385 872 385 741 c 0,57,58
 385 611 385 611 432.5 498 c 128,-1,59
 480 385 480 385 573 291 c 0,60,61
 667 197 667 197 780 149.5 c 128,-1,62
 893 102 893 102 1024 102 c 0,63,64
 1156 102 1156 102 1269.5 149.5 c 128,-1,65
 1383 197 1383 197 1477 291 c 0,66,67
 1570 384 1570 384 1616.5 497 c 128,-1,68
 1663 610 1663 610 1663 741 c 0,69,70
 1663 874 1663 874 1616 987.5 c 128,-1,71
 1569 1101 1569 1101 1477 1194 c 0,72,73
 1383 1288 1383 1288 1269.5 1335 c 128,-1,74
 1156 1382 1156 1382 1024 1382 c 0,51,52
EndSplineSet
EndChar
StartChar: ordfeminine
Encoding: 170 170 157
Width: 973
Flags: W
Fore
838 1219 m 2,0,-1
 838 840 l 1,1,-1
 918 840 l 1,2,-1
 918 756 l 1,3,-1
 690 756 l 1,4,-1
 690 836 l 1,5,6
 642 785 642 785 579.5 761 c 128,-1,7
 517 737 517 737 430 737 c 0,8,9
 289 737 289 737 207 802 c 128,-1,10
 125 867 125 867 125 979 c 0,11,12
 125 1093 125 1093 220 1157 c 128,-1,13
 315 1221 315 1221 485 1221 c 2,14,-1
 690 1221 l 1,15,-1
 690 1266 l 2,16,17
 690 1350 690 1350 632 1397 c 128,-1,18
 574 1444 574 1444 469 1444 c 0,19,20
 382 1444 382 1444 331 1409 c 128,-1,21
 280 1374 280 1374 266 1305 c 1,22,-1
 190 1305 l 1,23,-1
 190 1462 l 1,24,25
 267 1491 267 1491 339 1505.5 c 128,-1,26
 411 1520 411 1520 477 1520 c 0,27,28
 654 1520 654 1520 746 1443 c 128,-1,29
 838 1366 838 1366 838 1219 c 2,0,-1
690 997 m 2,30,-1
 690 1145 l 1,31,-1
 502 1145 l 2,32,33
 397 1145 397 1145 343 1105 c 128,-1,34
 289 1065 289 1065 289 987 c 0,35,36
 289 906 289 906 339.5 863.5 c 128,-1,37
 390 821 390 821 487 821 c 0,38,39
 579 821 579 821 634.5 869.5 c 128,-1,40
 690 918 690 918 690 997 c 2,30,-1
166 639 m 1,41,-1
 864 639 l 1,42,-1
 864 535 l 1,43,-1
 166 535 l 1,44,-1
 166 639 l 1,41,-1
EndSplineSet
EndChar
StartChar: guillemotleft
Encoding: 171 171 169
Width: 1253
Flags: W
Fore
1061 1059 m 1,0,-1
 1061 944 l 1,1,-1
 764 600 l 1,2,-1
 1061 256 l 1,3,-1
 1061 141 l 1,4,-1
 592 559 l 1,5,-1
 592 641 l 1,6,-1
 1061 1059 l 1,0,-1
627 1059 m 1,7,-1
 627 944 l 1,8,-1
 330 600 l 1,9,-1
 627 256 l 1,10,-1
 627 141 l 1,11,-1
 158 559 l 1,12,-1
 158 641 l 1,13,-1
 627 1059 l 1,7,-1
EndSplineSet
EndChar
StartChar: logicalnot
Encoding: 172 172 164
Width: 1716
Flags: W
Fore
217 862 m 1,0,-1
 1499 862 l 1,1,-1
 1499 287 l 1,2,-1
 1339 287 l 1,3,-1
 1339 700 l 1,4,-1
 217 700 l 1,5,-1
 217 862 l 1,0,-1
EndSplineSet
EndChar
StartChar: sfthyphen
Encoding: 173 173 256
Width: 692
Flags: W
Fore
90 627 m 1,0,-1
 602 627 l 1,1,-1
 602 471 l 1,2,-1
 90 471 l 1,3,-1
 90 627 l 1,0,-1
EndSplineSet
EndChar
StartChar: registered
Encoding: 174 174 138
Width: 2048
Flags: W
Fore
895 791 m 1,0,-1
 1020 791 l 2,1,2
 1103 791 1103 791 1144.5 829 c 128,-1,3
 1186 867 1186 867 1186 942 c 0,4,5
 1186 1016 1186 1016 1144 1054 c 128,-1,6
 1102 1092 1102 1092 1020 1092 c 2,7,-1
 895 1092 l 1,8,-1
 895 791 l 1,0,-1
1141 754 m 1,9,10
 1183 740 1183 740 1212.5 714.5 c 128,-1,11
 1242 689 1242 689 1262 649 c 2,12,-1
 1378 420 l 1,13,-1
 1454 420 l 1,14,-1
 1454 352 l 1,15,-1
 1264 352 l 1,16,-1
 1133 606 l 1,17,18
 1098 676 1098 676 1067 699.5 c 128,-1,19
 1036 723 1036 723 987 723 c 2,20,-1
 895 723 l 1,21,-1
 895 420 l 1,22,-1
 979 420 l 1,23,-1
 979 352 l 1,24,-1
 662 352 l 1,25,-1
 662 420 l 1,26,-1
 745 420 l 1,27,-1
 745 1092 l 1,28,-1
 662 1092 l 1,29,-1
 662 1159 l 1,30,-1
 1077 1159 l 2,31,32
 1205 1159 1205 1159 1270 1103 c 128,-1,33
 1335 1047 1335 1047 1335 938 c 0,34,35
 1335 855 1335 855 1287 809.5 c 128,-1,36
 1239 764 1239 764 1141 754 c 1,9,10
1024 1382 m 0,37,38
 893 1382 893 1382 780 1335 c 128,-1,39
 667 1288 667 1288 573 1194 c 0,40,41
 480 1101 480 1101 432.5 986.5 c 128,-1,42
 385 872 385 872 385 741 c 0,43,44
 385 611 385 611 432.5 498 c 128,-1,45
 480 385 480 385 573 291 c 0,46,47
 667 197 667 197 780 149.5 c 128,-1,48
 893 102 893 102 1024 102 c 0,49,50
 1156 102 1156 102 1269.5 149.5 c 128,-1,51
 1383 197 1383 197 1477 291 c 0,52,53
 1570 384 1570 384 1616.5 497 c 128,-1,54
 1663 610 1663 610 1663 741 c 0,55,56
 1663 874 1663 874 1616 987.5 c 128,-1,57
 1569 1101 1569 1101 1477 1194 c 0,58,59
 1383 1288 1383 1288 1269.5 1335 c 128,-1,60
 1156 1382 1156 1382 1024 1382 c 0,37,38
1024 1485 m 0,61,62
 1176 1485 1176 1485 1307.5 1430 c 128,-1,63
 1439 1375 1439 1375 1548 1266 c 0,64,65
 1657 1157 1657 1157 1711 1026 c 128,-1,66
 1765 895 1765 895 1765 741 c 0,67,68
 1765 589 1765 589 1711 458.5 c 128,-1,69
 1657 328 1657 328 1548 219 c 0,70,71
 1439 110 1439 110 1307.5 55 c 128,-1,72
 1176 0 1176 0 1024 0 c 0,73,74
 872 0 872 0 740.5 55 c 128,-1,75
 609 110 609 110 500 219 c 0,76,77
 391 328 391 328 337 458.5 c 128,-1,78
 283 589 283 589 283 741 c 0,79,80
 283 895 283 895 337 1026 c 128,-1,81
 391 1157 391 1157 500 1266 c 0,82,83
 609 1375 609 1375 740.5 1430 c 128,-1,84
 872 1485 872 1485 1024 1485 c 0,61,62
EndSplineSet
EndChar
StartChar: macron
Encoding: 175 175 217
Width: 1024
Flags: W
Fore
213 1526 m 1,0,-1
 811 1526 l 1,1,-1
 811 1378 l 1,2,-1
 213 1378 l 1,3,-1
 213 1526 l 1,0,-1
EndSplineSet
Ligature: 0 1 'liga' space uni0304
EndChar
StartChar: degree
Encoding: 176 176 131
Width: 1024
Flags: W
Fore
512 1382 m 0,0,1
 436 1382 436 1382 384 1329.5 c 128,-1,2
 332 1277 332 1277 332 1200 c 0,3,4
 332 1124 332 1124 383.5 1073 c 128,-1,5
 435 1022 435 1022 512 1022 c 0,6,7
 588 1022 588 1022 640 1073.5 c 128,-1,8
 692 1125 692 1125 692 1200 c 0,9,10
 692 1275 692 1275 639 1328.5 c 128,-1,11
 586 1382 586 1382 512 1382 c 0,0,1
512 1520 m 0,12,13
 576 1520 576 1520 635 1495.5 c 128,-1,14
 694 1471 694 1471 737 1425 c 1,15,16
 783 1380 783 1380 806 1323 c 128,-1,17
 829 1266 829 1266 829 1200 c 0,18,19
 829 1068 829 1068 736.5 976.5 c 128,-1,20
 644 885 644 885 510 885 c 0,21,22
 375 885 375 885 285 975 c 128,-1,23
 195 1065 195 1065 195 1200 c 0,24,25
 195 1334 195 1334 287 1427 c 128,-1,26
 379 1520 379 1520 512 1520 c 0,12,13
EndSplineSet
EndChar
StartChar: plusminus
Encoding: 177 177 147
Width: 1716
Flags: W
Fore
938 1284 m 1,0,-1
 938 893 l 1,1,-1
 1499 893 l 1,2,-1
 1499 731 l 1,3,-1
 938 731 l 1,4,-1
 938 340 l 1,5,-1
 778 340 l 1,6,-1
 778 731 l 1,7,-1
 217 731 l 1,8,-1
 217 893 l 1,9,-1
 778 893 l 1,10,-1
 778 1284 l 1,11,-1
 938 1284 l 1,0,-1
217 160 m 1,12,-1
 1499 160 l 1,13,-1
 1499 0 l 1,14,-1
 217 0 l 1,15,-1
 217 160 l 1,12,-1
EndSplineSet
EndChar
StartChar: twosuperior
Encoding: 178 178 241
Width: 821
Flags: W
Fore
170 1296 m 1,0,-1
 100 1296 l 1,1,-1
 100 1454 l 1,2,3
 166 1486 166 1486 236 1503 c 128,-1,4
 306 1520 306 1520 375 1520 c 0,5,6
 513 1520 513 1520 598.5 1454 c 128,-1,7
 684 1388 684 1388 684 1284 c 0,8,9
 684 1162 684 1162 490 988 c 2,10,-1
 471 971 l 1,11,-1
 233 756 l 1,12,-1
 618 756 l 1,13,-1
 618 864 l 1,14,-1
 692 864 l 1,15,-1
 692 668 l 1,16,-1
 90 668 l 1,17,-1
 90 743 l 1,18,-1
 375 997 l 2,19,20
 461 1074 461 1074 498 1135 c 128,-1,21
 535 1196 535 1196 535 1262 c 0,22,23
 535 1347 535 1347 486.5 1396.5 c 128,-1,24
 438 1446 438 1446 354 1446 c 0,25,26
 276 1446 276 1446 229 1408 c 128,-1,27
 182 1370 182 1370 170 1296 c 1,0,-1
EndSplineSet
EndChar
StartChar: threesuperior
Encoding: 179 179 242
Width: 821
Flags: W
Fore
125 1468 m 1,0,1
 198 1494 198 1494 265 1507 c 128,-1,2
 332 1520 332 1520 391 1520 c 0,3,4
 529 1520 529 1520 603.5 1466 c 128,-1,5
 678 1412 678 1412 678 1313 c 0,6,7
 678 1241 678 1241 625 1191 c 128,-1,8
 572 1141 572 1141 477 1124 c 1,9,10
 596 1108 596 1108 656.5 1048.5 c 128,-1,11
 717 989 717 989 717 889 c 0,12,13
 717 775 717 775 629.5 714 c 128,-1,14
 542 653 542 653 379 653 c 0,15,16
 307 653 307 653 237.5 667 c 128,-1,17
 168 681 168 681 100 709 c 1,18,-1
 100 879 l 1,19,-1
 170 878 l 1,20,21
 175 804 175 804 224 765.5 c 128,-1,22
 273 727 273 727 365 727 c 0,23,24
 459 727 459 727 510 771 c 128,-1,25
 561 815 561 815 561 897 c 0,26,27
 561 990 561 990 510 1037.5 c 128,-1,28
 459 1085 459 1085 358 1085 c 2,29,-1
 305 1085 l 1,30,-1
 305 1159 l 1,31,-1
 332 1159 l 2,32,33
 429 1159 429 1159 478.5 1196 c 128,-1,34
 528 1233 528 1233 528 1307 c 0,35,36
 528 1374 528 1374 487.5 1410 c 128,-1,37
 447 1446 447 1446 371 1446 c 0,38,39
 289 1446 289 1446 245.5 1414 c 128,-1,40
 202 1382 202 1382 195 1317 c 1,41,-1
 125 1317 l 1,42,-1
 125 1468 l 1,0,1
EndSplineSet
EndChar
StartChar: acute
Encoding: 180 180 141
Width: 1024
Flags: W
Fore
651 1638 m 1,0,-1
 850 1638 l 1,1,-1
 510 1262 l 1,2,-1
 393 1262 l 1,3,-1
 651 1638 l 1,0,-1
EndSplineSet
LCarets: 0 65535 '    ' 1 0 
Ligature: 0 1 'liga' space acutecomb
EndChar
StartChar: mu
Encoding: 181 181 151
Width: 1331
Flags: W
Fore
739 1063 m 1,0,-1
 1083 1063 l 1,1,-1
 1083 104 l 1,2,-1
 1257 104 l 1,3,-1
 1257 0 l 1,4,-1
 899 0 l 1,5,-1
 899 188 l 1,6,7
 847 82 847 82 773.5 26.5 c 128,-1,8
 700 -29 700 -29 610 -29 c 0,9,10
 553 -29 553 -29 506 -11 c 128,-1,11
 459 7 459 7 420 43 c 1,12,-1
 420 -319 l 1,13,-1
 594 -319 l 1,14,-1
 594 -426 l 1,15,-1
 59 -426 l 1,16,-1
 59 -319 l 1,17,-1
 236 -319 l 1,18,-1
 236 956 l 1,19,-1
 70 956 l 1,20,-1
 70 1063 l 1,21,-1
 420 1063 l 1,22,-1
 420 444 l 2,23,24
 420 250 420 250 468 178 c 128,-1,25
 516 106 516 106 637 106 c 0,26,27
 765 106 765 106 832 200 c 128,-1,28
 899 294 899 294 899 473 c 2,29,-1
 899 956 l 1,30,-1
 739 956 l 1,31,-1
 739 1063 l 1,0,-1
EndSplineSet
EndChar
StartChar: paragraph
Encoding: 182 182 136
Width: 1303
Flags: W
Fore
633 1493 m 2,0,-1
 1171 1493 l 1,1,-1
 1171 1386 l 1,2,-1
 1053 1386 l 1,3,-1
 1053 -197 l 1,4,-1
 946 -197 l 1,5,-1
 946 1386 l 1,6,-1
 715 1386 l 1,7,-1
 715 -197 l 1,8,-1
 608 -197 l 1,9,-1
 608 649 l 1,10,11
 393 666 393 666 275.5 776.5 c 128,-1,12
 158 887 158 887 158 1071 c 0,13,14
 158 1261 158 1261 288 1377 c 128,-1,15
 418 1493 418 1493 633 1493 c 2,0,-1
EndSplineSet
EndChar
StartChar: periodcentered
Encoding: 183 183 195
Width: 651
Flags: W
Fore
190 711 m 0,0,1
 190 767 190 767 228.5 805.5 c 128,-1,2
 267 844 267 844 324 844 c 0,3,4
 379 844 379 844 418 805 c 128,-1,5
 457 766 457 766 457 711 c 0,6,7
 457 655 457 655 418 616.5 c 128,-1,8
 379 578 379 578 324 578 c 0,9,10
 267 578 267 578 228.5 616 c 128,-1,11
 190 654 190 654 190 711 c 0,0,1
EndSplineSet
EndChar
StartChar: cedilla
Encoding: 184 184 221
Width: 1024
Flags: W
Fore
578 0 m 1,0,1
 642 -64 642 -64 673.5 -120 c 128,-1,2
 705 -176 705 -176 705 -225 c 0,3,4
 705 -306 705 -306 642 -350.5 c 128,-1,5
 579 -395 579 -395 467 -395 c 0,6,7
 425 -395 425 -395 381 -389 c 128,-1,8
 337 -383 337 -383 291 -371 c 1,9,-1
 291 -240 l 1,10,11
 332 -257 332 -257 371.5 -265.5 c 128,-1,12
 411 -274 411 -274 446 -274 c 0,13,14
 503 -274 503 -274 536 -247.5 c 128,-1,15
 569 -221 569 -221 569 -176 c 0,16,17
 569 -148 569 -148 547 -104 c 128,-1,18
 525 -60 525 -60 481 0 c 1,19,-1
 578 0 l 1,0,1
EndSplineSet
Ligature: 0 1 'liga' space uni0327
EndChar
StartChar: onesuperior
Encoding: 185 185 240
Width: 821
Flags: W
Fore
176 668 m 1,0,-1
 176 752 l 1,1,-1
 348 752 l 1,2,-1
 348 1386 l 1,3,-1
 147 1280 l 1,4,-1
 147 1374 l 1,5,-1
 387 1503 l 1,6,-1
 489 1503 l 1,7,-1
 489 752 l 1,8,-1
 662 752 l 1,9,-1
 662 668 l 1,10,-1
 176 668 l 1,0,-1
EndSplineSet
EndChar
StartChar: ordmasculine
Encoding: 186 186 158
Width: 963
Flags: W
Fore
481 813 m 0,0,1
 587 813 587 813 640.5 892.5 c 128,-1,2
 694 972 694 972 694 1128 c 0,3,4
 694 1284 694 1284 640 1364 c 128,-1,5
 586 1444 586 1444 481 1444 c 0,6,7
 377 1444 377 1444 322.5 1363 c 128,-1,8
 268 1282 268 1282 268 1128 c 0,9,10
 268 973 268 973 322 893 c 128,-1,11
 376 813 376 813 481 813 c 0,0,1
481 737 m 0,12,13
 306 737 306 737 200 844.5 c 128,-1,14
 94 952 94 952 94 1128 c 0,15,16
 94 1305 94 1305 200 1412.5 c 128,-1,17
 306 1520 306 1520 481 1520 c 0,18,19
 656 1520 656 1520 762 1412.5 c 128,-1,20
 868 1305 868 1305 868 1128 c 0,21,22
 868 951 868 951 762.5 844 c 128,-1,23
 657 737 657 737 481 737 c 0,12,13
137 639 m 1,24,-1
 825 639 l 1,25,-1
 825 535 l 1,26,-1
 137 535 l 1,27,-1
 137 639 l 1,24,-1
EndSplineSet
EndChar
StartChar: guillemotright
Encoding: 187 187 170
Width: 1253
Flags: W
Fore
627 1059 m 1,0,-1
 1096 641 l 1,1,-1
 1096 559 l 1,2,-1
 627 141 l 1,3,-1
 627 256 l 1,4,-1
 924 600 l 1,5,-1
 627 944 l 1,6,-1
 627 1059 l 1,0,-1
193 1059 m 1,7,-1
 662 641 l 1,8,-1
 662 559 l 1,9,-1
 193 141 l 1,10,-1
 193 256 l 1,11,-1
 489 600 l 1,12,-1
 193 944 l 1,13,-1
 193 1059 l 1,7,-1
EndSplineSet
EndChar
StartChar: questiondown
Encoding: 191 191 162
Width: 1098
Flags: W
Fore
778 1389 m 0,0,1
 778 1333 778 1333 739.5 1294 c 128,-1,2
 701 1255 701 1255 645 1255 c 0,3,4
 590 1255 590 1255 551 1294 c 128,-1,5
 512 1333 512 1333 512 1389 c 0,6,7
 512 1444 512 1444 551 1483 c 128,-1,8
 590 1522 590 1522 645 1522 c 0,9,10
 702 1522 702 1522 740 1483.5 c 128,-1,11
 778 1445 778 1445 778 1389 c 0,0,1
999 66 m 1,12,13
 893 19 893 19 798 -4 c 128,-1,14
 703 -27 703 -27 618 -27 c 0,15,16
 397 -27 397 -27 268 80 c 128,-1,17
 139 187 139 187 139 369 c 0,18,19
 139 555 139 555 250 673 c 128,-1,20
 361 791 361 791 584 842 c 1,21,-1
 584 1096 l 1,22,-1
 707 1096 l 1,23,-1
 707 768 l 1,24,25
 530 725 530 725 440 624 c 128,-1,26
 350 523 350 523 350 367 c 0,27,28
 350 230 350 230 423.5 151 c 128,-1,29
 497 72 497 72 623 72 c 0,30,31
 736 72 736 72 809 137.5 c 128,-1,32
 882 203 882 203 903 326 c 1,33,-1
 999 326 l 1,34,-1
 999 66 l 1,12,13
EndSplineSet
EndChar
StartChar: Aring
Encoding: 197 197 99
Width: 1479
Flags: W
Fore
887 1626 m 0,0,1
 887 1689 887 1689 842.5 1733.5 c 128,-1,2
 798 1778 798 1778 735 1778 c 0,3,4
 671 1778 671 1778 627.5 1734.5 c 128,-1,5
 584 1691 584 1691 584 1626 c 0,6,7
 584 1563 584 1563 627.5 1519 c 128,-1,8
 671 1475 671 1475 735 1475 c 0,9,10
 798 1475 798 1475 842.5 1519 c 128,-1,11
 887 1563 887 1563 887 1626 c 0,0,1
410 541 m 1,12,-1
 956 541 l 1,13,-1
 684 1251 l 1,14,-1
 410 541 l 1,12,-1
-12 0 m 1,15,-1
 -12 106 l 1,16,-1
 119 106 l 1,17,-1
 608 1384 l 1,18,19
 536 1421 536 1421 498.5 1482 c 128,-1,20
 461 1543 461 1543 461 1626 c 0,21,22
 461 1740 461 1740 541 1820.5 c 128,-1,23
 621 1901 621 1901 735 1901 c 0,24,25
 849 1901 849 1901 929.5 1820.5 c 128,-1,26
 1010 1740 1010 1740 1010 1626 c 0,27,28
 1010 1546 1010 1546 971 1482.5 c 128,-1,29
 932 1419 932 1419 860 1384 c 1,30,-1
 1352 106 l 1,31,-1
 1499 106 l 1,32,-1
 1499 0 l 1,33,-1
 956 0 l 1,34,-1
 956 106 l 1,35,-1
 1122 106 l 1,36,-1
 997 434 l 1,37,-1
 369 434 l 1,38,-1
 244 106 l 1,39,-1
 408 106 l 1,40,-1
 408 0 l 1,41,-1
 -12 0 l 1,15,-1
EndSplineSet
Ligature: 0 0 'liga' A uni030A
EndChar
StartChar: AE
Encoding: 198 198 144
Width: 2050
Flags: W
Fore
426 541 m 1,0,-1
 915 541 l 1,1,-1
 915 1386 l 1,2,-1
 815 1386 l 1,3,-1
 426 541 l 1,0,-1
725 0 m 1,4,-1
 725 106 l 1,5,-1
 915 106 l 1,6,-1
 915 434 l 1,7,-1
 377 434 l 1,8,-1
 225 106 l 1,9,-1
 389 106 l 1,10,-1
 389 0 l 1,11,-1
 -35 0 l 1,12,-1
 -35 106 l 1,13,-1
 96 106 l 1,14,-1
 686 1386 l 1,15,-1
 471 1386 l 1,16,-1
 471 1493 l 1,17,-1
 1927 1493 l 1,18,-1
 1927 1161 l 1,19,-1
 1804 1161 l 1,20,-1
 1804 1370 l 1,21,-1
 1116 1370 l 1,22,-1
 1116 870 l 1,23,-1
 1608 870 l 1,24,-1
 1608 1057 l 1,25,-1
 1731 1057 l 1,26,-1
 1731 561 l 1,27,-1
 1608 561 l 1,28,-1
 1608 748 l 1,29,-1
 1116 748 l 1,30,-1
 1116 123 l 1,31,-1
 1821 123 l 1,32,-1
 1821 332 l 1,33,-1
 1944 332 l 1,34,-1
 1944 0 l 1,35,-1
 725 0 l 1,4,-1
EndSplineSet
KernsSLIF: 45 38 0 0
EndChar
StartChar: Eth
Encoding: 208 208 232
Width: 1653
Flags: W
Fore
514 106 m 1,0,-1
 702 106 l 2,1,2
 993 106 993 106 1149 272 c 128,-1,3
 1305 438 1305 438 1305 748 c 0,4,5
 1305 1058 1305 1058 1149.5 1222 c 128,-1,6
 994 1386 994 1386 702 1386 c 2,7,-1
 514 1386 l 1,8,-1
 514 844 l 1,9,-1
 850 844 l 1,10,-1
 850 719 l 1,11,-1
 514 719 l 1,12,-1
 514 106 l 1,0,-1
123 0 m 1,13,-1
 123 106 l 1,14,-1
 313 106 l 1,15,-1
 313 719 l 1,16,-1
 113 719 l 1,17,-1
 113 844 l 1,18,-1
 313 844 l 1,19,-1
 313 1386 l 1,20,-1
 123 1386 l 1,21,-1
 123 1493 l 1,22,-1
 717 1493 l 2,23,24
 1103 1493 1103 1493 1318.5 1296 c 128,-1,25
 1534 1099 1534 1099 1534 748 c 0,26,27
 1534 396 1534 396 1318 198 c 128,-1,28
 1102 0 1102 0 717 0 c 2,29,-1
 123 0 l 1,13,-1
EndSplineSet
KernsSLIF: 221 -36 0 0 193 -36 0 0 194 -36 0 0 376 -36 0 0 195 -36 0 0 192 -36 0 0 196 -36 0 0 89 -36 0 0 86 -36 0 0 65 -36 0 0 46 -73 0 0 45 75 0 0 44 -73 0 0
EndChar
StartChar: multiply
Encoding: 215 215 239
Width: 1716
Flags: W
Fore
1434 1104 m 1,0,-1
 971 641 l 1,1,-1
 1434 180 l 1,2,-1
 1319 68 l 1,3,-1
 858 528 l 1,4,-1
 397 68 l 1,5,-1
 283 180 l 1,6,-1
 743 641 l 1,7,-1
 283 1104 l 1,8,-1
 397 1217 l 1,9,-1
 858 756 l 1,10,-1
 1319 1217 l 1,11,-1
 1434 1104 l 1,0,-1
EndSplineSet
EndChar
StartChar: Oslash
Encoding: 216 216 145
Width: 1679
Flags: W
Fore
1214 1239 m 1,0,1
 1149 1327 1149 1327 1056.5 1370 c 128,-1,2
 964 1413 964 1413 840 1413 c 0,3,4
 594 1413 594 1413 469 1244.5 c 128,-1,5
 344 1076 344 1076 344 745 c 0,6,7
 344 626 344 626 360 529.5 c 128,-1,8
 376 433 376 433 410 352 c 1,9,-1
 1214 1239 l 1,0,1
463 256 m 1,10,11
 527 167 527 167 621 122.5 c 128,-1,12
 715 78 715 78 840 78 c 0,13,14
 1085 78 1085 78 1210 246.5 c 128,-1,15
 1335 415 1335 415 1335 745 c 0,16,17
 1335 862 1335 862 1318.5 960.5 c 128,-1,18
 1302 1059 1302 1059 1268 1141 c 1,19,-1
 463 256 l 1,10,11
1391 1276 m 1,20,21
 1478 1168 1478 1168 1521.5 1036.5 c 128,-1,22
 1565 905 1565 905 1565 745 c 0,23,24
 1565 400 1565 400 1364.5 185.5 c 128,-1,25
 1164 -29 1164 -29 840 -29 c 0,26,27
 699 -29 699 -29 580 14 c 128,-1,28
 461 57 461 57 360 143 c 1,29,-1
 178 -57 l 1,30,-1
 100 12 l 1,31,-1
 287 219 l 1,32,33
 200 324 200 324 157.5 454.5 c 128,-1,34
 115 585 115 585 115 745 c 0,35,36
 115 1091 115 1091 316 1305.5 c 128,-1,37
 517 1520 517 1520 840 1520 c 0,38,39
 981 1520 981 1520 1101 1477.5 c 128,-1,40
 1221 1435 1221 1435 1317 1352 c 1,41,-1
 1495 1550 l 1,42,-1
 1575 1479 l 1,43,-1
 1391 1276 l 1,20,21
EndSplineSet
KernsSLIF: 88 -36 0 0 86 -36 0 0 46 -120 0 0 45 75 0 0 44 -120 0 0
EndChar
StartChar: Thorn
Encoding: 222 222 236
Width: 1384
Flags: W
Fore
506 434 m 1,0,-1
 770 434 l 2,1,2
 919 434 919 434 997 514.5 c 128,-1,3
 1075 595 1075 595 1075 748 c 0,4,5
 1075 900 1075 900 997 980.5 c 128,-1,6
 919 1061 919 1061 770 1061 c 2,7,-1
 506 1061 l 1,8,-1
 506 434 l 1,0,-1
113 0 m 1,9,-1
 113 106 l 1,10,-1
 303 106 l 1,11,-1
 303 1386 l 1,12,-1
 113 1386 l 1,13,-1
 113 1493 l 1,14,-1
 737 1493 l 1,15,-1
 737 1386 l 1,16,-1
 506 1386 l 1,17,-1
 506 1167 l 1,18,-1
 819 1167 l 2,19,20
 1043 1167 1043 1167 1174 1053.5 c 128,-1,21
 1305 940 1305 940 1305 748 c 0,22,23
 1305 554 1305 554 1173.5 440 c 128,-1,24
 1042 326 1042 326 819 326 c 2,25,-1
 506 326 l 1,26,-1
 506 106 l 1,27,-1
 737 106 l 1,28,-1
 737 0 l 1,29,-1
 113 0 l 1,9,-1
EndSplineSet
KernsSLIF: 46 -339 0 0 45 38 0 0 44 -339 0 0
EndChar
StartChar: germandbls
Encoding: 223 223 137
Width: 1368
Flags: W
Fore
940 1210 m 1,0,1
 932 1329 932 1329 862.5 1393.5 c 128,-1,2
 793 1458 793 1458 674 1458 c 0,3,4
 542 1458 542 1458 481 1393.5 c 128,-1,5
 420 1329 420 1329 420 1190 c 2,6,-1
 420 0 l 1,7,-1
 59 0 l 1,8,-1
 59 106 l 1,9,-1
 236 106 l 1,10,-1
 236 1186 l 2,11,12
 236 1362 236 1362 350.5 1459 c 128,-1,13
 465 1556 465 1556 674 1556 c 0,14,15
 887 1556 887 1556 998.5 1452 c 128,-1,16
 1110 1348 1110 1348 1122 1137 c 1,17,-1
 1100 1137 l 2,18,19
 955 1137 955 1137 871.5 1083 c 128,-1,20
 788 1029 788 1029 788 936 c 0,21,22
 788 884 788 884 815 845.5 c 128,-1,23
 842 807 842 807 915 760 c 1,24,-1
 1004 705 l 1,25,26
 1159 606 1159 606 1218.5 521 c 128,-1,27
 1278 436 1278 436 1278 322 c 0,28,29
 1278 167 1278 167 1162.5 69 c 128,-1,30
 1047 -29 1047 -29 862 -29 c 0,31,32
 777 -29 777 -29 693 -10.5 c 128,-1,33
 609 8 609 8 530 43 c 1,34,-1
 530 276 l 1,35,-1
 639 276 l 1,36,37
 643 175 643 175 698.5 122.5 c 128,-1,38
 754 70 754 70 856 70 c 0,39,40
 967 70 967 70 1030.5 130.5 c 128,-1,41
 1094 191 1094 191 1094 295 c 0,42,43
 1094 379 1094 379 1054 437.5 c 128,-1,44
 1014 496 1014 496 897 569 c 2,45,-1
 811 623 l 2,46,47
 707 688 707 688 662.5 752.5 c 128,-1,48
 618 817 618 817 618 899 c 0,49,50
 618 1021 618 1021 702.5 1103 c 128,-1,51
 787 1185 787 1185 940 1210 c 1,0,1
EndSplineSet
EndChar
StartChar: ae
Encoding: 230 230 160
Width: 1925
Flags: W
Fore
815 334 m 2,0,-1
 815 559 l 1,1,-1
 578 559 l 2,2,3
 441 559 441 559 374 500 c 128,-1,4
 307 441 307 441 307 319 c 0,5,6
 307 208 307 208 375 143 c 128,-1,7
 443 78 443 78 559 78 c 0,8,9
 674 78 674 78 744.5 149 c 128,-1,10
 815 220 815 220 815 334 c 2,0,-1
924 150 m 1,11,12
 841 59 841 59 740 15 c 128,-1,13
 639 -29 639 -29 514 -29 c 0,14,15
 317 -29 317 -29 209.5 62 c 128,-1,16
 102 153 102 153 102 319 c 0,17,18
 102 484 102 484 221.5 575 c 128,-1,19
 341 666 341 666 557 666 c 2,20,-1
 815 666 l 1,21,-1
 815 739 l 2,22,23
 815 859 815 859 743 926 c 128,-1,24
 671 993 671 993 543 993 c 0,25,26
 427 993 427 993 361 943.5 c 128,-1,27
 295 894 295 894 279 795 c 1,28,-1
 184 795 l 1,29,-1
 184 1010 l 1,30,31
 280 1051 280 1051 370.5 1071.5 c 128,-1,32
 461 1092 461 1092 547 1092 c 0,33,34
 688 1092 688 1092 784.5 1048.5 c 128,-1,35
 881 1005 881 1005 936 915 c 1,36,37
 1010 1003 1010 1003 1106 1047.5 c 128,-1,38
 1202 1092 1202 1092 1319 1092 c 0,39,40
 1560 1092 1560 1092 1689 943 c 128,-1,41
 1818 794 1818 794 1822 512 c 1,42,-1
 1030 512 l 1,43,-1
 1030 504 l 2,44,45
 1030 289 1030 289 1110.5 179.5 c 128,-1,46
 1191 70 1191 70 1350 70 c 0,47,48
 1471 70 1471 70 1548.5 133.5 c 128,-1,49
 1626 197 1626 197 1657 322 c 1,50,-1
 1804 322 l 1,51,52
 1761 147 1761 147 1642 59 c 128,-1,53
 1523 -29 1523 -29 1331 -29 c 0,54,55
 1209 -29 1209 -29 1105.5 16.5 c 128,-1,56
 1002 62 1002 62 924 150 c 1,11,12
1606 618 m 1,57,58
 1600 804 1600 804 1527.5 898.5 c 128,-1,59
 1455 993 1455 993 1319 993 c 0,60,61
 1192 993 1192 993 1118.5 898 c 128,-1,62
 1045 803 1045 803 1030 618 c 1,63,-1
 1606 618 l 1,57,58
EndSplineSet
EndChar
StartChar: eth
Encoding: 240 240 233
Width: 1233
Flags: W
Fore
821 928 m 1,0,1
 776 937 776 937 735.5 941.5 c 128,-1,2
 695 946 695 946 655 946 c 0,3,4
 482 946 482 946 399.5 839 c 128,-1,5
 317 732 317 732 317 508 c 0,6,7
 317 298 317 298 395.5 184 c 128,-1,8
 474 70 474 70 616 70 c 0,9,10
 760 70 760 70 837.5 184.5 c 128,-1,11
 915 299 915 299 915 512 c 0,12,13
 915 624 915 624 891.5 729.5 c 128,-1,14
 868 835 868 835 821 928 c 1,0,1
760 1307 m 1,15,16
 943 1140 943 1140 1036.5 944.5 c 128,-1,17
 1130 749 1130 749 1130 532 c 0,18,19
 1130 278 1130 278 989.5 124.5 c 128,-1,20
 849 -29 849 -29 616 -29 c 0,21,22
 387 -29 387 -29 244.5 122.5 c 128,-1,23
 102 274 102 274 102 518 c 0,24,25
 102 754 102 754 243 899 c 128,-1,26
 384 1044 384 1044 612 1044 c 0,27,28
 647 1044 647 1044 684.5 1041 c 128,-1,29
 722 1038 722 1038 774 1030 c 1,30,31
 752 1083 752 1083 715.5 1136.5 c 128,-1,32
 679 1190 679 1190 629 1245 c 1,33,-1
 307 1096 l 1,34,-1
 270 1174 l 1,35,-1
 563 1309 l 1,36,37
 502 1367 502 1367 423.5 1407.5 c 128,-1,38
 345 1448 345 1448 250 1470 c 1,39,-1
 268 1556 l 1,40,41
 387 1530 387 1530 491.5 1483 c 128,-1,42
 596 1436 596 1436 688 1368 c 1,43,-1
 1010 1518 l 1,44,-1
 1047 1440 l 1,45,-1
 760 1307 l 1,15,16
EndSplineSet
KernsSLIF: 46 -36 0 0
EndChar
StartChar: divide
Encoding: 247 247 184
Width: 1716
Flags: W
Fore
725 1012 m 0,0,1
 725 1068 725 1068 763.5 1106.5 c 128,-1,2
 802 1145 802 1145 858 1145 c 0,3,4
 913 1145 913 1145 952 1106 c 128,-1,5
 991 1067 991 1067 991 1012 c 0,6,7
 991 956 991 956 952 917.5 c 128,-1,8
 913 879 913 879 858 879 c 0,9,10
 801 879 801 879 763 917 c 128,-1,11
 725 955 725 955 725 1012 c 0,0,1
725 272 m 0,12,13
 725 328 725 328 763.5 367 c 128,-1,14
 802 406 802 406 858 406 c 0,15,16
 913 406 913 406 952 367 c 128,-1,17
 991 328 991 328 991 272 c 0,18,19
 991 217 991 217 952 178 c 128,-1,20
 913 139 913 139 858 139 c 0,21,22
 801 139 801 139 763 177.5 c 128,-1,23
 725 216 725 216 725 272 c 0,12,13
217 723 m 1,24,-1
 1499 723 l 1,25,-1
 1499 561 l 1,26,-1
 217 561 l 1,27,-1
 217 723 l 1,24,-1
EndSplineSet
EndChar
StartChar: oslash
Encoding: 248 248 161
Width: 1233
Flags: W
Fore
840 879 m 1,0,1
 802 936 802 936 746 964.5 c 128,-1,2
 690 993 690 993 616 993 c 0,3,4
 469 993 469 993 393 876 c 128,-1,5
 317 759 317 759 317 532 c 0,6,7
 317 460 317 460 324.5 401 c 128,-1,8
 332 342 332 342 346 293 c 1,9,-1
 840 879 l 1,0,1
391 190 m 1,10,11
 431 129 431 129 486.5 99.5 c 128,-1,12
 542 70 542 70 616 70 c 0,13,14
 763 70 763 70 839 187.5 c 128,-1,15
 915 305 915 305 915 532 c 0,16,17
 915 608 915 608 907.5 668.5 c 128,-1,18
 900 729 900 729 885 780 c 1,19,-1
 391 190 l 1,10,11
1004 922 m 1,20,21
 1066 848 1066 848 1098 749 c 128,-1,22
 1130 650 1130 650 1130 532 c 0,23,24
 1130 278 1130 278 989.5 124.5 c 128,-1,25
 849 -29 849 -29 616 -29 c 0,26,27
 522 -29 522 -29 442 -2.5 c 128,-1,28
 362 24 362 24 295 78 c 1,29,-1
 152 -94 l 1,30,-1
 76 -31 l 1,31,-1
 225 147 l 1,32,33
 164 224 164 224 133 320.5 c 128,-1,34
 102 417 102 417 102 532 c 0,35,36
 102 786 102 786 242.5 939 c 128,-1,37
 383 1092 383 1092 616 1092 c 0,38,39
 710 1092 710 1092 790 1066.5 c 128,-1,40
 870 1041 870 1041 934 991 c 1,41,-1
 1073 1157 l 1,42,-1
 1149 1094 l 1,43,-1
 1004 922 l 1,20,21
EndSplineSet
KernsSLIF: 46 -36 0 0
EndChar
StartChar: thorn
Encoding: 254 254 237
Width: 1311
Flags: W
Fore
420 584 m 2,0,-1
 420 479 l 2,1,2
 420 287 420 287 493.5 186.5 c 128,-1,3
 567 86 567 86 707 86 c 0,4,5
 848 86 848 86 920.5 199 c 128,-1,6
 993 312 993 312 993 532 c 0,7,8
 993 753 993 753 920.5 865 c 128,-1,9
 848 977 848 977 707 977 c 0,10,11
 567 977 567 977 493.5 876 c 128,-1,12
 420 775 420 775 420 584 c 2,0,-1
236 1450 m 1,13,-1
 59 1450 l 1,14,-1
 59 1556 l 1,15,-1
 420 1556 l 1,16,-1
 420 897 l 1,17,18
 474 997 474 997 557.5 1044.5 c 128,-1,19
 641 1092 641 1092 764 1092 c 0,20,21
 960 1092 960 1092 1084 937 c 128,-1,22
 1208 782 1208 782 1208 532 c 0,23,24
 1208 282 1208 282 1084 126.5 c 128,-1,25
 960 -29 960 -29 764 -29 c 0,26,27
 641 -29 641 -29 557.5 18.5 c 128,-1,28
 474 66 474 66 420 166 c 1,29,-1
 420 -319 l 1,30,-1
 594 -319 l 1,31,-1
 594 -426 l 1,32,-1
 59 -426 l 1,33,-1
 59 -319 l 1,34,-1
 236 -319 l 1,35,-1
 236 1450 l 1,13,-1
EndSplineSet
KernsSLIF: 46 -102 0 0 44 -36 0 0
EndChar
StartChar: Dcroat
Encoding: 272 272 257
Width: 1653
Flags: HW
Fore
514 106 m 1,0,-1
 702 106 l 2,1,2
 993 106 993 106 1149 272 c 128,-1,3
 1305 438 1305 438 1305 748 c 0,4,5
 1305 1058 1305 1058 1149.5 1222 c 128,-1,6
 994 1386 994 1386 702 1386 c 2,7,-1
 514 1386 l 1,8,-1
 514 844 l 1,9,-1
 850 844 l 1,10,-1
 850 719 l 1,11,-1
 514 719 l 1,12,-1
 514 106 l 1,0,-1
123 0 m 1,13,-1
 123 106 l 1,14,-1
 313 106 l 1,15,-1
 313 719 l 1,16,-1
 113 719 l 1,17,-1
 113 844 l 1,18,-1
 313 844 l 1,19,-1
 313 1386 l 1,20,-1
 123 1386 l 1,21,-1
 123 1493 l 1,22,-1
 717 1493 l 2,23,24
 1103 1493 1103 1493 1318.5 1296 c 128,-1,25
 1534 1099 1534 1099 1534 748 c 0,26,27
 1534 396 1534 396 1318 198 c 128,-1,28
 1102 0 1102 0 717 0 c 2,29,-1
 123 0 l 1,13,-1
EndSplineSet
EndChar
StartChar: dcroat
Encoding: 273 273 255
Width: 1311
Flags: W
Fore
1075 106 m 1,0,-1
 1251 106 l 1,1,-1
 1251 0 l 1,2,-1
 891 0 l 1,3,-1
 891 166 l 1,4,5
 837 66 837 66 753.5 18.5 c 128,-1,6
 670 -29 670 -29 547 -29 c 0,7,8
 351 -29 351 -29 226.5 126.5 c 128,-1,9
 102 282 102 282 102 532 c 0,10,11
 102 782 102 782 226 937 c 128,-1,12
 350 1092 350 1092 547 1092 c 0,13,14
 670 1092 670 1092 753.5 1044.5 c 128,-1,15
 837 997 837 997 891 897 c 1,16,-1
 891 1227 l 1,17,-1
 565 1227 l 1,18,-1
 565 1333 l 1,19,-1
 891 1333 l 1,20,-1
 891 1450 l 1,21,-1
 717 1450 l 1,22,-1
 717 1556 l 1,23,-1
 1075 1556 l 1,24,-1
 1075 1333 l 1,25,-1
 1251 1333 l 1,26,-1
 1251 1227 l 1,27,-1
 1075 1227 l 1,28,-1
 1075 106 l 1,0,-1
891 479 m 2,29,-1
 891 584 l 2,30,31
 891 775 891 775 817.5 876 c 128,-1,32
 744 977 744 977 604 977 c 0,33,34
 462 977 462 977 389.5 865 c 128,-1,35
 317 753 317 753 317 532 c 0,36,37
 317 312 317 312 389.5 199 c 128,-1,38
 462 86 462 86 604 86 c 0,39,40
 744 86 744 86 817.5 186.5 c 128,-1,41
 891 287 891 287 891 479 c 2,29,-1
EndSplineSet
EndChar
StartChar: dotlessi
Encoding: 305 305 214
Width: 655
Flags: W
Fore
434 106 m 1,0,-1
 608 106 l 1,1,-1
 608 0 l 1,2,-1
 74 0 l 1,3,-1
 74 106 l 1,4,-1
 250 106 l 1,5,-1
 250 956 l 1,6,-1
 74 956 l 1,7,-1
 74 1063 l 1,8,-1
 434 1063 l 1,9,-1
 434 106 l 1,0,-1
EndSplineSet
EndChar
StartChar: Lslash
Encoding: 321 321 225
Width: 1370
Flags: W
Fore
123 0 m 1,0,-1
 123 106 l 1,1,-1
 313 106 l 1,2,-1
 313 586 l 1,3,-1
 156 473 l 1,4,-1
 86 565 l 1,5,-1
 313 727 l 1,6,-1
 313 1386 l 1,7,-1
 123 1386 l 1,8,-1
 123 1493 l 1,9,-1
 705 1493 l 1,10,-1
 705 1386 l 1,11,-1
 514 1386 l 1,12,-1
 514 870 l 1,13,-1
 821 1096 l 1,14,-1
 891 1004 l 1,15,-1
 514 729 l 1,16,-1
 514 123 l 1,17,-1
 1198 123 l 1,18,-1
 1198 373 l 1,19,-1
 1321 373 l 1,20,-1
 1321 0 l 1,21,-1
 123 0 l 1,0,-1
EndSplineSet
KernsSLIF: 366 -36 0 0 356 -167 0 0 253 -36 0 0 221 -206 0 0 217 -36 0 0 219 -36 0 0 218 -36 0 0 376 -206 0 0 255 -36 0 0 8217 -491 0 0 8221 -491 0 0 220 -36 0 0 121 -36 0 0 89 -206 0 0 87 -178 0 0 86 -243 0 0 85 -36 0 0 84 -167 0 0
EndChar
StartChar: lslash
Encoding: 322 322 226
Width: 664
Flags: W
Fore
428 106 m 1,0,-1
 604 106 l 1,1,-1
 604 0 l 1,2,-1
 70 0 l 1,3,-1
 70 106 l 1,4,-1
 244 106 l 1,5,-1
 244 680 l 1,6,-1
 106 584 l 1,7,-1
 45 670 l 1,8,-1
 244 811 l 1,9,-1
 244 1450 l 1,10,-1
 70 1450 l 1,11,-1
 70 1556 l 1,12,-1
 428 1556 l 1,13,-1
 428 940 l 1,14,-1
 575 1038 l 1,15,-1
 635 952 l 1,16,-1
 428 811 l 1,17,-1
 428 106 l 1,0,-1
EndSplineSet
EndChar
StartChar: OE
Encoding: 338 338 176
Width: 2329
Flags: W
Fore
1137 106 m 1,0,-1
 1137 1386 l 1,1,-1
 950 1386 l 2,2,3
 658 1386 658 1386 503 1222 c 128,-1,4
 348 1058 348 1058 348 750 c 0,5,6
 348 439 348 439 503.5 272.5 c 128,-1,7
 659 106 659 106 950 106 c 2,8,-1
 1137 106 l 1,0,-1
2165 0 m 1,9,-1
 936 0 l 2,10,11
 551 0 551 0 335 198 c 128,-1,12
 119 396 119 396 119 750 c 0,13,14
 119 1101 119 1101 334.5 1297 c 128,-1,15
 550 1493 550 1493 936 1493 c 2,16,-1
 2148 1493 l 1,17,-1
 2148 1161 l 1,18,-1
 2025 1161 l 1,19,-1
 2025 1370 l 1,20,-1
 1339 1370 l 1,21,-1
 1339 870 l 1,22,-1
 1831 870 l 1,23,-1
 1831 1057 l 1,24,-1
 1952 1057 l 1,25,-1
 1952 561 l 1,26,-1
 1831 561 l 1,27,-1
 1831 748 l 1,28,-1
 1339 748 l 1,29,-1
 1339 123 l 1,30,-1
 2042 123 l 1,31,-1
 2042 332 l 1,32,-1
 2165 332 l 1,33,-1
 2165 0 l 1,9,-1
EndSplineSet
KernsSLIF: 45 38 0 0
EndChar
StartChar: oe
Encoding: 339 339 177
Width: 2025
Flags: W
Fore
616 70 m 0,0,1
 764 70 764 70 839.5 187 c 128,-1,2
 915 304 915 304 915 532 c 0,3,4
 915 760 915 760 839.5 876.5 c 128,-1,5
 764 993 764 993 616 993 c 0,6,7
 468 993 468 993 392.5 876.5 c 128,-1,8
 317 760 317 760 317 532 c 0,9,10
 317 304 317 304 393 187 c 128,-1,11
 469 70 469 70 616 70 c 0,0,1
1923 512 m 1,12,-1
 1130 512 l 1,13,-1
 1130 504 l 2,14,15
 1130 289 1130 289 1211 179.5 c 128,-1,16
 1292 70 1292 70 1450 70 c 0,17,18
 1571 70 1571 70 1648.5 133.5 c 128,-1,19
 1726 197 1726 197 1757 322 c 1,20,-1
 1905 322 l 1,21,22
 1861 147 1861 147 1742.5 59 c 128,-1,23
 1624 -29 1624 -29 1432 -29 c 0,24,25
 1302 -29 1302 -29 1198.5 20 c 128,-1,26
 1095 69 1095 69 1022 166 c 1,27,28
 953 70 953 70 849.5 20.5 c 128,-1,29
 746 -29 746 -29 616 -29 c 0,30,31
 384 -29 384 -29 243 124.5 c 128,-1,32
 102 278 102 278 102 532 c 0,33,34
 102 786 102 786 242.5 939 c 128,-1,35
 383 1092 383 1092 616 1092 c 0,36,37
 748 1092 748 1092 851 1042.5 c 128,-1,38
 954 993 954 993 1024 897 c 1,39,40
 1097 993 1097 993 1197 1042.5 c 128,-1,41
 1297 1092 1297 1092 1419 1092 c 0,42,43
 1661 1092 1661 1092 1789.5 943.5 c 128,-1,44
 1918 795 1918 795 1923 512 c 1,12,-1
1706 618 m 1,45,46
 1700 804 1700 804 1627.5 898.5 c 128,-1,47
 1555 993 1555 993 1419 993 c 0,48,49
 1292 993 1292 993 1219 898 c 128,-1,50
 1146 803 1146 803 1130 618 c 1,51,-1
 1706 618 l 1,45,46
EndSplineSet
EndChar
StartChar: florin
Encoding: 402 402 166
Width: 1303
Flags: W
Fore
616 1135 m 1,0,1
 639 1321 639 1321 739.5 1420.5 c 128,-1,2
 840 1520 840 1520 1006 1520 c 0,3,4
 1057 1520 1057 1520 1116 1508.5 c 128,-1,5
 1175 1497 1175 1497 1245 1475 c 1,6,-1
 1245 1253 l 1,7,-1
 1147 1253 l 1,8,9
 1141 1339 1141 1339 1103.5 1380 c 128,-1,10
 1066 1421 1066 1421 993 1421 c 0,11,12
 913 1421 913 1421 869.5 1351.5 c 128,-1,13
 826 1282 826 1282 805 1112 c 1,14,-1
 770 821 l 1,15,-1
 1075 821 l 1,16,-1
 1075 715 l 1,17,-1
 756 715 l 1,18,-1
 664 -47 l 1,19,20
 641 -233 641 -233 539.5 -332.5 c 128,-1,21
 438 -432 438 -432 272 -432 c 0,22,23
 222 -432 222 -432 164 -421 c 128,-1,24
 106 -410 106 -410 35 -387 c 1,25,-1
 35 -166 l 1,26,-1
 133 -166 l 1,27,28
 139 -252 139 -252 176 -293 c 128,-1,29
 213 -334 213 -334 285 -334 c 0,30,31
 365 -334 365 -334 408.5 -264 c 128,-1,32
 452 -194 452 -194 473 -25 c 2,33,-1
 565 715 l 1,34,-1
 313 715 l 1,35,-1
 313 821 l 1,36,-1
 578 821 l 1,37,-1
 616 1135 l 1,0,1
EndSplineSet
EndChar
StartChar: uni0237
Encoding: 567 567 173
Width: 635
Flags: W
HStem: -455 99<58 92> 956 107<76 250>
VStem: 250 184<-104 956>
Fore
250 956 m 1,0,-1
 76 956 l 1,1,-1
 76 1063 l 1,2,-1
 434 1063 l 1,3,-1
 434 -104 l 2,4,5
 434 -268 434 -268 336.5 -361.5 c 128,-1,6
 239 -455 239 -455 68 -455 c 0,7,8
 -4 -455 -4 -455 -69.5 -438.5 c 128,-1,9
 -135 -422 -135 -422 -197 -389 c 1,10,-1
 -197 -170 l 1,11,-1
 -102 -170 l 1,12,13
 -95 -266 -95 -266 -52.5 -311 c 128,-1,14
 -10 -356 -10 -356 72 -356 c 0,15,16
 163 -356 163 -356 206.5 -294.5 c 128,-1,17
 250 -233 250 -233 250 -104 c 2,18,-1
 250 956 l 1,0,-1
EndSplineSet
EndChar
StartChar: uni02BB
Encoding: 699 699 173
Width: 651
Flags: W
Fore
549 1440 m 1,0,1
 472 1376 472 1376 437.5 1291 c 128,-1,2
 403 1206 403 1206 403 1077 c 2,3,-1
 403 1014 l 1,4,-1
 209 1014 l 1,5,6
 210 1188 210 1188 272.5 1308.5 c 128,-1,7
 335 1429 335 1429 471 1520 c 1,8,-1
 549 1440 l 1,0,1
EndSplineSet
KernsSLIF: 193 -264 0 0 194 -264 0 0 195 -264 0 0 192 -264 0 0 198 -225 0 0 196 -264 0 0 74 47 0 0 65 -264 0 0
EndChar
StartChar: circumflex
Encoding: 710 710 215
Width: 1024
Flags: W
Fore
428 1638 m 1,0,-1
 596 1638 l 1,1,-1
 831 1262 l 1,2,-1
 715 1262 l 1,3,-1
 512 1522 l 1,4,-1
 309 1262 l 1,5,-1
 193 1262 l 1,6,-1
 428 1638 l 1,0,-1
EndSplineSet
EndChar
StartChar: caron
Encoding: 711 711 224
Width: 1024
Flags: W
Fore
428 1262 m 1,0,-1
 193 1638 l 1,1,-1
 309 1638 l 1,2,-1
 512 1378 l 1,3,-1
 715 1638 l 1,4,-1
 831 1638 l 1,5,-1
 596 1262 l 1,6,-1
 428 1262 l 1,0,-1
EndSplineSet
EndChar
StartChar: breve
Encoding: 728 728 218
Width: 1024
Flags: W
Fore
199 1608 m 1,0,-1
 295 1608 l 1,1,2
 308 1529 308 1529 360 1493.5 c 128,-1,3
 412 1458 412 1458 512 1458 c 0,4,5
 612 1458 612 1458 664 1493.5 c 128,-1,6
 716 1529 716 1529 729 1608 c 1,7,-1
 825 1608 l 1,8,9
 815 1465 815 1465 736 1393 c 128,-1,10
 657 1321 657 1321 512 1321 c 0,11,12
 367 1321 367 1321 288 1393 c 128,-1,13
 209 1465 209 1465 199 1608 c 1,0,-1
EndSplineSet
Ligature: 0 1 'liga' space uni0306
EndChar
StartChar: dotaccent
Encoding: 729 729 219
Width: 1024
Flags: W
Fore
512 1569 m 0,0,1
 560 1569 560 1569 594.5 1534.5 c 128,-1,2
 629 1500 629 1500 629 1452 c 0,3,4
 629 1401 629 1401 596 1368 c 128,-1,5
 563 1335 563 1335 512 1335 c 0,6,7
 461 1335 461 1335 428 1368 c 128,-1,8
 395 1401 395 1401 395 1452 c 0,9,10
 395 1500 395 1500 429.5 1534.5 c 128,-1,11
 464 1569 464 1569 512 1569 c 0,0,1
EndSplineSet
Ligature: 0 1 'liga' space uni0307
EndChar
StartChar: ring
Encoding: 730 730 220
Width: 1024
Flags: W
Fore
786 1524 m 0,0,1
 786 1409 786 1409 706.5 1329 c 128,-1,2
 627 1249 627 1249 512 1249 c 0,3,4
 397 1249 397 1249 317.5 1329 c 128,-1,5
 238 1409 238 1409 238 1524 c 0,6,7
 238 1639 238 1639 317.5 1718.5 c 128,-1,8
 397 1798 397 1798 512 1798 c 0,9,10
 627 1798 627 1798 706.5 1718.5 c 128,-1,11
 786 1639 786 1639 786 1524 c 0,0,1
664 1524 m 0,12,13
 664 1587 664 1587 620 1631 c 128,-1,14
 576 1675 576 1675 512 1675 c 0,15,16
 447 1675 447 1675 403.5 1631.5 c 128,-1,17
 360 1588 360 1588 360 1524 c 0,18,19
 360 1459 360 1459 403.5 1415.5 c 128,-1,20
 447 1372 447 1372 512 1372 c 0,21,22
 576 1372 576 1372 620 1416 c 128,-1,23
 664 1460 664 1460 664 1524 c 0,12,13
EndSplineSet
LCarets: 0 65535 '    ' 1 0 
Ligature: 0 1 'liga' space uni030A
EndChar
StartChar: ogonek
Encoding: 731 731 223
Width: 1024
Flags: W
Fore
461 0 m 1,0,-1
 555 0 l 1,1,-1
 554 -2 l 2,2,3
 467 -125 467 -125 467 -172 c 0,4,5
 467 -218 467 -218 500.5 -246 c 128,-1,6
 534 -274 534 -274 590 -274 c 0,7,8
 617 -274 617 -274 646 -267.5 c 128,-1,9
 675 -261 675 -261 705 -248 c 1,10,-1
 704 -375 l 1,11,12
 668 -384 668 -384 634.5 -388.5 c 128,-1,13
 601 -393 601 -393 569 -393 c 0,14,15
 456 -393 456 -393 394 -348.5 c 128,-1,16
 332 -304 332 -304 332 -223 c 0,17,18
 332 -174 332 -174 362 -121.5 c 128,-1,19
 392 -69 392 -69 461 0 c 1,0,-1
EndSplineSet
Ligature: 0 1 'liga' space uni0328
EndChar
StartChar: tilde
Encoding: 732 732 216
Width: 1024
Flags: W
Fore
508 1370 m 1,0,-1
 451 1425 l 2,1,2
 425 1449 425 1449 408.5 1456.5 c 128,-1,3
 392 1464 392 1464 373 1464 c 0,4,5
 331 1464 331 1464 307 1424.5 c 128,-1,6
 283 1385 283 1385 278 1309 c 1,7,-1
 182 1309 l 1,8,9
 184 1444 184 1444 235 1517.5 c 128,-1,10
 286 1591 286 1591 377 1591 c 0,11,12
 415 1591 415 1591 447 1577 c 128,-1,13
 479 1563 479 1563 516 1530 c 1,14,-1
 573 1475 l 2,15,16
 596 1452 596 1452 613 1444 c 128,-1,17
 630 1436 630 1436 651 1436 c 0,18,19
 694 1436 694 1436 718 1476 c 128,-1,20
 742 1516 742 1516 746 1591 c 1,21,-1
 842 1591 l 1,22,23
 840 1456 840 1456 789 1382.5 c 128,-1,24
 738 1309 738 1309 647 1309 c 0,25,26
 609 1309 609 1309 577 1323 c 128,-1,27
 545 1337 545 1337 508 1370 c 1,0,-1
EndSplineSet
Ligature: 0 1 'liga' space tildecomb
EndChar
StartChar: hungarumlaut
Encoding: 733 733 222
Width: 1024
Flags: W
Fore
432 1638 m 1,0,-1
 602 1638 l 1,1,-1
 358 1262 l 1,2,-1
 244 1262 l 1,3,-1
 432 1638 l 1,0,-1
762 1638 m 1,4,-1
 940 1638 l 1,5,-1
 653 1262 l 1,6,-1
 537 1262 l 1,7,-1
 762 1638 l 1,4,-1
EndSplineSet
Ligature: 0 1 'liga' space uni030B
EndChar
StartChar: uni0326
Encoding: 806 806 223
Width: 1024
Flags: HW
Fore
313 -409 m 1,0,1
 389 -367 389 -367 424 -311 c 128,-1,2
 459 -255 459 -255 459 -175 c 2,3,-1
 459 -153 l 1,4,-1
 617 -153 l 1,5,6
 610 -256 610 -256 552 -329 c 128,-1,7
 494 -403 494 -403 377 -457 c 1,8,-1
 313 -409 l 1,0,1
EndSplineSet
EndChar
StartChar: Omega
Encoding: 937 937 159
Width: 1698
Flags: W
Fore
1120 164 m 1,0,-1
 1456 164 l 1,1,-1
 1456 301 l 1,2,-1
 1573 301 l 1,3,-1
 1573 0 l 1,4,-1
 981 0 l 1,5,-1
 981 182 l 1,6,7
 1161 252 1161 252 1253.5 407.5 c 128,-1,8
 1346 563 1346 563 1346 795 c 0,9,10
 1346 1074 1346 1074 1209 1243.5 c 128,-1,11
 1072 1413 1072 1413 850 1413 c 0,12,13
 628 1413 628 1413 491 1243.5 c 128,-1,14
 354 1074 354 1074 354 795 c 0,15,16
 354 562 354 562 446 407 c 128,-1,17
 538 252 538 252 717 182 c 1,18,-1
 717 0 l 1,19,-1
 127 0 l 1,20,-1
 127 301 l 1,21,-1
 244 301 l 1,22,-1
 244 164 l 1,23,-1
 578 164 l 1,24,25
 369 251 369 251 247 427 c 128,-1,26
 125 603 125 603 125 817 c 0,27,28
 125 968 125 968 182.5 1099 c 128,-1,29
 240 1230 240 1230 350 1333 c 0,30,31
 449 1424 449 1424 577 1472 c 128,-1,32
 705 1520 705 1520 850 1520 c 0,33,34
 995 1520 995 1520 1122 1472.5 c 128,-1,35
 1249 1425 1249 1425 1348 1333 c 0,36,37
 1459 1230 1459 1230 1517 1098.5 c 128,-1,38
 1575 967 1575 967 1575 817 c 0,39,40
 1575 604 1575 604 1452.5 427.5 c 128,-1,41
 1330 251 1330 251 1120 164 c 1,0,-1
EndSplineSet
EndChar
StartChar: pi
Encoding: 960 960 155
Width: 1346
Flags: W
Fore
84 0 m 1,0,-1
 84 106 l 1,1,-1
 250 106 l 1,2,-1
 250 956 l 1,3,-1
 74 956 l 1,4,-1
 74 1063 l 1,5,-1
 1272 1063 l 1,6,-1
 1272 956 l 1,7,-1
 1098 956 l 1,8,-1
 1098 106 l 1,9,-1
 1262 106 l 1,10,-1
 1262 0 l 1,11,-1
 754 0 l 1,12,-1
 754 106 l 1,13,-1
 913 106 l 1,14,-1
 913 956 l 1,15,-1
 434 956 l 1,16,-1
 434 106 l 1,17,-1
 594 106 l 1,18,-1
 594 0 l 1,19,-1
 84 0 l 1,0,-1
EndSplineSet
EndChar
StartChar: afii10051
Encoding: 1026 1026 158
Width: 1636
Flags: HW
Fore
1283 463 m 2,0,1
 1283 643 1283 643 1205 696 c 0,2,3
 1085 777 1085 777 898 753 c 0,4,5
 786 739 786 739 696 648 c 0,6,7
 611 562 611 562 611 451 c 2,8,-1
 611 107 l 1,9,-1
 799 107 l 1,10,-1
 799 0 l 1,11,-1
 218 0 l 1,12,-1
 218 107 l 1,13,-1
 408 107 l 1,14,-1
 408 1374 l 1,15,-1
 44 1374 l 1,16,-1
 44 1141 l 1,17,-1
 -79 1141 l 1,18,-1
 -79 1493 l 1,19,-1
 1264 1493 l 1,20,-1
 1264 1141 l 1,21,-1
 1141 1141 l 1,22,-1
 1141 1374 l 1,23,-1
 611 1374 l 1,24,-1
 611 714 l 1,25,26
 668 854 668 854 924 892 c 0,27,28
 1214 935 1214 935 1373 769 c 0,29,30
 1483 655 1483 655 1483 463 c 2,31,-1
 1483 24 l 2,32,33
 1483 -223 1483 -223 1384 -333 c 0,34,35
 1285 -443 1285 -443 1068 -443 c 0,36,37
 997 -443 997 -443 923.5 -426 c 128,-1,38
 850 -409 850 -409 777 -375 c 1,39,-1
 777 -140 l 1,40,-1
 891 -140 l 1,41,42
 894 -239 894 -239 938 -287.5 c 128,-1,43
 982 -336 982 -336 1070 -336 c 0,44,45
 1189 -336 1189 -336 1236 -261 c 0,46,47
 1283 -186 1283 -186 1283 32 c 2,48,-1
 1283 463 l 2,0,1
EndSplineSet
EndChar
StartChar: afii10053
Encoding: 1028 1028 160
Width: 1567
Flags: HW
Fore
345 694 m 1,0,1
 354 404 354 404 467 248 c 0,2,3
 590 78 590 78 829 78 c 0,4,5
 996 78 996 78 1104 157.5 c 128,-1,6
 1212 237 1212 237 1260 395 c 1,7,-1
 1444 395 l 1,8,9
 1378 186 1378 186 1222.5 78.5 c 128,-1,10
 1067 -29 1067 -29 829 -29 c 0,11,12
 683 -29 683 -29 558 21 c 128,-1,13
 433 71 433 71 336 168 c 0,14,15
 224 280 224 280 170 422 c 0,16,17
 115 565 115 565 115 745 c 0,18,19
 115 1093 115 1093 316 1306.5 c 128,-1,20
 517 1520 517 1520 846 1520 c 0,21,22
 968 1520 968 1520 1106 1488 c 128,-1,23
 1244 1456 1244 1456 1403 1391 c 1,24,-1
 1403 1047 l 1,25,-1
 1290 1047 l 1,26,27
 1253 1235 1253 1235 1141.5 1324 c 128,-1,28
 1030 1413 1030 1413 829 1413 c 0,29,30
 590 1413 590 1413 467 1244 c 0,31,32
 358 1093 358 1093 346 816 c 1,33,-1
 942 816 l 1,34,-1
 942 940 l 1,35,-1
 1065 940 l 1,36,-1
 1065 574 l 1,37,-1
 942 574 l 1,38,-1
 942 694 l 1,39,-1
 345 694 l 1,0,1
EndSplineSet
EndChar
StartChar: afii10054
Encoding: 1029 1029 161
Width: 1403
Flags: HW
Fore
190 72 m 1,0,-1
 190 412 l 1,1,-1
 305 411 l 1,2,3
 310 241 310 241 404 160 c 0,4,5
 497 78 497 78 688 78 c 0,6,7
 866 78 866 78 959.5 148.5 c 128,-1,8
 1053 219 1053 219 1053 354 c 0,9,10
 1053 462 1053 462 996.5 520 c 128,-1,11
 940 578 940 578 758 633 c 2,12,-1
 561 692 l 2,13,14
 347 757 347 757 259.5 854 c 128,-1,15
 172 951 172 951 172 1120 c 0,16,17
 172 1310 172 1310 307 1415 c 128,-1,18
 442 1520 442 1520 686 1520 c 0,19,20
 790 1520 790 1520 914 1497.5 c 128,-1,21
 1038 1475 1038 1475 1178 1432 c 1,22,-1
 1178 1114 l 1,23,-1
 1065 1114 l 1,24,25
 1048 1272 1048 1272 959.5 1342.5 c 128,-1,26
 871 1413 871 1413 690 1413 c 0,27,28
 532 1413 532 1413 449.5 1348.5 c 128,-1,29
 367 1284 367 1284 367 1161 c 0,30,31
 367 1054 367 1054 429 993 c 128,-1,32
 491 932 491 932 692 872 c 2,33,-1
 877 817 l 2,34,35
 1080 756 1080 756 1166.5 661.5 c 128,-1,36
 1253 567 1253 567 1253 408 c 0,37,38
 1253 191 1253 191 1114 81 c 0,39,40
 975 -29 975 -29 700 -29 c 0,41,42
 577 -29 577 -29 449.5 -4 c 128,-1,43
 322 21 322 21 190 72 c 1,0,-1
EndSplineSet
EndChar
StartChar: afii10055
Encoding: 1030 1030 162
Width: 809
Flags: HW
Fore
506 106 m 1,0,-1
 696 106 l 1,1,-1
 696 0 l 1,2,-1
 113 0 l 1,3,-1
 113 106 l 1,4,-1
 303 106 l 1,5,-1
 303 1386 l 1,6,-1
 113 1386 l 1,7,-1
 113 1493 l 1,8,-1
 696 1493 l 1,9,-1
 696 1386 l 1,10,-1
 506 1386 l 1,11,-1
 506 106 l 1,0,-1
EndSplineSet
EndChar
StartChar: afii10057
Encoding: 1032 1032 164
Width: 821
Flags: HW
Fore
-172 -358 m 1,0,-1
 -172 -123 l 1,1,-1
 -58 -123 l 1,2,3
 -55 -222 -55 -222 -11 -270.5 c 128,-1,4
 33 -319 33 -319 121 -319 c 0,5,6
 240 -319 240 -319 287 -244 c 128,-1,7
 334 -169 334 -169 334 49 c 2,8,-1
 334 1386 l 1,9,-1
 102 1386 l 1,10,-1
 102 1493 l 1,11,-1
 727 1493 l 1,12,-1
 727 1386 l 1,13,-1
 537 1386 l 1,14,-1
 537 41 l 2,15,16
 537 -206 537 -206 438 -316 c 128,-1,17
 339 -426 339 -426 119 -426 c 0,18,19
 48 -426 48 -426 -25.5 -409 c 128,-1,20
 -99 -392 -99 -392 -172 -358 c 1,0,-1
EndSplineSet
EndChar
StartChar: afii10058
Encoding: 1033 1033 165
Width: 2182
Flags: HW
Fore
983 0 m 1,0,-1
 983 106 l 1,1,-1
 1173 106 l 1,2,-1
 1173 1370 l 1,3,-1
 568 1370 l 1,4,-1
 570 431 l 1,5,6
 571 185 571 185 471 74 c 0,7,8
 372 -36 372 -36 186 -36 c 0,9,10
 147 -36 147 -36 73.5 -19 c 128,-1,11
 0 -2 0 -2 -73 32 c 1,12,-1
 -73 199 l 1,13,-1
 41 199 l 1,14,15
 41 171 41 171 88 120 c 0,16,17
 132 71 132 71 188 71 c 0,18,19
 273 71 273 71 320 146 c 0,20,21
 367 222 367 222 367 439 c 2,22,-1
 367 1386 l 1,23,-1
 177 1386 l 1,24,-1
 177 1493 l 1,25,-1
 1566 1493 l 1,26,-1
 1566 1386 l 1,27,-1
 1376 1386 l 1,28,-1
 1376 870 l 1,29,-1
 1496 870 l 1,30,31
 1839 848 1839 848 1978 710 c 0,32,33
 2077 612 2077 612 2077 432 c 0,34,35
 2077 210 2077 210 1937 105 c 128,-1,36
 1797 0 1797 0 1539 0 c 2,37,-1
 983 0 l 1,0,-1
1427 106 m 1,38,-1
 1541 106 l 2,39,40
 1682 106 1682 106 1765 184 c 128,-1,41
 1848 262 1848 262 1848 432 c 0,42,43
 1848 593 1848 593 1765.5 670.5 c 128,-1,44
 1683 748 1683 748 1541 748 c 2,45,-1
 1376 748 l 1,46,-1
 1376 106 l 1,47,-1
 1427 106 l 1,38,-1
EndSplineSet
EndChar
StartChar: afii10059
Encoding: 1034 1034 166
Width: 2290
Flags: HW
Fore
1090 0 m 1,0,-1
 1090 106 l 1,1,-1
 1280 106 l 1,2,-1
 1280 748 l 1,3,-1
 506 748 l 1,4,-1
 506 106 l 1,5,-1
 696 106 l 1,6,-1
 696 0 l 1,7,-1
 113 0 l 1,8,-1
 113 106 l 1,9,-1
 303 106 l 1,10,-1
 303 1386 l 1,11,-1
 113 1386 l 1,12,-1
 113 1493 l 1,13,-1
 696 1493 l 1,14,-1
 696 1386 l 1,15,-1
 506 1386 l 1,16,-1
 506 870 l 1,17,-1
 1280 870 l 1,18,-1
 1280 1386 l 1,19,-1
 1090 1386 l 1,20,-1
 1090 1493 l 1,21,-1
 1673 1493 l 1,22,-1
 1673 1386 l 1,23,-1
 1483 1386 l 1,24,-1
 1483 870 l 1,25,-1
 1603 870 l 1,26,27
 1946 848 1946 848 2086 710 c 0,28,29
 2184 612 2184 612 2184 432 c 0,30,31
 2184 210 2184 210 2044 105 c 128,-1,32
 1904 0 1904 0 1646 0 c 2,33,-1
 1534 0 l 1,34,-1
 1090 0 l 1,0,-1
1534 106 m 1,35,-1
 1648 106 l 2,36,37
 1789 106 1789 106 1872 184 c 128,-1,38
 1955 262 1955 262 1955 432 c 0,39,40
 1955 593 1955 593 1872.5 670.5 c 128,-1,41
 1790 748 1790 748 1648 748 c 2,42,-1
 1483 748 l 1,43,-1
 1483 106 l 1,44,-1
 1534 106 l 1,35,-1
EndSplineSet
EndChar
StartChar: afii10060
Encoding: 1035 1035 167
Width: 1786
Flags: HW
Fore
1264 1493 m 1,0,-1
 1264 1141 l 1,1,-1
 1141 1141 l 1,2,-1
 1141 1374 l 1,3,-1
 611 1374 l 1,4,-1
 611 714 l 1,5,6
 668 854 668 854 924 892 c 0,7,8
 1214 935 1214 935 1373 769 c 0,9,10
 1483 655 1483 655 1483 463 c 2,11,-1
 1483 107 l 1,12,-1
 1673 107 l 1,13,-1
 1673 0 l 1,14,-1
 1098 0 l 1,15,-1
 1098 107 l 1,16,-1
 1283 107 l 1,17,-1
 1283 463 l 2,18,19
 1283 643 1283 643 1205 696 c 0,20,21
 1087 775 1087 775 898 753 c 0,22,23
 786 739 786 739 696 648 c 0,24,25
 611 562 611 562 611 451 c 2,26,-1
 611 107 l 1,27,-1
 799 107 l 1,28,-1
 799 0 l 1,29,-1
 218 0 l 1,30,-1
 218 107 l 1,31,-1
 408 107 l 1,32,-1
 408 1374 l 1,33,-1
 44 1374 l 1,34,-1
 44 1141 l 1,35,-1
 -79 1141 l 1,36,-1
 -79 1493 l 1,37,-1
 1264 1493 l 1,0,-1
EndSplineSet
EndChar
StartChar: afii10145
Encoding: 1039 1039 171
Width: 1786
Flags: HW
Fore
792 0 m 1,0,-1
 113 0 l 1,1,-1
 113 107 l 1,2,-1
 303 107 l 1,3,-1
 303 1387 l 1,4,-1
 113 1387 l 1,5,-1
 113 1493 l 1,6,-1
 696 1493 l 1,7,-1
 696 1387 l 1,8,-1
 506 1387 l 1,9,-1
 506 123 l 1,10,-1
 1280 123 l 1,11,-1
 1280 1387 l 1,12,-1
 1090 1387 l 1,13,-1
 1090 1493 l 1,14,-1
 1673 1493 l 1,15,-1
 1673 1387 l 1,16,-1
 1483 1387 l 1,17,-1
 1483 107 l 1,18,-1
 1673 107 l 1,19,-1
 1673 0 l 1,20,-1
 994 0 l 1,21,-1
 994 -321 l 1,22,-1
 792 -321 l 1,23,-1
 792 0 l 1,0,-1
EndSplineSet
EndChar
StartChar: afii10017
Encoding: 1040 1040 172
Width: 1479
Flags: HW
Fore
410 541 m 1,0,-1
 958 541 l 1,1,-1
 684 1251 l 1,2,-1
 410 541 l 1,0,-1
-12 0 m 1,3,-1
 -12 106 l 1,4,-1
 119 106 l 1,5,-1
 651 1493 l 1,6,-1
 819 1493 l 1,7,-1
 1352 106 l 1,8,-1
 1499 106 l 1,9,-1
 1499 0 l 1,10,-1
 956 0 l 1,11,-1
 956 106 l 1,12,-1
 1122 106 l 1,13,-1
 997 434 l 1,14,-1
 369 434 l 1,15,-1
 244 106 l 1,16,-1
 408 106 l 1,17,-1
 408 0 l 1,18,-1
 -12 0 l 1,3,-1
EndSplineSet
EndChar
StartChar: afii10018
Encoding: 1041 1041 173
Width: 1505
Flags: HW
Fore
506 106 m 1,0,-1
 805 106 l 2,1,2
 985 106 985 106 1068 184 c 128,-1,3
 1151 262 1151 262 1151 432 c 0,4,5
 1151 601 1151 601 1068.5 678.5 c 128,-1,6
 986 756 986 756 805 756 c 2,7,-1
 506 756 l 1,8,-1
 506 106 l 1,0,-1
113 1493 m 1,9,-1
 1314 1493 l 1,10,-1
 1314 1161 l 1,11,-1
 1191 1161 l 1,12,-1
 1191 1370 l 1,13,-1
 506 1370 l 1,14,-1
 506 862 l 1,15,-1
 760 862 l 2,16,17
 1140 862 1140 862 1282 694 c 1,18,19
 1380 576 1380 576 1380 432 c 0,20,21
 1380 210 1380 210 1240 105 c 128,-1,22
 1100 0 1100 0 803 0 c 2,23,-1
 113 0 l 1,24,-1
 113 106 l 1,25,-1
 303 106 l 1,26,-1
 303 1386 l 1,27,-1
 113 1386 l 1,28,-1
 113 1493 l 1,9,-1
EndSplineSet
EndChar
StartChar: afii10019
Encoding: 1042 1042 174
Width: 1505
Flags: HW
Fore
506 106 m 1,0,-1
 805 106 l 2,1,2
 985 106 985 106 1068 184 c 128,-1,3
 1151 262 1151 262 1151 432 c 0,4,5
 1151 601 1151 601 1068.5 678.5 c 128,-1,6
 986 756 986 756 805 756 c 2,7,-1
 506 756 l 1,8,-1
 506 106 l 1,0,-1
506 862 m 1,9,-1
 760 862 l 2,10,11
 924 862 924 862 999.5 925 c 128,-1,12
 1075 988 1075 988 1075 1124 c 0,13,14
 1075 1261 1075 1261 999.5 1323.5 c 128,-1,15
 924 1386 924 1386 760 1386 c 2,16,-1
 506 1386 l 1,17,-1
 506 862 l 1,9,-1
113 0 m 1,18,-1
 113 106 l 1,19,-1
 303 106 l 1,20,-1
 303 1386 l 1,21,-1
 113 1386 l 1,22,-1
 113 1493 l 1,23,-1
 850 1493 l 2,24,25
 1076 1493 1076 1493 1190.5 1400.5 c 128,-1,26
 1305 1308 1305 1308 1305 1124 c 0,27,28
 1305 991 1305 991 1226 912 c 0,29,30
 1146 833 1146 833 993 815 c 1,31,32
 1183 791 1183 791 1281.5 693.5 c 128,-1,33
 1380 596 1380 596 1380 432 c 0,34,35
 1380 210 1380 210 1240 105 c 128,-1,36
 1100 0 1100 0 803 0 c 2,37,-1
 113 0 l 1,18,-1
EndSplineSet
EndChar
StartChar: afii10020
Encoding: 1043 1043 175
Width: 1421
Flags: HW
Fore
506 106 m 1,0,-1
 745 106 l 1,1,-1
 745 0 l 1,2,-1
 113 0 l 1,3,-1
 113 106 l 1,4,-1
 303 106 l 1,5,-1
 303 1386 l 1,6,-1
 113 1386 l 1,7,-1
 113 1493 l 1,8,-1
 1335 1493 l 1,9,-1
 1335 1161 l 1,10,-1
 1212 1161 l 1,11,-1
 1212 1370 l 1,12,-1
 506 1370 l 1,13,-1
 506 106 l 1,0,-1
EndSplineSet
EndChar
StartChar: afii10021
Encoding: 1044 1044 176
Width: 1786
Flags: HW
Fore
405 0 m 2,0,1
 291.2 -0.000232277 291.2 -0.000232277 267 -198 c 0,2,3
 256 -288 256 -288 256 -420 c 1,4,-1
 82 -420 l 1,5,-1
 82 107 l 1,6,-1
 192 108 l 2,7,8
 391 109.809 391 109.809 391 439 c 2,9,-1
 391 1386 l 1,10,-1
 201 1386 l 1,11,-1
 201 1493 l 1,12,-1
 1566 1493 l 1,13,-1
 1566 1386 l 1,14,-1
 1376 1386 l 1,15,-1
 1376 295 l 1,16,17
 1366 229 1366 229 1417 174 c 0,18,19
 1469.32 117 1469.32 117 1613 107 c 1,20,-1
 1613 -420 l 1,21,-1
 1439 -420 l 1,22,23
 1439 -282 1439 -282 1428 -198 c 0,24,25
 1405.15 0.00106584 1405.15 0.00106584 1290 0 c 2,26,-1
 405 0 l 2,0,1
1173 295 m 1,27,-1
 1173 1370 l 1,28,-1
 568 1370 l 1,29,-1
 570 431 l 1,30,31
 570 274 570 274 526 162 c 0,32,33
 512 127 512 127 521 117 c 0,34,35
 530 107 530 107 564 107 c 2,36,-1
 1032 108 l 2,37,38
 1169 108 1169 108 1173 295 c 1,27,-1
EndSplineSet
EndChar
StartChar: afii10022
Encoding: 1045 1045 177
Width: 1495
Flags: HW
Fore
113 0 m 1,0,-1
 113 106 l 1,1,-1
 303 106 l 1,2,-1
 303 1386 l 1,3,-1
 113 1386 l 1,4,-1
 113 1493 l 1,5,-1
 1315 1493 l 1,6,-1
 1315 1161 l 1,7,-1
 1192 1161 l 1,8,-1
 1192 1370 l 1,9,-1
 506 1370 l 1,10,-1
 506 870 l 1,11,-1
 995 870 l 1,12,-1
 995 1057 l 1,13,-1
 1118 1057 l 1,14,-1
 1118 561 l 1,15,-1
 995 561 l 1,16,-1
 995 748 l 1,17,-1
 506 748 l 1,18,-1
 506 123 l 1,19,-1
 1208 123 l 1,20,-1
 1208 332 l 1,21,-1
 1331 332 l 1,22,-1
 1331 0 l 1,23,-1
 113 0 l 1,0,-1
EndSplineSet
EndChar
StartChar: afii10024
Encoding: 1046 1046 178
Width: 2264
Flags: HW
Fore
1247 709 m 1,0,-1
 1247 106 l 1,1,-1
 1437 106 l 1,2,-1
 1437 0 l 1,3,-1
 854 0 l 1,4,-1
 854 106 l 1,5,-1
 1044 106 l 1,6,-1
 1044 709 l 1,7,-1
 479 0 l 1,8,-1
 132 0 l 1,9,-1
 132 106 l 1,10,-1
 302 106 l 1,11,-1
 876 823 l 1,12,-1
 378 1386 l 1,13,-1
 210 1386 l 1,14,-1
 210 1493 l 1,15,-1
 706 1493 l 1,16,-1
 706 1386 l 1,17,-1
 544 1386 l 1,18,-1
 1044 821 l 1,19,-1
 1044 1386 l 1,20,-1
 854 1386 l 1,21,-1
 854 1493 l 1,22,-1
 1437 1493 l 1,23,-1
 1437 1386 l 1,24,-1
 1247 1386 l 1,25,-1
 1247 821 l 1,26,-1
 1747 1386 l 1,27,-1
 1585 1386 l 1,28,-1
 1585 1493 l 1,29,-1
 2081 1493 l 1,30,-1
 2081 1386 l 1,31,-1
 1913 1386 l 1,32,-1
 1415 823 l 1,33,-1
 1989 106 l 1,34,-1
 2159 106 l 1,35,-1
 2159 0 l 1,36,-1
 1812 0 l 1,37,-1
 1247 709 l 1,0,-1
EndSplineSet
EndChar
StartChar: afii10025
Encoding: 1047 1047 179
Width: 1303
Flags: HW
Fore
199 1430 m 1,0,1
 316 1474 316 1474 423.5 1497 c 128,-1,2
 531 1520 531 1520 625 1520 c 0,3,4
 844 1520 844 1520 967 1425.5 c 128,-1,5
 1090 1331 1090 1331 1090 1163 c 0,6,7
 1090 1028 1090 1028 1005 937.5 c 128,-1,8
 920 847 920 847 764 815 c 1,9,10
 948 789 948 789 1049.5 681.5 c 128,-1,11
 1151 574 1151 574 1151 403 c 0,12,13
 1151 194 1151 194 1010 82 c 0,14,15
 870 -29 870 -29 606 -29 c 0,16,17
 489 -29 489 -29 377.5 -4 c 128,-1,18
 266 21 266 21 156 72 c 1,19,-1
 156 362 l 1,20,-1
 268 362 l 1,21,22
 278 218 278 218 365 144 c 128,-1,23
 452 70 452 70 610 70 c 0,24,25
 763 70 763 70 851.5 158.5 c 128,-1,26
 940 247 940 247 940 401 c 0,27,28
 940 577 940 577 849 667.5 c 128,-1,29
 758 758 758 758 582 758 c 2,30,-1
 487 758 l 1,31,-1
 487 860 l 1,32,-1
 537 860 l 2,33,34
 712 860 712 860 799.5 932.5 c 128,-1,35
 887 1005 887 1005 887 1151 c 0,36,37
 887 1282 887 1282 815 1351.5 c 128,-1,38
 743 1421 743 1421 608 1421 c 128,-1,39
 473 1421 473 1421 398.5 1357 c 128,-1,40
 324 1293 324 1293 311 1167 c 1,41,-1
 199 1167 l 1,42,-1
 199 1430 l 1,0,1
EndSplineSet
EndChar
StartChar: afii10026
Encoding: 1048 1048 180
Width: 1786
Flags: HW
Fore
113 0 m 1,0,-1
 113 106 l 1,1,-1
 303 106 l 1,2,-1
 303 1386 l 1,3,-1
 113 1386 l 1,4,-1
 113 1493 l 1,5,-1
 696 1493 l 1,6,-1
 696 1386 l 1,7,-1
 506 1386 l 1,8,-1
 506 463 l 1,9,-1
 1280 1217 l 1,10,-1
 1280 1386 l 1,11,-1
 1090 1386 l 1,12,-1
 1090 1493 l 1,13,-1
 1673 1493 l 1,14,-1
 1673 1386 l 1,15,-1
 1483 1386 l 1,16,-1
 1483 106 l 1,17,-1
 1673 106 l 1,18,-1
 1673 0 l 1,19,-1
 1090 0 l 1,20,-1
 1090 106 l 1,21,-1
 1280 106 l 1,22,-1
 1280 1029 l 1,23,-1
 506 275 l 1,24,-1
 506 106 l 1,25,-1
 696 106 l 1,26,-1
 696 0 l 1,27,-1
 113 0 l 1,0,-1
EndSplineSet
EndChar
StartChar: afii10028
Encoding: 1050 1050 182
Width: 1530
Flags: HW
Fore
113 0 m 1,0,-1
 113 106 l 1,1,-1
 303 106 l 1,2,-1
 303 1386 l 1,3,-1
 113 1386 l 1,4,-1
 113 1493 l 1,5,-1
 696 1493 l 1,6,-1
 696 1386 l 1,7,-1
 506 1386 l 1,8,-1
 506 821 l 1,9,-1
 1149 1386 l 1,10,-1
 987 1386 l 1,11,-1
 987 1493 l 1,12,-1
 1483 1493 l 1,13,-1
 1483 1386 l 1,14,-1
 1315 1386 l 1,15,-1
 674 823 l 1,16,-1
 1391 106 l 1,17,-1
 1561 106 l 1,18,-1
 1561 0 l 1,19,-1
 1214 0 l 1,20,-1
 506 709 l 1,21,-1
 506 106 l 1,22,-1
 696 106 l 1,23,-1
 696 0 l 1,24,-1
 113 0 l 1,0,-1
EndSplineSet
EndChar
StartChar: afii10029
Encoding: 1051 1051 183
Width: 1786
Flags: HW
Fore
367 1386 m 1,0,-1
 177 1386 l 1,1,-1
 177 1493 l 1,2,-1
 1566 1493 l 1,3,-1
 1566 1386 l 1,4,-1
 1376 1386 l 1,5,-1
 1376 106 l 1,6,-1
 1566 106 l 1,7,-1
 1566 0 l 1,8,-1
 983 0 l 1,9,-1
 983 106 l 1,10,-1
 1173 106 l 1,11,-1
 1173 1370 l 1,12,-1
 568 1370 l 1,13,-1
 570 431 l 1,14,15
 571 185 571 185 471 74 c 0,16,17
 372 -36 372 -36 186 -36 c 0,18,19
 147 -36 147 -36 73.5 -19 c 128,-1,20
 0 -2 0 -2 -73 32 c 1,21,-1
 -73 199 l 1,22,-1
 41 199 l 1,23,24
 41 171 41 171 88 120 c 0,25,26
 132 71 132 71 188 71 c 0,27,28
 273 71 273 71 320 146 c 0,29,30
 367 222 367 222 367 439 c 2,31,-1
 367 1386 l 1,0,-1
EndSplineSet
EndChar
StartChar: afii10030
Encoding: 1052 1052 184
Width: 2097
Flags: HW
Fore
113 0 m 1,0,-1
 113 106 l 1,1,-1
 303 106 l 1,2,-1
 303 1386 l 1,3,-1
 102 1386 l 1,4,-1
 102 1493 l 1,5,-1
 537 1493 l 1,6,-1
 1061 430 l 1,7,-1
 1585 1493 l 1,8,-1
 1993 1493 l 1,9,-1
 1993 1386 l 1,10,-1
 1794 1386 l 1,11,-1
 1794 106 l 1,12,-1
 1985 106 l 1,13,-1
 1985 0 l 1,14,-1
 1401 0 l 1,15,-1
 1401 106 l 1,16,-1
 1591 106 l 1,17,-1
 1591 1260 l 1,18,-1
 1079 219 l 1,19,-1
 938 219 l 1,20,-1
 426 1260 l 1,21,-1
 426 106 l 1,22,-1
 616 106 l 1,23,-1
 616 0 l 1,24,-1
 113 0 l 1,0,-1
EndSplineSet
EndChar
StartChar: afii10031
Encoding: 1053 1053 185
Width: 1786
Flags: HW
Fore
113 0 m 1,0,-1
 113 106 l 1,1,-1
 303 106 l 1,2,-1
 303 1386 l 1,3,-1
 113 1386 l 1,4,-1
 113 1493 l 1,5,-1
 696 1493 l 1,6,-1
 696 1386 l 1,7,-1
 506 1386 l 1,8,-1
 506 870 l 1,9,-1
 1280 870 l 1,10,-1
 1280 1386 l 1,11,-1
 1090 1386 l 1,12,-1
 1090 1493 l 1,13,-1
 1673 1493 l 1,14,-1
 1673 1386 l 1,15,-1
 1483 1386 l 1,16,-1
 1483 106 l 1,17,-1
 1673 106 l 1,18,-1
 1673 0 l 1,19,-1
 1090 0 l 1,20,-1
 1090 106 l 1,21,-1
 1280 106 l 1,22,-1
 1280 748 l 1,23,-1
 506 748 l 1,24,-1
 506 106 l 1,25,-1
 696 106 l 1,26,-1
 696 0 l 1,27,-1
 113 0 l 1,0,-1
EndSplineSet
EndChar
StartChar: afii10032
Encoding: 1054 1054 186
Width: 1679
Flags: HW
Fore
840 78 m 0,0,1
 1085 78 1085 78 1210 246.5 c 128,-1,2
 1335 415 1335 415 1335 745 c 0,3,4
 1335 1076 1335 1076 1210 1244.5 c 128,-1,5
 1085 1413 1085 1413 840 1413 c 0,6,7
 594 1413 594 1413 469 1244.5 c 128,-1,8
 344 1076 344 1076 344 745 c 0,9,10
 344 415 344 415 469 246.5 c 128,-1,11
 594 78 594 78 840 78 c 0,0,1
840 -29 m 0,12,13
 688 -29 688 -29 560.5 21 c 128,-1,14
 433 71 433 71 336 168 c 0,15,16
 224 280 224 280 170 422 c 0,17,18
 115 564 115 564 115 745 c 0,19,20
 115 926 115 926 169.5 1068.5 c 128,-1,21
 224 1211 224 1211 336 1323 c 0,22,23
 434 1421 434 1421 560 1470.5 c 128,-1,24
 686 1520 686 1520 840 1520 c 0,25,26
 1165 1520 1165 1520 1365 1307 c 128,-1,27
 1565 1094 1565 1094 1565 745 c 0,28,29
 1565 566 1565 566 1510 422.5 c 128,-1,30
 1455 279 1455 279 1343 168 c 0,31,32
 1245 70 1245 70 1119 20.5 c 128,-1,33
 993 -29 993 -29 840 -29 c 0,12,13
EndSplineSet
EndChar
StartChar: afii10033
Encoding: 1055 1055 187
Width: 1786
Flags: HW
Fore
1673 1493 m 1,0,-1
 1673 1386 l 1,1,-1
 1483 1386 l 1,2,-1
 1483 106 l 1,3,-1
 1673 106 l 1,4,-1
 1673 0 l 1,5,-1
 1090 0 l 1,6,-1
 1090 106 l 1,7,-1
 1280 106 l 1,8,-1
 1280 1370 l 1,9,-1
 506 1370 l 1,10,-1
 506 106 l 1,11,-1
 696 106 l 1,12,-1
 696 0 l 1,13,-1
 113 0 l 1,14,-1
 113 106 l 1,15,-1
 303 106 l 1,16,-1
 303 1386 l 1,17,-1
 113 1386 l 1,18,-1
 113 1493 l 1,19,-1
 1673 1493 l 1,0,-1
EndSplineSet
EndChar
StartChar: afii10034
Encoding: 1056 1056 188
Width: 1378
Flags: HW
Fore
506 760 m 1,0,-1
 770 760 l 2,1,2
 919 760 919 760 997 840.5 c 128,-1,3
 1075 921 1075 921 1075 1073 c 0,4,5
 1075 1226 1075 1226 997 1306 c 128,-1,6
 919 1386 919 1386 770 1386 c 2,7,-1
 506 1386 l 1,8,-1
 506 760 l 1,0,-1
113 0 m 1,9,-1
 113 106 l 1,10,-1
 303 106 l 1,11,-1
 303 1386 l 1,12,-1
 113 1386 l 1,13,-1
 113 1493 l 1,14,-1
 819 1493 l 2,15,16
 1043 1493 1043 1493 1174 1379.5 c 128,-1,17
 1305 1266 1305 1266 1305 1073 c 0,18,19
 1305 881 1305 881 1174 767 c 128,-1,20
 1043 653 1043 653 819 653 c 2,21,-1
 506 653 l 1,22,-1
 506 106 l 1,23,-1
 737 106 l 1,24,-1
 737 0 l 1,25,-1
 113 0 l 1,9,-1
EndSplineSet
EndChar
StartChar: afii10035
Encoding: 1057 1057 189
Width: 1567
Flags: HW
Fore
1444 395 m 1,0,1
 1378 186 1378 186 1222.5 78.5 c 128,-1,2
 1067 -29 1067 -29 829 -29 c 0,3,4
 683 -29 683 -29 558 21 c 128,-1,5
 433 71 433 71 336 168 c 0,6,7
 224 280 224 280 170 422 c 0,8,9
 115 565 115 565 115 745 c 0,10,11
 115 1093 115 1093 316 1306.5 c 128,-1,12
 517 1520 517 1520 846 1520 c 0,13,14
 968 1520 968 1520 1106 1488 c 128,-1,15
 1244 1456 1244 1456 1403 1391 c 1,16,-1
 1403 1047 l 1,17,-1
 1290 1047 l 1,18,19
 1253 1235 1253 1235 1141.5 1324 c 128,-1,20
 1030 1413 1030 1413 829 1413 c 0,21,22
 590 1413 590 1413 467 1243.5 c 128,-1,23
 344 1074 344 1074 344 745 c 0,24,25
 344 417 344 417 467 248 c 0,26,27
 590 78 590 78 829 78 c 0,28,29
 996 78 996 78 1104 157.5 c 128,-1,30
 1212 237 1212 237 1260 395 c 1,31,-1
 1444 395 l 1,0,1
EndSplineSet
EndChar
StartChar: afii10036
Encoding: 1058 1058 190
Width: 1366
Flags: HW
Fore
391 0 m 1,0,-1
 391 106 l 1,1,-1
 582 106 l 1,2,-1
 582 1374 l 1,3,-1
 143 1374 l 1,4,-1
 143 1141 l 1,5,-1
 20 1141 l 1,6,-1
 20 1493 l 1,7,-1
 1346 1493 l 1,8,-1
 1346 1141 l 1,9,-1
 1223 1141 l 1,10,-1
 1223 1374 l 1,11,-1
 784 1374 l 1,12,-1
 784 106 l 1,13,-1
 975 106 l 1,14,-1
 975 0 l 1,15,-1
 391 0 l 1,0,-1
EndSplineSet
EndChar
StartChar: afii10037
Encoding: 1059 1059 191
Width: 1530
Flags: HW
Fore
518 192 m 2,0,-1
 676 570 l 1,1,-1
 214 1386 l 1,2,-1
 24 1386 l 1,3,-1
 24 1493 l 1,4,-1
 543 1493 l 1,5,-1
 543 1386 l 1,6,-1
 381 1386 l 1,7,-1
 747 740 l 1,8,-1
 1018 1386 l 1,9,-1
 856 1386 l 1,10,-1
 856 1493 l 1,11,-1
 1439 1493 l 1,12,-1
 1439 1386 l 1,13,-1
 1249 1386 l 1,14,-1
 692 78 l 2,15,16
 659 0 659 0 546 0 c 2,17,-1
 271 0 l 1,18,-1
 271 118 l 1,19,-1
 366 118 l 2,20,21
 487 118 487 118 518 192 c 2,0,-1
EndSplineSet
EndChar
StartChar: afii10038
Encoding: 1060 1060 192
Width: 2009
Flags: HW
Fore
1120 1520 m 1,0,-1
 1197 1520 l 2,1,2
 1351 1520 1351 1520 1477 1470.5 c 128,-1,3
 1603 1421 1603 1421 1701 1323 c 0,4,5
 1839 1185 1839 1185 1868 1068 c 0,6,7
 1902 926 1902 926 1902 745 c 0,8,9
 1902 512 1902 512 1868 422 c 0,10,11
 1813 280 1813 280 1701 168 c 0,12,13
 1604 71 1604 71 1476.5 21 c 128,-1,14
 1349 -29 1349 -29 1197 -29 c 2,15,-1
 1120 -29 l 1,16,-1
 1120 -215 l 1,17,-1
 1310 -215 l 1,18,-1
 1310 -321 l 1,19,-1
 727 -321 l 1,20,-1
 727 -215 l 1,21,-1
 917 -215 l 1,22,-1
 917 -29 l 1,23,-1
 840 -29 l 2,24,25
 688 -29 688 -29 560.5 21 c 128,-1,26
 433 71 433 71 336 168 c 0,27,28
 224 280 224 280 170 422 c 0,29,30
 115 564 115 564 115 745 c 0,31,32
 115 926 115 926 169.5 1068.5 c 128,-1,33
 224 1211 224 1211 336 1323 c 0,34,35
 434 1421 434 1421 560 1470.5 c 128,-1,36
 686 1520 686 1520 840 1520 c 2,37,-1
 917 1520 l 1,38,-1
 917 1707 l 1,39,-1
 727 1707 l 1,40,-1
 727 1814 l 1,41,-1
 1310 1814 l 1,42,-1
 1310 1707 l 1,43,-1
 1120 1707 l 1,44,-1
 1120 1520 l 1,0,-1
1120 78 m 1,45,-1
 1197 78 l 2,46,47
 1443 78 1443 78 1568 246.5 c 128,-1,48
 1693 415 1693 415 1693 745 c 0,49,50
 1693 1076 1693 1076 1568 1244.5 c 128,-1,51
 1443 1413 1443 1413 1197 1413 c 2,52,-1
 1120 1413 l 1,53,-1
 1120 78 l 1,45,-1
917 78 m 1,54,-1
 917 1413 l 1,55,-1
 840 1413 l 2,56,57
 594 1413 594 1413 469 1244.5 c 128,-1,58
 344 1076 344 1076 344 745 c 0,59,60
 344 415 344 415 469 246.5 c 128,-1,61
 594 78 594 78 840 78 c 2,62,-1
 917 78 l 1,54,-1
EndSplineSet
EndChar
StartChar: afii10039
Encoding: 1061 1061 193
Width: 1458
Flags: HW
Fore
678 639 m 1,0,-1
 313 106 l 1,1,-1
 506 106 l 1,2,-1
 506 0 l 1,3,-1
 12 0 l 1,4,-1
 12 106 l 1,5,-1
 184 106 l 1,6,-1
 614 733 l 1,7,-1
 178 1386 l 1,8,-1
 18 1386 l 1,9,-1
 18 1493 l 1,10,-1
 610 1493 l 1,11,-1
 610 1386 l 1,12,-1
 434 1386 l 1,13,-1
 754 905 l 1,14,-1
 1083 1386 l 1,15,-1
 891 1386 l 1,16,-1
 891 1493 l 1,17,-1
 1380 1493 l 1,18,-1
 1380 1386 l 1,19,-1
 1212 1386 l 1,20,-1
 817 811 l 1,21,-1
 1288 106 l 1,22,-1
 1448 106 l 1,23,-1
 1448 0 l 1,24,-1
 856 0 l 1,25,-1
 856 106 l 1,26,-1
 1034 106 l 1,27,-1
 678 639 l 1,0,-1
EndSplineSet
EndChar
StartChar: afii10040
Encoding: 1062 1062 194
Width: 1786
Flags: HW
Fore
1714 107 m 1,0,-1
 1483 107 l 1,1,-1
 1483 1387 l 1,2,-1
 1673 1387 l 1,3,-1
 1673 1493 l 1,4,-1
 1090 1493 l 1,5,-1
 1090 1387 l 1,6,-1
 1280 1387 l 1,7,-1
 1280 123 l 1,8,-1
 506 123 l 1,9,-1
 506 1387 l 1,10,-1
 696 1387 l 1,11,-1
 696 1493 l 1,12,-1
 113 1493 l 1,13,-1
 113 1387 l 1,14,-1
 303 1387 l 1,15,-1
 303 107 l 1,16,-1
 113 107 l 1,17,-1
 113 0 l 1,18,-1
 1512 0 l 1,19,-1
 1512 -321 l 1,20,-1
 1714 -321 l 1,21,-1
 1714 107 l 1,0,-1
EndSplineSet
EndChar
StartChar: afii10041
Encoding: 1063 1063 195
Width: 1534
Flags: HW
Fore
1399 1493 m 1,0,-1
 1399 1386 l 1,1,-1
 1209 1386 l 1,2,-1
 1209 106 l 1,3,-1
 1428 106 l 1,4,-1
 1428 0 l 1,5,-1
 819 0 l 1,6,-1
 819 106 l 1,7,-1
 1006 106 l 1,8,-1
 1006 653 l 1,9,-1
 693 653 l 2,10,11
 396 653 396 653 265 767 c 128,-1,12
 134 881 134 881 134 1073 c 2,13,-1
 134 1386 l 1,14,-1
 -56 1386 l 1,15,-1
 -56 1493 l 1,16,-1
 519 1493 l 1,17,-1
 519 1386 l 1,18,-1
 334 1386 l 1,19,-1
 334 1073 l 2,20,21
 334 921 334 921 412 840.5 c 128,-1,22
 490 760 490 760 742 760 c 2,23,-1
 1006 760 l 1,24,-1
 1008 1386 l 1,25,-1
 818 1386 l 1,26,-1
 818 1493 l 1,27,-1
 1399 1493 l 1,0,-1
EndSplineSet
EndChar
StartChar: afii10042
Encoding: 1064 1064 196
Width: 2098
Flags: HW
Fore
1146 123 m 1,0,-1
 1592 123 l 1,1,-1
 1592 1387 l 1,2,-1
 1402 1387 l 1,3,-1
 1402 1493 l 1,4,-1
 1985 1493 l 1,5,-1
 1985 1387 l 1,6,-1
 1795 1387 l 1,7,-1
 1795 107 l 1,8,-1
 1985 107 l 1,9,-1
 1985 0 l 1,10,-1
 113 0 l 1,11,-1
 113 107 l 1,12,-1
 303 107 l 1,13,-1
 303 1387 l 1,14,-1
 113 1387 l 1,15,-1
 113 1493 l 1,16,-1
 696 1493 l 1,17,-1
 696 1387 l 1,18,-1
 506 1387 l 1,19,-1
 506 123 l 1,20,-1
 952 123 l 1,21,-1
 952 1251 l 1,22,-1
 1146 1251 l 1,23,-1
 1146 123 l 1,0,-1
EndSplineSet
EndChar
StartChar: afii10043
Encoding: 1065 1065 197
Width: 2146
Flags: HW
Fore
2026 107 m 1,0,-1
 1795 107 l 1,1,-1
 1795 1387 l 1,2,-1
 1985 1387 l 1,3,-1
 1985 1493 l 1,4,-1
 1402 1493 l 1,5,-1
 1402 1387 l 1,6,-1
 1592 1387 l 1,7,-1
 1592 123 l 1,8,-1
 1146 123 l 1,9,-1
 1146 1251 l 1,10,-1
 952 1251 l 1,11,-1
 952 123 l 1,12,-1
 506 123 l 1,13,-1
 506 1387 l 1,14,-1
 696 1387 l 1,15,-1
 696 1493 l 1,16,-1
 113 1493 l 1,17,-1
 113 1387 l 1,18,-1
 303 1387 l 1,19,-1
 303 107 l 1,20,-1
 113 107 l 1,21,-1
 113 0 l 1,22,-1
 1824 0 l 1,23,-1
 1824 -321 l 1,24,-1
 2026 -321 l 1,25,-1
 2026 107 l 1,0,-1
EndSplineSet
EndChar
StartChar: afii10044
Encoding: 1066 1066 198
Width: 1558
Flags: HW
Fore
918 106 m 2,0,1
 1059 106 1059 106 1142 184 c 128,-1,2
 1225 262 1225 262 1225 432 c 0,3,4
 1225 593 1225 593 1142.5 670.5 c 128,-1,5
 1060 748 1060 748 918 748 c 2,6,-1
 758 748 l 1,7,-1
 758 106 l 1,8,-1
 918 106 l 2,0,1
550 106 m 1,9,-1
 550 1370 l 1,10,-1
 193 1370 l 1,11,-1
 193 1161 l 1,12,-1
 70 1161 l 1,13,-1
 70 1493 l 1,14,-1
 946 1493 l 1,15,-1
 946 1386 l 1,16,-1
 758 1386 l 1,17,-1
 758 870 l 1,18,-1
 873 870 l 1,19,20
 1216 848 1216 848 1356 710 c 0,21,22
 1454 612 1454 612 1454 432 c 0,23,24
 1454 210 1454 210 1314 105 c 128,-1,25
 1174 0 1174 0 916 0 c 2,26,-1
 316 0 l 1,27,-1
 316 106 l 1,28,-1
 550 106 l 1,9,-1
EndSplineSet
EndChar
StartChar: afii10045
Encoding: 1067 1067 199
Width: 2128
Flags: HW
Fore
1712 106 m 1,0,-1
 1902 106 l 1,1,-1
 1902 0 l 1,2,-1
 1319 0 l 1,3,-1
 1319 106 l 1,4,-1
 1509 106 l 1,5,-1
 1509 1386 l 1,6,-1
 1319 1386 l 1,7,-1
 1319 1493 l 1,8,-1
 1902 1493 l 1,9,-1
 1902 1386 l 1,10,-1
 1712 1386 l 1,11,-1
 1712 106 l 1,0,-1
370 106 m 1,12,-1
 370 1386 l 1,13,-1
 180 1386 l 1,14,-1
 180 1493 l 1,15,-1
 763 1493 l 1,16,-1
 763 1386 l 1,17,-1
 573 1386 l 1,18,-1
 573 870 l 1,19,-1
 693 870 l 1,20,21
 1036 848 1036 848 1176 710 c 0,22,23
 1274 612 1274 612 1274 432 c 0,24,25
 1274 210 1274 210 1134 105 c 0,26,27
 994 0 994 0 736 0 c 2,28,-1
 624 0 l 1,29,-1
 180 0 l 1,30,-1
 180 106 l 1,31,-1
 370 106 l 1,12,-1
624 106 m 1,32,-1
 738 106 l 2,33,34
 879 106 879 106 962 184 c 128,-1,35
 1045 262 1045 262 1045 432 c 0,36,37
 1045 593 1045 593 962.5 670.5 c 128,-1,38
 880 748 880 748 738 748 c 2,39,-1
 573 748 l 1,40,-1
 573 106 l 1,41,-1
 624 106 l 1,32,-1
EndSplineSet
EndChar
StartChar: afii10046
Encoding: 1068 1068 200
Width: 1414
Flags: HW
Fore
370 106 m 1,0,-1
 370 1386 l 1,1,-1
 180 1386 l 1,2,-1
 180 1493 l 1,3,-1
 763 1493 l 1,4,-1
 763 1386 l 1,5,-1
 573 1386 l 1,6,-1
 573 870 l 1,7,-1
 693 870 l 1,8,9
 1036 848 1036 848 1176 710 c 0,10,11
 1274 612 1274 612 1274 432 c 0,12,13
 1274 210 1274 210 1134 105 c 0,14,15
 994 0 994 0 736 0 c 2,16,-1
 624 0 l 1,17,-1
 180 0 l 1,18,-1
 180 106 l 1,19,-1
 370 106 l 1,0,-1
624 106 m 1,20,-1
 738 106 l 2,21,22
 879 106 879 106 962 184 c 128,-1,23
 1045 262 1045 262 1045 432 c 0,24,25
 1045 593 1045 593 962.5 670.5 c 128,-1,26
 880 748 880 748 738 748 c 2,27,-1
 573 748 l 1,28,-1
 573 106 l 1,29,-1
 624 106 l 1,20,-1
EndSplineSet
EndChar
StartChar: afii10047
Encoding: 1069 1069 201
Width: 1567
Flags: HW
Fore
1214 694 m 1,0,1
 1205 404 1205 404 1092 248 c 0,2,3
 969 78 969 78 730 78 c 0,4,5
 563 78 563 78 455 157.5 c 128,-1,6
 347 237 347 237 299 395 c 1,7,-1
 115 395 l 1,8,9
 181 186 181 186 336.5 78.5 c 128,-1,10
 492 -29 492 -29 730 -29 c 0,11,12
 876 -29 876 -29 1001 21 c 128,-1,13
 1126 71 1126 71 1223 168 c 0,14,15
 1335 280 1335 280 1389.5 422.5 c 128,-1,16
 1444 565 1444 565 1444 745 c 0,17,18
 1444 1093 1444 1093 1243 1306.5 c 128,-1,19
 1042 1520 1042 1520 713 1520 c 0,20,21
 591 1520 591 1520 453 1488 c 128,-1,22
 315 1456 315 1456 156 1391 c 1,23,-1
 156 1047 l 1,24,-1
 269 1047 l 1,25,26
 306 1235 306 1235 417.5 1324 c 128,-1,27
 529 1413 529 1413 730 1413 c 0,28,29
 969 1413 969 1413 1092 1244 c 0,30,31
 1201 1093 1201 1093 1213 816 c 1,32,-1
 617 816 l 1,33,-1
 617 940 l 1,34,-1
 494 940 l 1,35,-1
 494 574 l 1,36,-1
 617 574 l 1,37,-1
 617 694 l 1,38,-1
 1214 694 l 1,0,1
EndSplineSet
EndChar
StartChar: afii10048
Encoding: 1070 1070 202
Width: 2444
Flags: HW
Fore
506 106 m 1,0,-1
 696 106 l 1,1,-1
 696 0 l 1,2,-1
 113 0 l 1,3,-1
 113 106 l 1,4,-1
 303 106 l 1,5,-1
 303 1386 l 1,6,-1
 113 1386 l 1,7,-1
 113 1493 l 1,8,-1
 696 1493 l 1,9,-1
 696 1386 l 1,10,-1
 506 1386 l 1,11,-1
 506 850 l 1,12,-1
 865 850 l 1,13,14
 876 969 876 969 914 1068 c 0,15,16
 969 1211 969 1211 1081 1323 c 0,17,18
 1179 1421 1179 1421 1305 1470 c 0,19,20
 1431 1520 1431 1520 1585 1520 c 0,21,22
 1910 1520 1910 1520 2110 1307 c 128,-1,23
 2310 1094 2310 1094 2310 745 c 0,24,25
 2310 566 2310 566 2255 422 c 0,26,27
 2200 279 2200 279 2088 168 c 0,28,29
 1990 70 1990 70 1864 20 c 0,30,31
 1738 -29 1738 -29 1585 -29 c 0,32,33
 1433 -29 1433 -29 1306 21 c 0,34,35
 1178 71 1178 71 1081 168 c 0,36,37
 969 280 969 280 914 422 c 0,38,39
 868 544 868 544 861 694 c 1,40,-1
 506 694 l 1,41,-1
 506 106 l 1,0,-1
1585 78 m 0,42,43
 1830 78 1830 78 1955 246 c 0,44,45
 2080 415 2080 415 2080 745 c 0,46,47
 2080 1076 2080 1076 1955 1244 c 0,48,49
 1830 1413 1830 1413 1585 1413 c 0,50,51
 1339 1413 1339 1413 1214 1244 c 0,52,53
 1089 1076 1089 1076 1089 745 c 0,54,55
 1089 415 1089 415 1214 246 c 0,56,57
 1339 78 1339 78 1585 78 c 0,42,43
EndSplineSet
EndChar
StartChar: afii10049
Encoding: 1071 1071 203
Width: 1728
Flags: HW
Fore
723 741 m 1,0,1
 653 722 653 722 602.5 676.5 c 128,-1,2
 552 631 552 631 512 549 c 2,3,-1
 295 106 l 1,4,-1
 113 106 l 1,5,-1
 113 0 l 1,6,-1
 465 0 l 1,7,-1
 698 475 l 1,8,9
 765 613 765 613 821 653.5 c 128,-1,10
 877 694 877 694 975 694 c 2,11,-1
 1198 694 l 1,12,-1
 1198 106 l 1,13,-1
 987 106 l 1,14,-1
 987 0 l 1,15,-1
 1591 0 l 1,16,-1
 1591 106 l 1,17,-1
 1401 106 l 1,18,-1
 1401 1386 l 1,19,-1
 1591 1386 l 1,20,-1
 1591 1493 l 1,21,-1
 834 1493 l 2,22,23
 616 1493 616 1493 497.5 1389 c 128,-1,24
 379 1285 379 1285 379 1094 c 0,25,26
 379 940 379 940 465.5 851.5 c 128,-1,27
 552 763 552 763 723 741 c 1,0,1
1198 801 m 1,28,-1
 903 801 l 2,29,30
 752 801 752 801 680 872.5 c 128,-1,31
 608 944 608 944 608 1094 c 128,-1,32
 608 1244 608 1244 680 1315 c 128,-1,33
 752 1386 752 1386 903 1386 c 2,34,-1
 1198 1386 l 1,35,-1
 1198 801 l 1,28,-1
EndSplineSet
EndChar
StartChar: afii10065
Encoding: 1072 1072 204
Width: 1221
Flags: HW
Fore
815 334 m 2,0,-1
 815 559 l 1,1,-1
 578 559 l 2,2,3
 441 559 441 559 374 500 c 128,-1,4
 307 441 307 441 307 319 c 0,5,6
 307 208 307 208 375 143 c 128,-1,7
 443 78 443 78 559 78 c 0,8,9
 674 78 674 78 744.5 149 c 128,-1,10
 815 220 815 220 815 334 c 2,0,-1
999 664 m 2,11,-1
 999 106 l 1,12,-1
 1163 106 l 1,13,-1
 1163 0 l 1,14,-1
 815 0 l 1,15,-1
 815 115 l 1,16,17
 754 41 754 41 674 6 c 128,-1,18
 594 -29 594 -29 487 -29 c 0,19,20
 310 -29 310 -29 206 65 c 0,21,22
 102 159 102 159 102 319 c 0,23,24
 102 484 102 484 221 575 c 128,-1,25
 340 666 340 666 557 666 c 2,26,-1
 815 666 l 1,27,-1
 815 739 l 2,28,29
 815 860 815 860 741.5 926.5 c 128,-1,30
 668 993 668 993 535 993 c 0,31,32
 425 993 425 993 360 943 c 128,-1,33
 295 893 295 893 279 795 c 1,34,-1
 184 795 l 1,35,-1
 184 1010 l 1,36,37
 280 1051 280 1051 370.5 1071.5 c 128,-1,38
 461 1092 461 1092 547 1092 c 0,39,40
 768 1092 768 1092 883.5 982.5 c 128,-1,41
 999 873 999 873 999 664 c 2,11,-1
EndSplineSet
EndChar
StartChar: afii10066
Encoding: 1073 1073 205
Width: 1233
Flags: HW
Fore
616 -29 m 0,0,1
 384 -29 384 -29 243 124.5 c 128,-1,2
 102 278 102 278 102 532 c 128,-1,3
 102 786 102 786 242 939 c 0,4,5
 283 983 283 983 330 1014 c 1,6,7
 298 1016 298 1016 251 1057 c 2,8,-1
 243 1064 l 2,9,10
 183 1123 183 1123 187 1211 c 0,11,12
 188 1216 188 1216 188 1220 c 0,13,14
 203 1406 203 1406 398 1470 c 0,15,16
 467 1493 467 1493 560 1502 c 0,17,18
 683 1514 683 1514 849 1505 c 0,19,20
 865 1504 865 1504 875 1503 c 0,21,22
 909 1500 909 1500 1002 1521 c 0,23,24
 1028 1527 1028 1527 1045 1530 c 1,25,-1
 1030 1380 l 1,26,-1
 942 1369 l 1,27,28
 882 1364 882 1364 820 1364 c 1,29,-1
 634 1372 l 1,30,31
 594 1372 594 1372 553 1366 c 0,32,33
 436 1350 436 1350 371 1281 c 0,34,35
 337 1245 337 1245 337 1212 c 0,36,37
 337 1155 337 1155 409 1114 c 0,38,39
 450 1090 450 1090 500 1081 c 1,40,41
 555 1092 555 1092 616 1092 c 0,42,43
 849 1092 849 1092 989.5 939 c 128,-1,44
 1130 786 1130 786 1130 532 c 128,-1,45
 1130 278 1130 278 989.5 124.5 c 128,-1,46
 849 -29 849 -29 616 -29 c 0,0,1
616 70 m 0,47,48
 764 70 764 70 839.5 187 c 128,-1,49
 915 304 915 304 915 532 c 128,-1,50
 915 760 915 760 839.5 876.5 c 128,-1,51
 764 993 764 993 616 993 c 0,52,53
 468 993 468 993 392 876 c 0,54,55
 317 760 317 760 317 532 c 128,-1,56
 317 304 317 304 393 187 c 128,-1,57
 469 70 469 70 616 70 c 0,47,48
EndSplineSet
EndChar
StartChar: afii10067
Encoding: 1074 1074 206
Width: 1149
Flags: HW
Fore
420 103 m 1,0,-1
 624 103 l 2,1,2
 741 103 741 103 805 159 c 0,3,4
 868 215 868 215 868 308 c 0,5,6
 868 400 868 400 805 455 c 0,7,8
 742 510 742 510 624 510 c 2,9,-1
 420 510 l 1,10,-1
 420 103 l 1,0,-1
420 642 m 1,11,-1
 589 642 l 2,12,13
 695 642 695 642 752.5 686.5 c 128,-1,14
 810 731 810 731 810 800 c 0,15,16
 810 870 810 870 752.5 914.5 c 128,-1,17
 695 959 695 959 589 959 c 2,18,-1
 420 959 l 1,19,-1
 420 642 l 1,11,-1
73 0 m 1,20,-1
 73 103 l 1,21,-1
 240 103 l 1,22,-1
 240 959 l 1,23,-1
 73 959 l 1,24,-1
 73 1063 l 1,25,-1
 658 1063 l 2,26,27
 831 1063 831 1063 918 997 c 0,28,29
 1006 931 1006 931 1006 800 c 0,30,31
 1006 706 1006 706 945 649 c 0,32,33
 884 593 884 593 767 580 c 1,34,35
 912 563 912 563 988 494 c 0,36,37
 1063 424 1063 424 1063 308 c 0,38,39
 1063 150 1063 150 956 75 c 0,40,41
 849 0 849 0 622 0 c 2,42,-1
 73 0 l 1,20,-1
EndSplineSet
EndChar
StartChar: afii10068
Encoding: 1075 1075 207
Width: 1101
Flags: HW
Fore
1012 1063 m 1,0,-1
 59 1063 l 1,1,-1
 59 958 l 1,2,-1
 236 958 l 1,3,-1
 236 106 l 1,4,-1
 70 106 l 1,5,-1
 70 0 l 1,6,-1
 563 0 l 1,7,-1
 563 106 l 1,8,-1
 420 106 l 1,9,-1
 420 940 l 1,10,-1
 907 940 l 1,11,-1
 907 796 l 1,12,-1
 1012 796 l 1,13,-1
 1012 1063 l 1,0,-1
EndSplineSet
EndChar
StartChar: afii10069
Encoding: 1076 1076 208
Width: 1402
Flags: HW
Fore
302 0 m 2,0,1
 222.737 0 222.737 0 197 -163 c 0,2,3
 188 -220 188 -220 188 -340 c 1,4,-1
 36 -340 l 1,5,-1
 36 104 l 1,6,-1
 120 105 l 2,7,8
 272 106.81 272 106.81 272 313 c 2,9,-1
 272 962 l 1,10,-1
 139 962 l 1,11,-1
 139 1063 l 1,12,-1
 1182 1063 l 1,13,-1
 1182 962 l 1,14,-1
 1064 962 l 1,15,-1
 1064 238 l 1,16,17
 1056 191 1056 191 1095 152 c 0,18,19
 1134.57 112 1134.57 112 1245 104 c 1,20,-1
 1245 -340 l 1,21,-1
 1088 -340 l 1,22,23
 1088 -178.75 1088 -178.75 1085 -163 c 0,24,25
 1050.52 0 1050.52 0 974 0 c 2,26,-1
 302 0 l 2,0,1
881 238 m 1,27,-1
 881 942 l 1,28,-1
 438 942 l 1,29,-1
 438 307 l 1,30,31
 438 222 438 222 404 143 c 0,32,33
 394 119 394 119 401 111 c 0,34,35
 408.073 103.927 408.073 103.927 433 104 c 2,36,-1
 773 105 l 2,37,38
 878.007 105.309 878.007 105.309 881 238 c 1,27,-1
EndSplineSet
EndChar
StartChar: afii10070
Encoding: 1077 1077 209
Width: 1212
Flags: HW
Fore
1110 512 m 1,0,-1
 317 512 l 1,1,-1
 317 504 l 2,2,3
 317 289 317 289 398 179.5 c 128,-1,4
 479 70 479 70 637 70 c 0,5,6
 758 70 758 70 835.5 133.5 c 128,-1,7
 913 197 913 197 944 322 c 1,8,-1
 1092 322 l 1,9,10
 1048 147 1048 147 929.5 59 c 128,-1,11
 811 -29 811 -29 618 -29 c 0,12,13
 385 -29 385 -29 243.5 124.5 c 128,-1,14
 102 278 102 278 102 532 c 0,15,16
 102 784 102 784 241 938 c 128,-1,17
 380 1092 380 1092 606 1092 c 0,18,19
 847 1092 847 1092 976 943.5 c 128,-1,20
 1105 795 1105 795 1110 512 c 1,0,-1
893 618 m 1,21,22
 887 804 887 804 814.5 898.5 c 128,-1,23
 742 993 742 993 606 993 c 0,24,25
 479 993 479 993 406 898 c 0,26,27
 333 803 333 803 317 618 c 1,28,-1
 893 618 l 1,21,22
EndSplineSet
EndChar
StartChar: afii10072
Encoding: 1078 1078 210
Width: 1741
Flags: HW
Fore
963 505 m 1,0,-1
 963 102 l 1,1,-1
 1085 102 l 1,2,-1
 1085 0 l 1,3,-1
 650 0 l 1,4,-1
 650 102 l 1,5,-1
 772 102 l 1,6,-1
 772 505 l 1,7,-1
 386 0 l 1,8,-1
 111 0 l 1,9,-1
 111 102 l 1,10,-1
 222 102 l 1,11,-1
 614 586 l 1,12,-1
 279 961 l 1,13,-1
 169 961 l 1,14,-1
 169 1063 l 1,15,-1
 540 1063 l 1,16,-1
 540 961 l 1,17,-1
 435 961 l 1,18,-1
 772 585 l 1,19,-1
 772 961 l 1,20,-1
 650 961 l 1,21,-1
 650 1063 l 1,22,-1
 1085 1063 l 1,23,-1
 1085 961 l 1,24,-1
 963 961 l 1,25,-1
 963 585 l 1,26,-1
 1301 961 l 1,27,-1
 1196 961 l 1,28,-1
 1196 1063 l 1,29,-1
 1566 1063 l 1,30,-1
 1566 961 l 1,31,-1
 1457 961 l 1,32,-1
 1101 586 l 1,33,-1
 1513 102 l 1,34,-1
 1624 102 l 1,35,-1
 1624 0 l 1,36,-1
 1349 0 l 1,37,-1
 963 505 l 1,0,-1
EndSplineSet
EndChar
StartChar: afii10073
Encoding: 1079 1079 211
Width: 1099
Flags: HW
Fore
143 1010 m 1,0,1
 255 1041 255 1041 359 1058 c 0,2,3
 463 1074 463 1074 517 1074 c 0,4,5
 713 1074 713 1074 811 1007 c 0,6,7
 909 939 909 939 909 810 c 0,8,9
 909 683 909 683 827 641 c 2,10,-1
 671 562 l 1,11,12
 819 542 819 542 870 503 c 0,13,14
 967 426 967 426 967 269 c 0,15,16
 967 120 967 120 832 40 c 0,17,18
 696 -39 696 -39 499 -39 c 0,19,20
 422 -39 422 -39 315 -21 c 0,21,22
 207 -3 207 -3 101 33 c 1,23,-1
 101 239 l 1,24,-1
 209 264 l 1,25,26
 219 162 219 162 303 109 c 0,27,28
 387 56 387 56 503 56 c 0,29,30
 614 56 614 56 700 120 c 0,31,32
 785 183 785 183 785 267 c 0,33,34
 785 376 785 376 697 441 c 0,35,36
 610 505 610 505 476 505 c 2,37,-1
 384 505 l 1,38,-1
 384 610 l 1,39,-1
 432 610 l 2,40,41
 565 610 565 610 650 662 c 0,42,43
 734 713 734 713 734 801 c 0,44,45
 734 869 734 869 664 919 c 0,46,47
 595 968 595 968 501 968 c 0,48,49
 407 968 407 968 335 923 c 0,50,51
 263 877 263 877 251 788 c 1,52,-1
 143 813 l 1,53,-1
 143 1010 l 1,0,1
EndSplineSet
EndChar
StartChar: afii10074
Encoding: 1080 1080 212
Width: 1365
Flags: HW
Fore
1091 957 m 1,0,-1
 1257 957 l 1,1,-1
 1257 1063 l 1,2,-1
 741 1063 l 1,3,-1
 741 957 l 1,4,-1
 907 957 l 1,5,-1
 907 862 l 1,6,-1
 420 347 l 1,7,-1
 420 957 l 1,8,-1
 586 957 l 1,9,-1
 586 1063 l 1,10,-1
 70 1063 l 1,11,-1
 70 957 l 1,12,-1
 236 957 l 1,13,-1
 236 106 l 1,14,-1
 70 106 l 1,15,-1
 70 0 l 1,16,-1
 586 0 l 1,17,-1
 586 106 l 1,18,-1
 420 106 l 1,19,-1
 421 185 l 1,20,-1
 908 700 l 1,21,-1
 907 106 l 1,22,-1
 741 106 l 1,23,-1
 741 0 l 1,24,-1
 1257 0 l 1,25,-1
 1257 106 l 1,26,-1
 1091 106 l 1,27,-1
 1091 957 l 1,0,-1
EndSplineSet
EndChar
StartChar: afii10076
Encoding: 1082 1082 214
Width: 1241
Flags: HW
Fore
578 1063 m 1,0,-1
 578 956 l 1,1,-1
 420 956 l 1,2,-1
 420 543 l 1,3,-1
 868 956 l 1,4,-1
 715 956 l 1,5,-1
 715 1063 l 1,6,-1
 1196 1063 l 1,7,-1
 1196 956 l 1,8,-1
 1014 956 l 1,9,-1
 698 664 l 1,10,-1
 1102 106 l 1,11,-1
 1255 106 l 1,12,-1
 1255 0 l 1,13,-1
 731 0 l 1,14,-1
 731 106 l 1,15,-1
 883 106 l 1,16,-1
 565 543 l 1,17,-1
 420 408 l 1,18,-1
 420 106 l 1,19,-1
 586 106 l 1,20,-1
 586 0 l 1,21,-1
 70 0 l 1,22,-1
 70 106 l 1,23,-1
 236 106 l 1,24,-1
 236 958 l 1,25,-1
 59 958 l 1,26,-1
 59 1063 l 1,27,-1
 578 1063 l 1,0,-1
EndSplineSet
EndChar
StartChar: afii10077
Encoding: 1083 1083 215
Width: 1277
Flags: HW
Fore
-28 0 m 1,0,1
 -24 0 -24 0 88 -12 c 0,2,3
 226 -28 226 -28 340 82 c 0,4,5
 438 175 438 175 438 339 c 2,6,-1
 438 940 l 1,7,-1
 881 940 l 1,8,-1
 881 106 l 1,9,-1
 765 106 l 1,10,-1
 765 0 l 1,11,-1
 1179 0 l 1,12,-1
 1179 106 l 1,13,-1
 1065 106 l 1,14,-1
 1065 958 l 1,15,-1
 1186 958 l 1,16,-1
 1186 1063 l 1,17,-1
 142 1063 l 1,18,-1
 142 958 l 1,19,-1
 270 958 l 1,20,-1
 270 339 l 2,21,22
 270 228 270 228 226 166 c 0,23,24
 183 104 183 104 92 104 c 0,25,26
 35 104 35 104 -34 132 c 1,27,-1
 -28 0 l 1,0,1
EndSplineSet
EndChar
StartChar: afii10078
Encoding: 1084 1084 216
Width: 1720
Flags: HW
Fore
894 188 m 1,0,-1
 778 188 l 1,1,-1
 381 739 l 1,2,-1
 381 106 l 1,3,-1
 547 106 l 1,4,-1
 547 0 l 1,5,-1
 70 0 l 1,6,-1
 70 106 l 1,7,-1
 236 106 l 1,8,-1
 236 957 l 1,9,-1
 70 957 l 1,10,-1
 70 1063 l 1,11,-1
 326 1063 l 1,12,-1
 836 392 l 1,13,-1
 1346 1063 l 1,14,15
 1641 1063 l 1,16,-1
 1641 957 l 1,17,-1
 1475 957 l 1,18,-1
 1475 106 l 1,19,-1
 1641 106 l 1,20,-1
 1641 0 l 1,21,-1
 1125 0 l 1,22,-1
 1125 106 l 1,23,-1
 1291 106 l 1,24,-1
 1291 739 l 1,25,-1
 894 188 l 1,0,-1
EndSplineSet
EndChar
StartChar: afii10079
Encoding: 1085 1085 217
Width: 1365
Flags: HW
Fore
1091 957 m 1,0,-1
 1257 957 l 1,1,-1
 1257 1063 l 1,2,-1
 741 1063 l 1,3,-1
 741 957 l 1,4,-1
 907 957 l 1,5,-1
 907 640 l 1,6,-1
 420 640 l 1,7,-1
 420 957 l 1,8,-1
 586 957 l 1,9,-1
 586 1063 l 1,10,-1
 70 1063 l 1,11,-1
 70 957 l 1,12,-1
 236 957 l 1,13,-1
 236 106 l 1,14,-1
 70 106 l 1,15,-1
 70 0 l 1,16,-1
 586 0 l 1,17,-1
 586 106 l 1,18,-1
 420 106 l 1,19,-1
 421 516 l 1,20,-1
 908 516 l 1,21,-1
 907 106 l 1,22,-1
 741 106 l 1,23,-1
 741 0 l 1,24,-1
 1257 0 l 1,25,-1
 1257 106 l 1,26,-1
 1091 106 l 1,27,-1
 1091 957 l 1,0,-1
EndSplineSet
EndChar
StartChar: afii10080
Encoding: 1086 1086 218
Width: 1233
Flags: HW
Fore
616 70 m 0,0,1
 764 70 764 70 839.5 187 c 128,-1,2
 915 304 915 304 915 532 c 128,-1,3
 915 760 915 760 839.5 876.5 c 128,-1,4
 764 993 764 993 616 993 c 0,5,6
 468 993 468 993 392 876 c 0,7,8
 317 760 317 760 317 532 c 128,-1,9
 317 304 317 304 393 187 c 128,-1,10
 469 70 469 70 616 70 c 0,0,1
616 -29 m 0,11,12
 384 -29 384 -29 243 124.5 c 128,-1,13
 102 278 102 278 102 532 c 128,-1,14
 102 786 102 786 242.5 939 c 128,-1,15
 383 1092 383 1092 616 1092 c 128,-1,16
 849 1092 849 1092 989.5 939 c 128,-1,17
 1130 786 1130 786 1130 532 c 128,-1,18
 1130 278 1130 278 989.5 124.5 c 128,-1,19
 849 -29 849 -29 616 -29 c 0,11,12
EndSplineSet
EndChar
StartChar: afii10081
Encoding: 1087 1087 219
Width: 1365
Flags: HW
Fore
1268 1063 m 1,0,-1
 1268 958 l 1,1,-1
 1091 958 l 1,2,-1
 1091 106 l 1,3,-1
 1257 106 l 1,4,-1
 1257 0 l 1,5,-1
 741 0 l 1,6,-1
 741 106 l 1,7,-1
 907 106 l 1,8,-1
 907 940 l 1,9,-1
 420 940 l 1,10,-1
 420 106 l 1,11,-1
 586 106 l 1,12,-1
 586 0 l 1,13,-1
 70 0 l 1,14,-1
 70 106 l 1,15,-1
 236 106 l 1,16,-1
 236 958 l 1,17,-1
 59 958 l 1,18,-1
 59 1063 l 1,19,-1
 1268 1063 l 1,0,-1
EndSplineSet
EndChar
StartChar: afii10082
Encoding: 1088 1088 220
Width: 1311
Flags: HW
Fore
420 584 m 2,0,-1
 420 479 l 2,1,2
 420 287 420 287 493.5 186.5 c 128,-1,3
 567 86 567 86 707 86 c 0,4,5
 848 86 848 86 920.5 199 c 128,-1,6
 993 312 993 312 993 532 c 0,7,8
 993 753 993 753 920.5 865 c 128,-1,9
 848 977 848 977 707 977 c 0,10,11
 567 977 567 977 493.5 876 c 128,-1,12
 420 775 420 775 420 584 c 2,0,-1
236 956 m 1,13,-1
 59 956 l 1,14,-1
 59 1063 l 1,15,-1
 420 1063 l 1,16,-1
 420 897 l 1,17,18
 474 997 474 997 557.5 1044.5 c 128,-1,19
 641 1092 641 1092 764 1092 c 0,20,21
 960 1092 960 1092 1084 937 c 128,-1,22
 1208 782 1208 782 1208 532 c 128,-1,23
 1208 282 1208 282 1084 126.5 c 128,-1,24
 960 -29 960 -29 764 -29 c 0,25,26
 641 -29 641 -29 557.5 18.5 c 128,-1,27
 474 66 474 66 420 166 c 1,28,-1
 420 -319 l 1,29,-1
 594 -319 l 1,30,-1
 594 -426 l 1,31,-1
 59 -426 l 1,32,-1
 59 -319 l 1,33,-1
 236 -319 l 1,34,-1
 236 956 l 1,13,-1
EndSplineSet
EndChar
StartChar: afii10083
Encoding: 1089 1089 221
Width: 1147
Flags: HW
Fore
1053 319 m 1,0,1
 1014 149 1014 149 903 60 c 128,-1,2
 792 -29 792 -29 616 -29 c 0,3,4
 384 -29 384 -29 243 124.5 c 128,-1,5
 102 278 102 278 102 532 c 0,6,7
 102 787 102 787 243 939.5 c 128,-1,8
 384 1092 384 1092 616 1092 c 0,9,10
 717 1092 717 1092 817 1068.5 c 128,-1,11
 917 1045 917 1045 1018 997 c 1,12,-1
 1018 725 l 1,13,-1
 911 725 l 1,14,15
 890 865 890 865 819.5 929 c 128,-1,16
 749 993 749 993 618 993 c 0,17,18
 469 993 469 993 393 878 c 0,19,20
 317 762 317 762 317 532 c 128,-1,21
 317 302 317 302 392.5 186 c 128,-1,22
 468 70 468 70 618 70 c 0,23,24
 737 70 737 70 808 132 c 128,-1,25
 879 194 879 194 905 319 c 1,26,-1
 1053 319 l 1,0,1
EndSplineSet
EndChar
StartChar: afii10084
Encoding: 1090 1090 222
Width: 1133
Flags: HW
Fore
1055 1063 m 1,0,-1
 1055 796 l 1,1,-1
 950 796 l 1,2,-1
 950 940 l 1,3,-1
 661 940 l 1,4,-1
 661 106 l 1,5,-1
 827 106 l 1,6,-1
 827 0 l 1,7,-1
 311 0 l 1,8,-1
 311 106 l 1,9,-1
 477 106 l 1,10,-1
 477 940 l 1,11,-1
 188 940 l 1,12,-1
 188 796 l 1,13,-1
 83 796 l 1,14,-1
 83 1063 l 1,15,-1
 1055 1063 l 1,0,-1
EndSplineSet
EndChar
StartChar: afii10085
Encoding: 1091 1091 223
Width: 1157
Flags: HW
Fore
442 -195 m 1,0,-1
 512 -18 l 1,1,-1
 115 956 l 1,2,-1
 -6 956 l 1,3,-1
 -6 1063 l 1,4,-1
 483 1063 l 1,5,-1
 483 956 l 1,6,-1
 313 956 l 1,7,-1
 612 225 l 1,8,-1
 911 956 l 1,9,-1
 752 956 l 1,10,-1
 752 1063 l 1,11,-1
 1151 1063 l 1,12,-1
 1151 956 l 1,13,-1
 1032 956 l 1,14,-1
 545 -240 l 1,15,16
 495 -364 495 -364 434 -409.5 c 128,-1,17
 373 -455 373 -455 262 -455 c 0,18,19
 215 -455 215 -455 165.5 -447 c 128,-1,20
 116 -439 116 -439 66 -424 c 1,21,-1
 66 -221 l 1,22,-1
 160 -221 l 1,23,24
 166 -289 166 -289 194.5 -318.5 c 128,-1,25
 223 -348 223 -348 283 -348 c 0,26,27
 338 -348 338 -348 371.5 -317.5 c 128,-1,28
 405 -287 405 -287 442 -195 c 1,0,-1
EndSplineSet
EndChar
StartChar: afii10086
Encoding: 1092 1092 224
Width: 1510
Flags: HW
Fore
670 1092 m 1,0,-1
 670 1276 l 1,1,-1
 493 1276 l 1,2,-1
 493 1381 l 1,3,-1
 1020 1381 l 1,4,-1
 1020 1276 l 1,5,-1
 854 1276 l 1,6,-1
 854 1092 l 1,7,-1
 931 1092 l 2,8,9
 1164 1092 1164 1092 1304.5 939 c 128,-1,10
 1445 786 1445 786 1445 532 c 128,-1,11
 1445 278 1445 278 1304 124.5 c 128,-1,12
 1163 -29 1163 -29 931 -29 c 2,13,-1
 854 -30 l 1,14,-1
 854 -210 l 1,15,-1
 1020 -210 l 1,16,-1
 1020 -316 l 1,17,-1
 504 -316 l 1,18,-1
 504 -210 l 1,19,-1
 670 -210 l 1,20,-1
 670 -29 l 1,21,-1
 592 -29 l 2,22,23
 360 -29 360 -29 219 124.5 c 128,-1,24
 78 278 78 278 78 532 c 128,-1,25
 78 786 78 786 218.5 939 c 128,-1,26
 359 1092 359 1092 592 1092 c 2,27,-1
 670 1092 l 1,0,-1
670 993 m 1,28,-1
 592 993 l 2,29,30
 444 993 444 993 368.5 876.5 c 128,-1,31
 293 760 293 760 293 532 c 128,-1,32
 293 304 293 304 369 187 c 128,-1,33
 445 70 445 70 592 70 c 2,34,-1
 670 70 l 1,35,-1
 670 993 l 1,28,-1
854 993 m 1,36,-1
 854 70 l 1,37,-1
 931 70 l 2,38,39
 1078 70 1078 70 1154 187 c 128,-1,40
 1230 304 1230 304 1230 532 c 128,-1,41
 1230 760 1230 760 1154.5 876.5 c 128,-1,42
 1079 993 1079 993 931 993 c 2,43,-1
 854 993 l 1,36,-1
EndSplineSet
EndChar
StartChar: afii10087
Encoding: 1093 1093 225
Width: 1155
Flags: HW
Fore
596 649 m 1,0,-1
 819 956 l 1,1,-1
 676 956 l 1,2,-1
 676 1063 l 1,3,-1
 1085 1063 l 1,4,-1
 1085 956 l 1,5,-1
 944 956 l 1,6,-1
 659 563 l 1,7,-1
 991 106 l 1,8,-1
 1130 106 l 1,9,-1
 1130 0 l 1,10,-1
 639 0 l 1,11,-1
 639 106 l 1,12,-1
 774 106 l 1,13,-1
 543 424 l 1,14,-1
 311 106 l 1,15,-1
 449 106 l 1,16,-1
 449 0 l 1,17,-1
 45 0 l 1,18,-1
 45 106 l 1,19,-1
 186 106 l 1,20,-1
 479 510 l 1,21,-1
 156 956 l 1,22,-1
 25 956 l 1,23,-1
 25 1063 l 1,24,-1
 500 1063 l 1,25,-1
 500 956 l 1,26,-1
 373 956 l 1,27,-1
 596 649 l 1,0,-1
EndSplineSet
EndChar
StartChar: afii10088
Encoding: 1094 1094 226
Width: 1413
Flags: HW
Fore
1374 -283 m 1,0,-1
 1374 123 l 1,1,-1
 1091 123 l 1,2,-1
 1091 957 l 1,3,-1
 1257 957 l 1,4,-1
 1257 1063 l 1,5,-1
 741 1063 l 1,6,-1
 741 957 l 1,7,-1
 907 957 l 1,8,-1
 907 123 l 1,9,-1
 420 123 l 1,10,-1
 420 957 l 1,11,-1
 586 957 l 1,12,-1
 586 1063 l 1,13,-1
 70 1063 l 1,14,-1
 70 957 l 1,15,-1
 236 957 l 1,16,-1
 236 105 l 1,17,-1
 59 105 l 1,18,-1
 59 0 l 1,19,-1
 1190 0 l 1,20,-1
 1190 -283 l 1,21,-1
 1374 -283 l 1,0,-1
EndSplineSet
EndChar
StartChar: afii10089
Encoding: 1095 1095 227
Width: 1365
Flags: HW
Fore
236 617 m 2,0,-1
 236 957 l 1,1,-1
 70 957 l 1,2,-1
 70 1063 l 1,3,-1
 586 1063 l 1,4,-1
 586 957 l 1,5,-1
 420 957 l 1,6,-1
 420 768 l 2,7,8
 420 653 420 653 440 608 c 0,9,10
 456 572 456 572 519 573 c 2,11,-1
 907 573 l 1,12,-1
 907 957 l 1,13,-1
 741 957 l 1,14,-1
 741 1063 l 1,15,-1
 1257 1063 l 1,16,-1
 1257 957 l 1,17,-1
 1091 957 l 1,18,-1
 1091 106 l 1,19,-1
 1257 106 l 1,20,-1
 1257 0 l 1,21,-1
 741 0 l 1,22,-1
 741 106 l 1,23,-1
 907 106 l 1,24,-1
 908 449 l 1,25,-1
 421 449 l 2,26,27
 337 449 337 449 277 503 c 0,28,29
 236 540 236 540 236 617 c 2,0,-1
EndSplineSet
EndChar
StartChar: afii10090
Encoding: 1096 1096 228
Width: 1741
Flags: HW
Fore
1641 0 m 1,0,-1
 1641 105 l 1,1,-1
 1464 105 l 1,2,-1
 1464 957 l 1,3,-1
 1630 957 l 1,4,-1
 1630 1063 l 1,5,-1
 1170 1063 l 1,6,-1
 1170 957 l 1,7,-1
 1280 957 l 1,8,-1
 1280 123 l 1,9,-1
 939 123 l 1,10,-1
 939 848 l 1,11,-1
 1039 848 l 1,12,-1
 1039 954 l 1,13,-1
 656 954 l 1,14,-1
 656 848 l 1,15,-1
 755 848 l 1,16,-1
 755 123 l 1,17,-1
 420 123 l 1,18,-1
 420 957 l 1,19,-1
 530 957 l 1,20,-1
 530 1063 l 1,21,-1
 70 1063 l 1,22,-1
 70 957 l 1,23,-1
 236 957 l 1,24,-1
 236 105 l 1,25,-1
 59 105 l 1,26,-1
 59 0 l 1,27,-1
 1641 0 l 1,0,-1
EndSplineSet
EndChar
StartChar: afii10091
Encoding: 1097 1097 229
Width: 1851
Flags: HW
Fore
59 0 m 1,0,-1
 59 105 l 1,1,-1
 236 105 l 1,2,-1
 236 957 l 1,3,-1
 70 957 l 1,4,-1
 70 1063 l 1,5,-1
 530 1063 l 1,6,-1
 530 957 l 1,7,-1
 420 957 l 1,8,-1
 420 123 l 1,9,-1
 755 123 l 1,10,-1
 755 848 l 1,11,-1
 656 848 l 1,12,-1
 656 954 l 1,13,-1
 1039 954 l 1,14,-1
 1039 848 l 1,15,-1
 939 848 l 1,16,-1
 939 123 l 1,17,-1
 1280 123 l 1,18,-1
 1280 957 l 1,19,-1
 1170 957 l 1,20,-1
 1170 1063 l 1,21,-1
 1630 1063 l 1,22,-1
 1630 957 l 1,23,-1
 1464 957 l 1,24,-1
 1464 123 l 1,25,-1
 1747 123 l 1,26,-1
 1747 -283 l 1,27,-1
 1563 -283 l 1,28,-1
 1563 0 l 1,29,-1
 59 0 l 1,0,-1
EndSplineSet
EndChar
StartChar: afii10092
Encoding: 1098 1098 230
Width: 1131
Flags: HW
Fore
364 102 m 1,0,-1
 364 961 l 1,1,-1
 180 961 l 1,2,-1
 180 795 l 1,3,-1
 60 795 l 1,4,-1
 60 1063 l 1,5,-1
 711 1063 l 1,6,-1
 711 961 l 1,7,-1
 549 961 l 1,8,-1
 549 623 l 1,9,-1
 614 623 l 1,10,11
 865 607 865 607 958 515 c 0,12,13
 1028 446 1028 446 1028 308 c 0,14,15
 1028 150 1028 150 928 75 c 0,16,17
 829 0 829 0 645 0 c 2,18,-1
 565 0 l 1,19,-1
 188 0 l 1,20,-1
 188 102 l 1,21,-1
 364 102 l 1,0,-1
585 102 m 1,22,-1
 646 102 l 2,23,24
 747 102 747 102 806 158 c 0,25,26
 865 214 865 214 865 308 c 0,27,28
 865 402 865 402 806 457 c 0,29,30
 747 513 747 513 646 513 c 2,31,-1
 549 513 l 1,32,-1
 549 102 l 1,33,-1
 585 102 l 1,22,-1
EndSplineSet
EndChar
StartChar: afii10093
Encoding: 1099 1099 231
Width: 1513
Flags: HW
Fore
236 102 m 1,0,-1
 236 961 l 1,1,-1
 60 961 l 1,2,-1
 60 1063 l 1,3,-1
 583 1063 l 1,4,-1
 583 961 l 1,5,-1
 421 961 l 1,6,-1
 421 623 l 1,7,-1
 486 623 l 1,8,9
 737 607 737 607 830 515 c 0,10,11
 900 446 900 446 900 308 c 0,12,13
 900 150 900 150 800 75 c 0,14,15
 701 0 701 0 517 0 c 2,16,-1
 437 0 l 1,17,-1
 60 0 l 1,18,-1
 60 102 l 1,19,-1
 236 102 l 1,0,-1
457 102 m 1,20,-1
 518 102 l 2,21,22
 619 102 619 102 678 158 c 0,23,24
 737 214 737 214 737 308 c 0,25,26
 737 402 737 402 678 457 c 0,27,28
 619 513 619 513 518 513 c 2,29,-1
 421 513 l 1,30,-1
 421 102 l 1,31,-1
 457 102 l 1,20,-1
1274 956 m 1,32,-1
 1440 956 l 1,33,-1
 1440 1063 l 1,34,-1
 913 1063 l 1,35,-1
 913 958 l 1,36,-1
 1090 958 l 1,37,-1
 1090 106 l 1,38,-1
 924 106 l 1,39,-1
 924 0 l 1,40,-1
 1440 0 l 1,41,-1
 1440 106 l 1,42,-1
 1274 106 l 1,43,-1
 1274 956 l 1,32,-1
EndSplineSet
EndChar
StartChar: afii10094
Encoding: 1100 1100 232
Width: 1007
Flags: HW
Fore
236 102 m 1,0,-1
 236 961 l 1,1,-1
 60 961 l 1,2,-1
 60 1063 l 1,3,-1
 583 1063 l 1,4,-1
 583 961 l 1,5,-1
 421 961 l 1,6,-1
 421 623 l 1,7,-1
 486 623 l 1,8,9
 737 607 737 607 830 515 c 0,10,11
 900 446 900 446 900 308 c 0,12,13
 900 150 900 150 800 75 c 0,14,15
 701 0 701 0 517 0 c 2,16,-1
 437 0 l 1,17,-1
 60 0 l 1,18,-1
 60 102 l 1,19,-1
 236 102 l 1,0,-1
457 102 m 1,20,-1
 518 102 l 2,21,22
 619 102 619 102 678 158 c 0,23,24
 737 214 737 214 737 308 c 0,25,26
 737 402 737 402 678 457 c 0,27,28
 619 513 619 513 518 513 c 2,29,-1
 421 513 l 1,30,-1
 421 102 l 1,31,-1
 457 102 l 1,20,-1
EndSplineSet
EndChar
StartChar: afii10095
Encoding: 1101 1101 233
Width: 1147
Flags: HW
Fore
537 70 m 1,0,1
 302 73 302 73 250 319 c 1,2,-1
 102 319 l 1,3,4
 135 176 135 176 207 101 c 0,5,6
 226 81 226 81 252 60 c 1,7,8
 342 -5 342 -5 432 -21 c 0,9,10
 478 -29 478 -29 539 -29 c 0,11,12
 725 -28 725 -28 855 71 c 0,13,14
 887 95 887 95 912 124 c 0,15,16
 1023 254 1023 254 1046 424 c 0,17,18
 1052 474 1052 474 1053 532 c 1,19,20
 1050 785 1050 785 912 940 c 1,21,22
 779 1071 779 1071 590 1089 c 0,23,24
 565 1091 565 1091 539 1092 c 0,25,26
 425 1093 425 1093 324 1068 c 0,27,28
 229 1044 229 1044 137 997 c 1,29,-1
 137 725 l 1,30,-1
 244 725 l 1,31,32
 259 863 259 863 335 929 c 1,33,34
 407 994 407 994 537 993 c 0,35,36
 756 992 756 992 816 744 c 0,37,38
 829 690 829 690 835 625 c 0,39,40
 835 615 835 615 836 604 c 1,41,-1
 362 604 l 1,42,-1
 362 499 l 1,43,-1
 838 499 l 1,44,45
 827 70 827 70 537 70 c 1,0,1
EndSplineSet
EndChar
StartChar: afii10096
Encoding: 1102 1102 234
Width: 1783
Flags: HW
Fore
420 463 m 1,0,-1
 420 106 l 1,1,-1
 586 106 l 1,2,-1
 586 0 l 1,3,-1
 70 0 l 1,4,-1
 70 106 l 1,5,-1
 236 106 l 1,6,-1
 236 958 l 1,7,-1
 59 958 l 1,8,-1
 59 1063 l 1,9,-1
 586 1063 l 1,10,-1
 586 956 l 1,11,-1
 420 956 l 1,12,-1
 420 582 l 1,13,-1
 665 582 l 1,14,15
 676 799 676 799 802 939 c 1,16,17
 943 1092 943 1092 1176 1092 c 128,-1,18
 1409 1092 1409 1092 1549.5 939 c 128,-1,19
 1690 786 1690 786 1690 532 c 128,-1,20
 1690 278 1690 278 1549.5 124.5 c 128,-1,21
 1409 -29 1409 -29 1176 -29 c 0,22,23
 942 -29 942 -29 803 124 c 0,24,25
 681 259 681 259 666 463 c 1,26,-1
 420 463 l 1,0,-1
1176 70 m 0,27,28
 1324 70 1324 70 1399.5 187 c 128,-1,29
 1475 304 1475 304 1475 532 c 128,-1,30
 1475 760 1475 760 1399.5 876.5 c 128,-1,31
 1324 993 1324 993 1176 993 c 128,-1,32
 1028 993 1028 993 952.5 876.5 c 128,-1,33
 877 760 877 760 877 532 c 128,-1,34
 877 304 877 304 953 187 c 128,-1,35
 1029 70 1029 70 1176 70 c 0,27,28
EndSplineSet
EndChar
StartChar: afii10097
Encoding: 1103 1103 235
Width: 1325
Flags: HW
Fore
537 528 m 1,0,1
 487 514 487 514 451 482 c 0,2,3
 415 449 415 449 387 391 c 2,4,-1
 232 75 l 1,5,-1
 103 75 l 1,6,-1
 103 0 l 1,7,-1
 353 0 l 1,8,-1
 519 338 l 2,9,10
 567 436 567 436 607 465 c 128,-1,11
 647 494 647 494 716 494 c 2,12,-1
 875 494 l 1,13,-1
 875 75 l 1,14,-1
 725 75 l 1,15,-1
 725 0 l 1,16,-1
 1155 0 l 1,17,-1
 1155 75 l 1,18,-1
 1020 75 l 1,19,-1
 1020 987 l 1,20,-1
 1155 987 l 1,21,-1
 1155 1063 l 1,22,-1
 616 1063 l 2,23,24
 461 1063 461 1063 376 989 c 0,25,26
 292 915 292 915 292 779 c 0,27,28
 292 669 292 669 354 606 c 0,29,30
 415 543 415 543 537 528 c 1,0,1
875 570 m 1,31,-1
 665 570 l 2,32,33
 558 570 558 570 506.5 621 c 128,-1,34
 455 672 455 672 455 779 c 128,-1,35
 455 886 455 886 506 936 c 0,36,37
 558 987 558 987 665 987 c 2,38,-1
 875 987 l 1,39,-1
 875 570 l 1,31,-1
EndSplineSet
EndChar
StartChar: afii10099
Encoding: 1106 1106 238
Width: 1271
Flags: HW
Fore
784 -455 m 0,0,1
 643 -455 643 -455 519 -389 c 1,2,-1
 519 -170 l 1,3,-1
 614 -170 l 1,4,5
 621 -266 621 -266 663.5 -311 c 128,-1,6
 706 -356 706 -356 788 -356 c 0,7,8
 879 -356 879 -356 922.5 -294.5 c 128,-1,9
 966 -233 966 -233 966 -104 c 2,10,-1
 966 569 l 2,11,12
 966 764 966 764 918.5 835.5 c 128,-1,13
 871 907 871 907 733 907 c 0,14,15
 568 907 568 907 501 814 c 128,-1,16
 434 721 434 721 434 543 c 2,17,-1
 434 106 l 1,18,-1
 594 106 l 1,19,-1
 594 0 l 1,20,-1
 84 0 l 1,21,-1
 84 106 l 1,22,-1
 250 106 l 1,23,-1
 250 1216 l 1,24,-1
 43 1216 l 1,25,-1
 43 1335 l 1,26,-1
 250 1335 l 1,27,-1
 250 1450 l 1,28,-1
 74 1450 l 1,29,-1
 74 1556 l 1,30,-1
 434 1556 l 1,31,-1
 434 1335 l 1,32,-1
 888 1335 l 1,33,-1
 888 1216 l 1,34,-1
 434 1216 l 1,35,-1
 434 825 l 1,36,37
 485 933 485 933 566.5 988 c 128,-1,38
 648 1043 648 1043 793 1043 c 0,39,40
 985 1043 985 1043 1068 942 c 0,41,42
 1151 841 1151 841 1151 627 c 2,43,-1
 1151 -104 l 2,44,45
 1151 -267 1151 -267 1052 -362 c 0,46,47
 955 -455 955 -455 784 -455 c 0,0,1
EndSplineSet
EndChar
StartChar: afii10101
Encoding: 1108 1108 240
Width: 1147
Flags: HW
Fore
618 70 m 1,0,1
 853 73 853 73 905 319 c 1,2,-1
 1053 319 l 1,3,4
 1020 176 1020 176 948 101 c 0,5,6
 929 81 929 81 903 60 c 1,7,8
 813 -5 813 -5 723 -21 c 0,9,10
 677 -29 677 -29 616 -29 c 0,11,12
 430 -28 430 -28 300 71 c 0,13,14
 268 95 268 95 243 124 c 0,15,16
 132 254 132 254 109 424 c 0,17,18
 103 474 103 474 102 532 c 1,19,20
 105 785 105 785 243 940 c 1,21,22
 376 1071 376 1071 565 1089 c 0,23,24
 590 1091 590 1091 616 1092 c 0,25,26
 730 1093 730 1093 831 1068 c 0,27,28
 926 1044 926 1044 1018 997 c 1,29,-1
 1018 725 l 1,30,-1
 911 725 l 1,31,32
 896 863 896 863 820 929 c 1,33,34
 748 994 748 994 618 993 c 0,35,36
 399 992 399 992 339 744 c 0,37,38
 323 682 323 682 319 604 c 1,39,-1
 793 604 l 1,40,-1
 793 499 l 1,41,-1
 317 499 l 1,42,43
 328 70 328 70 618 70 c 1,0,1
EndSplineSet
EndChar
StartChar: afii10102
Encoding: 1109 1109 241
Width: 1051
Flags: HW
Fore
115 59 m 1,0,-1
 115 307 l 1,1,-1
 221 307 l 1,2,3
 225 188 225 188 295.5 129 c 128,-1,4
 366 70 366 70 504 70 c 0,5,6
 628 70 628 70 693 116.5 c 128,-1,7
 758 163 758 163 758 252 c 0,8,9
 758 322 758 322 710.5 365 c 128,-1,10
 663 408 663 408 510 457 c 1,11,-1
 377 502 l 1,12,13
 240 546 240 546 178 612 c 0,14,15
 117 678 117 678 117 780 c 0,16,17
 117 926 117 926 224 1009 c 128,-1,18
 331 1092 331 1092 520 1092 c 0,19,20
 604 1092 604 1092 697 1070 c 128,-1,21
 790 1048 790 1048 889 1006 c 1,22,-1
 889 774 l 1,23,-1
 783 774 l 1,24,25
 779 877 779 877 711 935 c 128,-1,26
 643 993 643 993 526 993 c 0,27,28
 410 993 410 993 350.5 952 c 128,-1,29
 291 911 291 911 291 829 c 0,30,31
 291 762 291 762 336 721.5 c 128,-1,32
 381 681 381 681 516 639 c 2,33,-1
 662 594 l 2,34,35
 813 547 813 547 879.5 476.5 c 128,-1,36
 946 406 946 406 946 295 c 0,37,38
 946 144 946 144 830.5 57.5 c 128,-1,39
 715 -29 715 -29 512 -29 c 0,40,41
 409 -29 409 -29 311 -7 c 128,-1,42
 213 15 213 15 115 59 c 1,0,-1
EndSplineSet
EndChar
StartChar: afii10103
Encoding: 1110 1110 242
Width: 655
Flags: HW
Fore
199 1393 m 0,0,1
 199 1439 199 1439 232.5 1473 c 128,-1,2
 266 1507 266 1507 313 1507 c 0,3,4
 359 1507 359 1507 392.5 1473 c 128,-1,5
 426 1439 426 1439 426 1393 c 0,6,7
 426 1346 426 1346 393 1313 c 128,-1,8
 360 1280 360 1280 313 1280 c 128,-1,9
 266 1280 266 1280 232.5 1313 c 128,-1,10
 199 1346 199 1346 199 1393 c 0,0,1
434 106 m 1,11,-1
 608 106 l 1,12,-1
 608 0 l 1,13,-1
 74 0 l 1,14,-1
 74 106 l 1,15,-1
 250 106 l 1,16,-1
 250 956 l 1,17,-1
 74 956 l 1,18,-1
 74 1063 l 1,19,-1
 434 1063 l 1,20,-1
 434 106 l 1,11,-1
EndSplineSet
EndChar
StartChar: afii10104
Encoding: 1111 1111 243
Width: 655
Flags: HW
Fore
434 106 m 1,0,-1
 608 106 l 1,1,-1
 608 0 l 1,2,-1
 74 0 l 1,3,-1
 74 106 l 1,4,-1
 250 106 l 1,5,-1
 250 956 l 1,6,-1
 74 956 l 1,7,-1
 74 1063 l 1,8,-1
 434 1063 l 1,9,-1
 434 106 l 1,0,-1
111 1569 m 0,10,11
 159 1569 159 1569 193.5 1534.5 c 128,-1,12
 228 1500 228 1500 228 1452 c 0,13,14
 228 1401 228 1401 195 1368 c 128,-1,15
 162 1335 162 1335 111 1335 c 0,16,17
 61 1335 61 1335 28 1368 c 0,18,19
 -5 1401 -5 1401 -5 1452 c 0,20,21
 -5 1500 -5 1500 29.5 1534.5 c 128,-1,22
 64 1569 64 1569 111 1569 c 0,10,11
501 1569 m 0,23,24
 548 1569 548 1569 582 1534 c 1,25,26
 617 1500 617 1500 617 1452 c 0,27,28
 617 1401 617 1401 584 1368 c 128,-1,29
 551 1335 551 1335 501 1335 c 0,30,31
 450 1335 450 1335 417 1368 c 128,-1,32
 384 1401 384 1401 384 1452 c 0,33,34
 384 1500 384 1500 418.5 1534.5 c 128,-1,35
 453 1569 453 1569 501 1569 c 0,23,24
EndSplineSet
EndChar
StartChar: afii10105
Encoding: 1112 1112 244
Width: 635
Flags: HW
Fore
205 1393 m 0,0,1
 205 1439 205 1439 238.5 1473 c 128,-1,2
 272 1507 272 1507 319 1507 c 0,3,4
 365 1507 365 1507 398.5 1473 c 128,-1,5
 432 1439 432 1439 432 1393 c 0,6,7
 432 1346 432 1346 399.5 1313 c 128,-1,8
 367 1280 367 1280 319 1280 c 0,9,10
 272 1280 272 1280 238.5 1313 c 128,-1,11
 205 1346 205 1346 205 1393 c 0,0,1
250 956 m 1,12,-1
 76 956 l 1,13,-1
 76 1063 l 1,14,-1
 434 1063 l 1,15,-1
 434 -104 l 2,16,17
 434 -268 434 -268 336.5 -361.5 c 128,-1,18
 239 -455 239 -455 68 -455 c 0,19,20
 -4 -455 -4 -455 -69.5 -438.5 c 128,-1,21
 -135 -422 -135 -422 -197 -389 c 1,22,-1
 -197 -170 l 1,23,-1
 -102 -170 l 1,24,25
 -95 -266 -95 -266 -52.5 -311 c 128,-1,26
 -10 -356 -10 -356 72 -356 c 0,27,28
 163 -356 163 -356 206.5 -294.5 c 128,-1,29
 250 -233 250 -233 250 -104 c 2,30,-1
 250 956 l 1,12,-1
EndSplineSet
EndChar
StartChar: afii10106
Encoding: 1113 1113 245
Width: 1601
Flags: HW
Fore
92 104 m 0,0,1
 270 104 270 104 270 339 c 2,2,-1
 270 958 l 1,3,-1
 142 958 l 1,4,-1
 142 1063 l 1,5,-1
 1186 1063 l 1,6,-1
 1186 958 l 1,7,-1
 1065 958 l 1,8,-1
 1066 623 l 1,9,10
 1353 624 1353 624 1475 515 c 1,11,12
 1545 446 1545 446 1545 308 c 0,13,14
 1545 0 1545 0 1162 0 c 2,15,-1
 881 0 l 1,16,17
 881 940 l 1,18,-1
 438 940 l 1,19,-1
 438 339 l 2,20,21
 438 175 438 175 340 82 c 0,22,23
 226 -28 226 -28 88 -12 c 0,24,25
 -24 0 -24 0 -28 0 c 1,26,-1
 -34 132 l 1,27,28
 35 104 35 104 92 104 c 0,0,1
1066 102 m 1,29,-1
 1163 102 l 2,30,31
 1264 102 1264 102 1323 158 c 0,32,33
 1382 214 1382 214 1382 308 c 0,34,35
 1382 402 1382 402 1323 457 c 0,36,37
 1264 513 1264 513 1163 513 c 2,38,-1
 1066 513 l 1,39,-1
 1066 102 l 1,29,-1
EndSplineSet
EndChar
StartChar: afii10107
Encoding: 1114 1114 246
Width: 1633
Flags: HW
Fore
908 516 m 1,0,-1
 421 516 l 1,1,-1
 420 106 l 1,2,-1
 586 106 l 1,3,-1
 586 0 l 1,4,-1
 70 0 l 1,5,-1
 70 106 l 1,6,-1
 236 106 l 1,7,-1
 236 957 l 1,8,-1
 70 957 l 1,9,-1
 70 1063 l 1,10,-1
 586 1063 l 1,11,-1
 586 957 l 1,12,-1
 420 957 l 1,13,-1
 420 640 l 1,14,-1
 907 640 l 1,15,-1
 907 957 l 1,16,-1
 741 957 l 1,17,-1
 741 1063 l 1,18,-1
 1257 1063 l 1,19,-1
 1257 957 l 1,20,-1
 1091 957 l 1,21,-1
 1092 623 l 1,22,-1
 1157 623 l 1,23,24
 1408 607 1408 607 1501 515 c 0,25,26
 1571 446 1571 446 1571 308 c 0,27,28
 1571 150 1571 150 1471 75 c 0,29,30
 1372 0 1372 0 1188 0 c 2,31,-1
 1108 0 l 1,32,-1
 732 0 l 1,33,-1
 732 102 l 1,34,-1
 908 102 l 1,35,-1
 908 516 l 1,0,-1
1128 102 m 1,36,-1
 1189 102 l 2,37,38
 1290 102 1290 102 1349 158 c 0,39,40
 1408 214 1408 214 1408 308 c 0,41,42
 1408 402 1408 402 1349 457 c 0,43,44
 1290 513 1290 513 1189 513 c 2,45,-1
 1092 513 l 1,46,-1
 1092 102 l 1,47,-1
 1128 102 l 1,36,-1
EndSplineSet
EndChar
StartChar: afii10108
Encoding: 1115 1115 247
Width: 1319
Flags: HW
Fore
434 1335 m 1,0,-1
 888 1335 l 1,1,-1
 888 1216 l 1,2,-1
 434 1216 l 1,3,-1
 434 832 l 1,4,5
 485 940 485 940 566.5 995 c 128,-1,6
 648 1050 648 1050 793 1050 c 0,7,8
 985 1050 985 1050 1068 949 c 128,-1,9
 1151 848 1151 848 1151 634 c 2,10,-1
 1151 106 l 1,11,-1
 1315 106 l 1,12,-1
 1315 0 l 1,13,-1
 807 0 l 1,14,-1
 807 106 l 1,15,-1
 966 106 l 1,16,-1
 966 576 l 2,17,18
 966 771 966 771 918.5 842.5 c 128,-1,19
 871 914 871 914 733 914 c 0,20,21
 568 914 568 914 501 821 c 128,-1,22
 434 728 434 728 434 550 c 2,23,-1
 434 106 l 1,24,-1
 594 106 l 1,25,-1
 594 0 l 1,26,-1
 84 0 l 1,27,-1
 84 106 l 1,28,-1
 250 106 l 1,29,-1
 250 1216 l 1,30,-1
 43 1216 l 1,31,-1
 43 1335 l 1,32,-1
 250 1335 l 1,33,-1
 250 1450 l 1,34,-1
 74 1450 l 1,35,-1
 74 1556 l 1,36,-1
 434 1556 l 1,37,-1
 434 1335 l 1,0,-1
EndSplineSet
EndChar
StartChar: afii10193
Encoding: 1119 1119 251
Width: 1343
Flags: HW
Fore
1268 0 m 1,0,-1
 1268 105 l 1,1,-1
 1091 105 l 1,2,-1
 1091 957 l 1,3,-1
 1257 957 l 1,4,-1
 1257 1063 l 1,5,-1
 741 1063 l 1,6,-1
 741 957 l 1,7,-1
 907 957 l 1,8,-1
 907 123 l 1,9,-1
 420 123 l 1,10,-1
 420 957 l 1,11,-1
 586 957 l 1,12,-1
 586 1063 l 1,13,-1
 70 1063 l 1,14,-1
 70 957 l 1,15,-1
 236 957 l 1,16,-1
 236 105 l 1,17,-1
 59 105 l 1,18,-1
 59 0 l 1,19,-1
 572 0 l 1,20,-1
 572 -283 l 1,21,-1
 755 -283 l 1,22,-1
 755 0 l 1,23,-1
 1268 0 l 1,0,-1
EndSplineSet
EndChar
StartChar: uni2010
Encoding: 8208 8208 164
Width: 692
Flags: W
Fore
90 627 m 1,0,-1
 602 627 l 1,1,-1
 602 471 l 1,2,-1
 90 471 l 1,3,-1
 90 627 l 1,0,-1
EndSplineSet
KernsSLIF: 356 -73 0 0 221 -225 0 0 376 -225 0 0 89 -225 0 0 88 -73 0 0 87 -112 0 0 86 -149 0 0 84 -73 0 0
EndChar
StartChar: figuredash
Encoding: 8210 8210 166
Width: 1024
Flags: W
Fore
0 610 m 1,0,-1
 1024 610 l 1,1,-1
 1024 477 l 1,2,-1
 0 477 l 1,3,-1
 0 610 l 1,0,-1
EndSplineSet
EndChar
StartChar: endash
Encoding: 8211 8211 178
Width: 1024
Flags: W
Fore
0 610 m 1,0,-1
 1024 610 l 1,1,-1
 1024 477 l 1,2,-1
 0 477 l 1,3,-1
 0 610 l 1,0,-1
EndSplineSet
EndChar
StartChar: emdash
Encoding: 8212 8212 179
Width: 2048
Flags: W
Fore
0 610 m 1,0,-1
 2048 610 l 1,1,-1
 2048 477 l 1,2,-1
 0 477 l 1,3,-1
 0 610 l 1,0,-1
EndSplineSet
EndChar
StartChar: afii00208
Encoding: 8213 8213 180
Width: 2048
Flags: W
Fore
0 610 m 1,0,-1
 2048 610 l 1,1,-1
 2048 477 l 1,2,-1
 0 477 l 1,3,-1
 0 610 l 1,0,-1
EndSplineSet
EndChar
StartChar: quoteleft
Encoding: 8216 8216 182
Width: 651
Flags: W
Fore
549 1440 m 1,0,1
 472 1376 472 1376 437.5 1291 c 128,-1,2
 403 1206 403 1206 403 1077 c 2,3,-1
 403 1014 l 1,4,-1
 209 1014 l 1,5,6
 210 1188 210 1188 272.5 1308.5 c 128,-1,7
 335 1429 335 1429 471 1520 c 1,8,-1
 549 1440 l 1,0,1
EndSplineSet
KernsSLIF: 193 -264 0 0 194 -264 0 0 195 -264 0 0 192 -264 0 0 198 -225 0 0 196 -264 0 0 74 47 0 0 65 -264 0 0
EndChar
StartChar: quoteright
Encoding: 8217 8217 183
Width: 651
Flags: W
Fore
145 1067 m 1,0,1
 223 1130 223 1130 258 1216 c 128,-1,2
 293 1302 293 1302 293 1432 c 2,3,-1
 293 1493 l 1,4,-1
 487 1493 l 1,5,6
 486 1320 486 1320 423 1199 c 128,-1,7
 360 1078 360 1078 223 987 c 1,8,-1
 145 1067 l 1,0,1
EndSplineSet
EndChar
StartChar: quotesinglbase
Encoding: 8218 8218 196
Width: 651
Flags: W
Fore
90 -199 m 1,0,1
 185 -130 185 -130 228.5 -36.5 c 128,-1,2
 272 57 272 57 272 190 c 2,3,-1
 272 227 l 1,4,-1
 469 227 l 1,5,6
 461 56 461 56 388.5 -66.5 c 128,-1,7
 316 -189 316 -189 170 -279 c 1,8,-1
 90 -199 l 1,0,1
EndSplineSet
EndChar
StartChar: quotedblleft
Encoding: 8220 8220 180
Width: 1047
Flags: W
Fore
944 1440 m 1,0,1
 868 1376 868 1376 833.5 1291 c 128,-1,2
 799 1206 799 1206 799 1077 c 2,3,-1
 799 1014 l 1,4,-1
 604 1014 l 1,5,6
 606 1189 606 1189 668 1309 c 128,-1,7
 730 1429 730 1429 866 1520 c 1,8,-1
 944 1440 l 1,0,1
549 1440 m 1,9,10
 472 1376 472 1376 437.5 1291 c 128,-1,11
 403 1206 403 1206 403 1077 c 2,12,-1
 403 1014 l 1,13,-1
 209 1014 l 1,14,15
 210 1188 210 1188 272.5 1308.5 c 128,-1,16
 335 1429 335 1429 471 1520 c 1,17,-1
 549 1440 l 1,9,10
EndSplineSet
KernsSLIF: 221 57 0 0 193 -264 0 0 194 -264 0 0 376 57 0 0 195 -264 0 0 192 -264 0 0 198 -301 0 0 196 -264 0 0 89 57 0 0 88 57 0 0 87 57 0 0 86 57 0 0 74 47 0 0 65 -264 0 0
EndChar
StartChar: quotedblright
Encoding: 8221 8221 181
Width: 1047
Flags: W
Fore
145 1067 m 1,0,1
 223 1130 223 1130 258 1216 c 128,-1,2
 293 1302 293 1302 293 1432 c 2,3,-1
 293 1493 l 1,4,-1
 487 1493 l 1,5,6
 486 1320 486 1320 423 1199 c 128,-1,7
 360 1078 360 1078 223 987 c 1,8,-1
 145 1067 l 1,0,1
543 1067 m 1,9,10
 619 1130 619 1130 653.5 1215.5 c 128,-1,11
 688 1301 688 1301 688 1430 c 2,12,-1
 688 1493 l 1,13,-1
 882 1493 l 1,14,15
 881 1318 881 1318 818.5 1198 c 128,-1,16
 756 1078 756 1078 621 987 c 1,17,-1
 543 1067 l 1,9,10
EndSplineSet
EndChar
StartChar: quotedblbase
Encoding: 8222 8222 197
Width: 1061
Flags: W
Fore
90 -199 m 1,0,1
 185 -130 185 -130 228.5 -36.5 c 128,-1,2
 272 57 272 57 272 190 c 2,3,-1
 272 227 l 1,4,-1
 469 227 l 1,5,6
 461 56 461 56 388.5 -66.5 c 128,-1,7
 316 -189 316 -189 170 -279 c 1,8,-1
 90 -199 l 1,0,1
485 -199 m 1,9,10
 580 -130 580 -130 624 -36.5 c 128,-1,11
 668 57 668 57 668 190 c 2,12,-1
 668 227 l 1,13,-1
 864 227 l 1,14,15
 857 56 857 56 784.5 -66.5 c 128,-1,16
 712 -189 712 -189 565 -279 c 1,17,-1
 485 -199 l 1,9,10
EndSplineSet
KernsSLIF: 356 -73 0 0 221 -73 0 0 376 -73 0 0 119 -36 0 0 118 -36 0 0 89 -73 0 0 88 57 0 0 87 -73 0 0 86 -112 0 0 84 -73 0 0
EndChar
StartChar: dagger
Encoding: 8224 8224 130
Width: 1024
Flags: W
Fore
422 1493 m 1,0,-1
 602 1493 l 1,1,-1
 567 1051 l 1,2,-1
 967 1079 l 1,3,-1
 967 913 l 1,4,-1
 567 942 l 1,5,-1
 602 -197 l 1,6,-1
 422 -197 l 1,7,-1
 457 942 l 1,8,-1
 57 913 l 1,9,-1
 57 1079 l 1,10,-1
 457 1051 l 1,11,-1
 422 1493 l 1,0,-1
EndSplineSet
EndChar
StartChar: daggerdbl
Encoding: 8225 8225 194
Width: 1024
Flags: W
Fore
422 1493 m 1,0,-1
 602 1493 l 1,1,-1
 567 1051 l 1,2,-1
 967 1079 l 1,3,-1
 967 913 l 1,4,-1
 567 942 l 1,5,-1
 602 647 l 1,6,-1
 567 354 l 1,7,-1
 967 383 l 1,8,-1
 967 217 l 1,9,-1
 567 246 l 1,10,-1
 602 -197 l 1,11,-1
 422 -197 l 1,12,-1
 457 246 l 1,13,-1
 57 217 l 1,14,-1
 57 383 l 1,15,-1
 457 354 l 1,16,-1
 422 647 l 1,17,-1
 457 942 l 1,18,-1
 57 913 l 1,19,-1
 57 1079 l 1,20,-1
 457 1051 l 1,21,-1
 422 1493 l 1,0,-1
EndSplineSet
EndChar
StartChar: bullet
Encoding: 8226 8226 135
Width: 1208
Flags: W
Fore
307 762 m 0,0,1
 307 886 307 886 393.5 971.5 c 128,-1,2
 480 1057 480 1057 606 1057 c 0,3,4
 730 1057 730 1057 815.5 971.5 c 128,-1,5
 901 886 901 886 901 762 c 0,6,7
 901 637 901 637 814.5 550 c 128,-1,8
 728 463 728 463 604 463 c 0,9,10
 480 463 480 463 393.5 549.5 c 128,-1,11
 307 636 307 636 307 762 c 0,0,1
EndSplineSet
EndChar
StartChar: ellipsis
Encoding: 8230 8230 171
Width: 2048
Flags: W
Fore
1573 104 m 0,0,1
 1573 160 1573 160 1611.5 199 c 128,-1,2
 1650 238 1650 238 1706 238 c 0,3,4
 1761 238 1761 238 1800 199 c 128,-1,5
 1839 160 1839 160 1839 104 c 0,6,7
 1839 49 1839 49 1800 10 c 128,-1,8
 1761 -29 1761 -29 1706 -29 c 0,9,10
 1649 -29 1649 -29 1611 9.5 c 128,-1,11
 1573 48 1573 48 1573 104 c 0,0,1
891 104 m 0,12,13
 891 160 891 160 929.5 199 c 128,-1,14
 968 238 968 238 1024 238 c 0,15,16
 1079 238 1079 238 1118 199 c 128,-1,17
 1157 160 1157 160 1157 104 c 0,18,19
 1157 49 1157 49 1118 10 c 128,-1,20
 1079 -29 1079 -29 1024 -29 c 0,21,22
 967 -29 967 -29 929 9.5 c 128,-1,23
 891 48 891 48 891 104 c 0,12,13
209 104 m 0,24,25
 209 160 209 160 247.5 199 c 128,-1,26
 286 238 286 238 342 238 c 0,27,28
 397 238 397 238 436 199 c 128,-1,29
 475 160 475 160 475 104 c 0,30,31
 475 49 475 49 436 10 c 128,-1,32
 397 -29 397 -29 342 -29 c 0,33,34
 285 -29 285 -29 247 9.5 c 128,-1,35
 209 48 209 48 209 104 c 0,24,25
EndSplineSet
Ligature: 0 1 'liga' period period period
EndChar
StartChar: perthousand
Encoding: 8240 8240 198
Width: 2748
Flags: W
Fore
2292 784 m 0,0,1
 2450 784 2450 784 2543 674 c 128,-1,2
 2636 564 2636 564 2636 377 c 0,3,4
 2636 190 2636 190 2542.5 80.5 c 128,-1,5
 2449 -29 2449 -29 2292 -29 c 0,6,7
 2132 -29 2132 -29 2039 80.5 c 128,-1,8
 1946 190 1946 190 1946 377 c 0,9,10
 1946 565 1946 565 2039.5 674.5 c 128,-1,11
 2133 784 2133 784 2292 784 c 0,0,1
2292 694 m 0,12,13
 2205 694 2205 694 2155 610 c 128,-1,14
 2105 526 2105 526 2105 377 c 0,15,16
 2105 230 2105 230 2155 146.5 c 128,-1,17
 2205 63 2205 63 2292 63 c 0,18,19
 2378 63 2378 63 2427 146.5 c 128,-1,20
 2476 230 2476 230 2476 377 c 0,21,22
 2476 525 2476 525 2426.5 609.5 c 128,-1,23
 2377 694 2377 694 2292 694 c 0,12,13
459 1427 m 0,24,25
 371 1427 371 1427 321.5 1344 c 128,-1,26
 272 1261 272 1261 272 1112 c 0,27,28
 272 966 272 966 322 882.5 c 128,-1,29
 372 799 372 799 459 799 c 0,30,31
 545 799 545 799 594 882 c 128,-1,32
 643 965 643 965 643 1112 c 0,33,34
 643 1260 643 1260 593.5 1343.5 c 128,-1,35
 544 1427 544 1427 459 1427 c 0,24,25
1489 692 m 2,36,37
 1401 692 1401 692 1352 609 c 128,-1,38
 1303 526 1303 526 1303 377 c 0,39,40
 1303 230 1303 230 1353 146.5 c 128,-1,41
 1403 63 1403 63 1489 63 c 0,42,43
 1575 63 1575 63 1624 146.5 c 128,-1,44
 1673 230 1673 230 1673 377 c 0,45,46
 1673 524 1673 524 1624.5 608 c 128,-1,47
 1576 692 1576 692 1491 692 c 2,48,-1
 1489 692 l 2,36,37
1489 784 m 0,49,50
 1647 784 1647 784 1740 674 c 128,-1,51
 1833 564 1833 564 1833 377 c 0,52,53
 1833 190 1833 190 1739.5 80.5 c 128,-1,54
 1646 -29 1646 -29 1489 -29 c 0,55,56
 1329 -29 1329 -29 1236 80.5 c 128,-1,57
 1143 190 1143 190 1143 377 c 0,58,59
 1143 565 1143 565 1236.5 674.5 c 128,-1,60
 1330 784 1330 784 1489 784 c 0,49,50
1364 1520 m 1,61,-1
 1516 1520 l 1,62,-1
 582 -29 l 1,63,-1
 430 -29 l 1,64,-1
 1364 1520 l 1,61,-1
457 1520 m 0,65,66
 615 1520 615 1520 709 1410.5 c 128,-1,67
 803 1301 803 1301 803 1114 c 0,68,69
 803 925 803 925 709.5 816 c 128,-1,70
 616 707 616 707 457 707 c 0,71,72
 298 707 298 707 205.5 816.5 c 128,-1,73
 113 926 113 926 113 1114 c 0,74,75
 113 1300 113 1300 206 1410 c 128,-1,76
 299 1520 299 1520 457 1520 c 0,65,66
EndSplineSet
EndChar
StartChar: guilsinglleft
Encoding: 8249 8249 190
Width: 819
Flags: W
Fore
627 1059 m 1,0,-1
 627 944 l 1,1,-1
 330 600 l 1,2,-1
 627 256 l 1,3,-1
 627 141 l 1,4,-1
 158 559 l 1,5,-1
 158 641 l 1,6,-1
 627 1059 l 1,0,-1
EndSplineSet
EndChar
StartChar: guilsinglright
Encoding: 8250 8250 191
Width: 819
Flags: W
Fore
193 1059 m 1,0,-1
 662 641 l 1,1,-1
 662 559 l 1,2,-1
 193 141 l 1,3,-1
 193 256 l 1,4,-1
 489 600 l 1,5,-1
 193 944 l 1,6,-1
 193 1059 l 1,0,-1
EndSplineSet
EndChar
StartChar: Euro
Encoding: 8364 8364 258
Width: 1303
Flags: W
Fore
1137 395 m 1,0,1
 1094 190 1094 190 978.5 80.5 c 128,-1,2
 863 -29 863 -29 690 -29 c 0,3,4
 501 -29 501 -29 365 123 c 128,-1,5
 229 275 229 275 182 539 c 1,6,-1
 -8 539 l 1,7,-1
 37 643 l 1,8,-1
 172 643 l 1,9,10
 171 658 171 658 170 682 c 0,11,12
 168 731 168 731 168 745 c 0,13,14
 168 779 168 779 169 803 c 128,-1,15
 170 827 170 827 172 850 c 1,16,-1
 -8 850 l 1,17,-1
 37 954 l 1,18,-1
 182 954 l 1,19,20
 229 1218 229 1218 364.5 1369 c 128,-1,21
 500 1520 500 1520 690 1520 c 0,22,23
 789 1520 789 1520 888.5 1489 c 128,-1,24
 988 1458 988 1458 1112 1389 c 1,25,-1
 1112 1047 l 1,26,-1
 1006 1047 l 1,27,28
 986 1227 986 1227 909.5 1324 c 128,-1,29
 833 1421 833 1421 711 1421 c 0,30,31
 575 1421 575 1421 492.5 1302 c 128,-1,32
 410 1183 410 1183 389 954 c 1,33,-1
 893 954 l 1,34,-1
 846 850 l 1,35,-1
 383 850 l 1,36,37
 382 836 382 836 381 813 c 0,38,39
 379 762 379 762 379 745 c 0,40,41
 379 736 379 736 380 702 c 128,-1,42
 381 668 381 668 381 643 c 1,43,-1
 756 643 l 1,44,-1
 709 539 l 1,45,-1
 389 539 l 1,46,47
 412 309 412 309 494 189.5 c 128,-1,48
 576 70 576 70 711 70 c 0,49,50
 827 70 827 70 902.5 153.5 c 128,-1,51
 978 237 978 237 1004 395 c 1,52,-1
 1137 395 l 1,0,1
EndSplineSet
EndChar
StartChar: trademark
Encoding: 8482 8482 140
Width: 2048
Flags: W
Fore
1118 1493 m 1,0,-1
 1292 1223 l 1,1,-1
 1473 1493 l 1,2,-1
 1692 1493 l 1,3,-1
 1692 1427 l 1,4,-1
 1606 1427 l 1,5,-1
 1606 981 l 1,6,-1
 1692 981 l 1,7,-1
 1692 915 l 1,8,-1
 1407 915 l 1,9,-1
 1407 981 l 1,10,-1
 1493 981 l 1,11,-1
 1493 1407 l 1,12,-1
 1284 1096 l 1,13,-1
 1241 1096 l 1,14,-1
 1042 1407 l 1,15,-1
 1042 981 l 1,16,-1
 1126 981 l 1,17,-1
 1126 915 l 1,18,-1
 885 915 l 1,19,-1
 885 981 l 1,20,-1
 971 981 l 1,21,-1
 971 1427 l 1,22,-1
 885 1427 l 1,23,-1
 885 1493 l 1,24,-1
 1118 1493 l 1,0,-1
242 1493 m 1,25,-1
 799 1493 l 1,26,-1
 799 1323 l 1,27,-1
 731 1323 l 1,28,-1
 731 1427 l 1,29,-1
 578 1427 l 1,30,-1
 578 981 l 1,31,-1
 664 981 l 1,32,-1
 664 915 l 1,33,-1
 377 915 l 1,34,-1
 377 981 l 1,35,-1
 463 981 l 1,36,-1
 463 1427 l 1,37,-1
 307 1427 l 1,38,-1
 307 1323 l 1,39,-1
 242 1323 l 1,40,-1
 242 1493 l 1,25,-1
EndSplineSet
Ligature: 0 1 'liga' T M
EndChar
StartChar: partialdiff
Encoding: 8706 8706 152
Width: 1059
Flags: W
Fore
756 621 m 1,0,1
 771 708 771 708 778.5 789.5 c 128,-1,2
 786 871 786 871 786 946 c 0,3,4
 786 1075 786 1075 749.5 1140.5 c 128,-1,5
 713 1206 713 1206 641 1206 c 0,6,7
 586 1206 586 1206 514 1148 c 128,-1,8
 442 1090 442 1090 406 1090 c 0,9,10
 370 1090 370 1090 346 1112 c 128,-1,11
 322 1134 322 1134 322 1165 c 0,12,13
 322 1227 322 1227 394 1276 c 128,-1,14
 466 1325 466 1325 567 1325 c 0,15,16
 747 1325 747 1325 854 1170 c 128,-1,17
 961 1015 961 1015 961 752 c 0,18,19
 961 417 961 417 816.5 196 c 128,-1,20
 672 -25 672 -25 459 -25 c 0,21,22
 307 -25 307 -25 205.5 83 c 128,-1,23
 104 191 104 191 104 354 c 0,24,25
 104 552 104 552 214.5 680.5 c 128,-1,26
 325 809 325 809 487 809 c 0,27,28
 588 809 588 809 653 763.5 c 128,-1,29
 718 718 718 718 756 621 c 1,0,1
707 494 m 0,30,31
 707 610 707 610 663.5 672.5 c 128,-1,32
 620 735 620 735 541 735 c 0,33,34
 432 735 432 735 361.5 606 c 128,-1,35
 291 477 291 477 291 270 c 0,36,37
 291 154 291 154 334 92.5 c 128,-1,38
 377 31 377 31 457 31 c 0,39,40
 566 31 566 31 636.5 161 c 128,-1,41
 707 291 707 291 707 494 c 0,30,31
EndSplineSet
EndChar
StartChar: Delta
Encoding: 8710 8710 168
Width: 1430
Flags: W
Fore
1075 164 m 1,0,-1
 657 1253 l 1,1,-1
 238 164 l 1,2,-1
 1075 164 l 1,0,-1
51 0 m 1,3,-1
 623 1493 l 1,4,-1
 795 1493 l 1,5,-1
 1366 0 l 1,6,-1
 51 0 l 1,3,-1
EndSplineSet
EndChar
StartChar: product
Encoding: 8719 8719 154
Width: 1630
Flags: W
Fore
53 1473 m 1,0,-1
 1575 1473 l 1,1,-1
 1575 1399 l 1,2,-1
 1384 1399 l 1,3,-1
 1384 -319 l 1,4,-1
 1575 -319 l 1,5,-1
 1575 -393 l 1,6,-1
 979 -393 l 1,7,-1
 979 -319 l 1,8,-1
 1171 -319 l 1,9,-1
 1171 1399 l 1,10,-1
 457 1399 l 1,11,-1
 457 -319 l 1,12,-1
 649 -319 l 1,13,-1
 649 -393 l 1,14,-1
 53 -393 l 1,15,-1
 53 -319 l 1,16,-1
 244 -319 l 1,17,-1
 244 1399 l 1,18,-1
 53 1399 l 1,19,-1
 53 1473 l 1,0,-1
EndSplineSet
EndChar
StartChar: summation
Encoding: 8721 8721 153
Width: 1462
Flags: W
Fore
16 1473 m 1,0,-1
 1178 1473 l 1,1,-1
 1288 1108 l 1,2,-1
 1210 1108 l 1,3,-1
 1137 1335 l 2,4,5
 1126 1369 1126 1369 1095.5 1384 c 128,-1,6
 1065 1399 1065 1399 997 1399 c 2,7,-1
 307 1399 l 1,8,-1
 1116 567 l 1,9,-1
 1116 530 l 1,10,-1
 291 -205 l 1,11,-1
 1176 -205 l 2,12,13
 1239 -204 1239 -204 1257 -191.5 c 128,-1,14
 1275 -179 1275 -179 1286 -142 c 1,15,-1
 1358 88 l 1,16,-1
 1436 88 l 1,17,-1
 1288 -393 l 1,18,-1
 16 -393 l 1,19,-1
 16 -352 l 1,20,-1
 936 463 l 1,21,-1
 16 1419 l 1,22,-1
 16 1473 l 1,0,-1
EndSplineSet
EndChar
StartChar: minus
Encoding: 8722 8722 238
Width: 1716
Flags: W
Fore
217 723 m 1,0,-1
 1499 723 l 1,1,-1
 1499 561 l 1,2,-1
 217 561 l 1,3,-1
 217 723 l 1,0,-1
EndSplineSet
EndChar
StartChar: fraction
Encoding: 8725 8725 188
Width: 342
Flags: W
Fore
567 1520 m 1,0,-1
 717 1520 l 1,1,-1
 -225 -29 l 1,2,-1
 -375 -29 l 1,3,-1
 567 1520 l 1,0,-1
EndSplineSet
EndChar
StartChar: periodcentered
Encoding: 8729 8729 257
Width: 651
Flags: W
Fore
190 711 m 0,0,1
 190 767 190 767 228.5 805.5 c 128,-1,2
 267 844 267 844 324 844 c 0,3,4
 379 844 379 844 418 805 c 128,-1,5
 457 766 457 766 457 711 c 0,6,7
 457 655 457 655 418 616.5 c 128,-1,8
 379 578 379 578 324 578 c 0,9,10
 267 578 267 578 228.5 616 c 128,-1,11
 190 654 190 654 190 711 c 0,0,1
EndSplineSet
EndChar
StartChar: radical
Encoding: 8730 8730 165
Width: 1305
Flags: W
Fore
1116 1661 m 1,0,-1
 1305 1661 l 1,1,-1
 1305 1565 l 1,2,-1
 1190 1565 l 1,3,-1
 596 -41 l 1,4,-1
 530 -41 l 1,5,-1
 211 842 l 1,6,-1
 86 797 l 1,7,-1
 61 877 l 1,8,-1
 344 975 l 1,9,-1
 600 266 l 1,10,-1
 1116 1661 l 1,0,-1
EndSplineSet
EndChar
StartChar: infinity
Encoding: 8734 8734 146
Width: 1706
Flags: W
Fore
915 559 m 1,0,1
 965 470 965 470 1031.5 425.5 c 128,-1,2
 1098 381 1098 381 1182 381 c 0,3,4
 1283 381 1283 381 1347 448.5 c 128,-1,5
 1411 516 1411 516 1411 621 c 0,6,7
 1411 722 1411 722 1352 789 c 128,-1,8
 1293 856 1293 856 1204 856 c 0,9,10
 1123 856 1123 856 1057.5 789.5 c 128,-1,11
 992 723 992 723 915 559 c 1,0,1
793 666 m 1,12,13
 744 754 744 754 677.5 798 c 128,-1,14
 611 842 611 842 526 842 c 0,15,16
 425 842 425 842 361 775.5 c 128,-1,17
 297 709 297 709 297 604 c 0,18,19
 297 503 297 503 356 436 c 128,-1,20
 415 369 415 369 504 369 c 0,21,22
 585 369 585 369 650.5 435 c 128,-1,23
 716 501 716 501 793 666 c 1,12,13
864 483 m 1,24,25
 793 347 793 347 715.5 284 c 128,-1,26
 638 221 638 221 543 221 c 0,27,28
 408 221 408 221 314.5 333 c 128,-1,29
 221 445 221 445 221 610 c 0,30,31
 221 785 221 785 304.5 893 c 128,-1,32
 388 1001 388 1001 522 1001 c 0,33,34
 617 1001 617 1001 692 939.5 c 128,-1,35
 767 878 767 878 842 737 c 1,36,37
 910 875 910 875 989 940.5 c 128,-1,38
 1068 1006 1068 1006 1165 1006 c 0,39,40
 1298 1006 1298 1006 1392.5 893 c 128,-1,41
 1487 780 1487 780 1487 614 c 0,42,43
 1487 440 1487 440 1403.5 332.5 c 128,-1,44
 1320 225 1320 225 1186 225 c 0,45,46
 1091 225 1091 225 1017.5 283.5 c 128,-1,47
 944 342 944 342 864 483 c 1,24,25
EndSplineSet
EndChar
StartChar: integral
Encoding: 8747 8747 156
Width: 1067
Flags: W
Fore
311 -262 m 0,0,1
 417 -262 417 -262 431 426 c 0,2,3
 433 534 433 534 434 591 c 0,4,5
 446 1106 446 1106 541 1328 c 128,-1,6
 636 1550 636 1550 838 1550 c 0,7,8
 918 1550 918 1550 968 1508 c 128,-1,9
 1018 1466 1018 1466 1018 1401 c 0,10,11
 1018 1347 1018 1347 986 1315.5 c 128,-1,12
 954 1284 954 1284 899 1284 c 0,13,14
 857 1284 857 1284 829 1303 c 128,-1,15
 801 1322 801 1322 789 1357 c 0,16,17
 783 1372 783 1372 778.5 1408 c 128,-1,18
 774 1444 774 1444 758 1444 c 0,19,20
 651 1444 651 1444 637 825 c 0,21,22
 633 632 633 632 629 522 c 0,23,24
 612 43 612 43 517.5 -164 c 128,-1,25
 423 -371 423 -371 227 -371 c 0,26,27
 148 -371 148 -371 97.5 -329.5 c 128,-1,28
 47 -288 47 -288 47 -223 c 0,29,30
 47 -167 47 -167 81 -135.5 c 128,-1,31
 115 -104 115 -104 176 -104 c 0,32,33
 209 -104 209 -104 233 -118.5 c 128,-1,34
 257 -133 257 -133 272 -161 c 0,35,36
 282 -179 282 -179 287 -220.5 c 128,-1,37
 292 -262 292 -262 311 -262 c 0,0,1
EndSplineSet
EndChar
